<svg width="350" height="350" viewBox="0 0 350 350" fill="none" xmlns="http://www.w3.org/2000/svg">
<circle cx="175" cy="210" r="42" fill="#0EFBCA"/>
<path fill-rule="evenodd" clip-rule="evenodd" d="M311.106 194.377C309.657 181.75 306.455 169.361 301.572 157.572C294.687 140.951 284.595 125.848 271.874 113.126C259.152 100.405 244.049 90.3134 227.428 83.4285C210.806 76.5436 192.991 73 175 73C157.009 73 139.194 76.5436 122.572 83.4285C105.951 90.3134 90.8481 100.405 78.1264 113.126C65.4048 125.848 55.3135 140.951 48.4286 157.572C43.5455 169.361 40.3432 181.75 38.8938 194.377C38.295 199.594 38.1993 201.157 38.8232 202.669C39.369 203.992 40.6522 205.431 41.9044 206.124C42.5425 206.478 43.3494 206.722 44.7818 206.857C46.2732 206.997 48.1814 207 51.0001 207L299 207C301.819 207 303.727 206.997 305.218 206.857C306.651 206.722 307.458 206.478 308.096 206.124C309.348 205.431 310.631 203.992 311.177 202.669C311.801 201.157 311.705 199.594 311.106 194.377ZM309.549 208.749C307.289 210 304.526 210 299 210L51.0001 210C45.4743 210 42.7114 210 40.4516 208.749C38.604 207.727 36.8552 205.766 36.0499 203.813C35.065 201.426 35.3478 198.962 35.9134 194.035C37.3945 181.132 40.6669 168.471 45.6569 156.424C52.6926 139.439 63.0049 124.005 76.0051 111.005C89.0053 98.0049 104.439 87.6925 121.424 80.6569C138.41 73.6212 156.615 70 175 70C193.385 70 211.59 73.6212 228.576 80.6569C245.561 87.6925 260.995 98.0048 273.995 111.005C286.995 124.005 297.308 139.439 304.343 156.424C309.333 168.471 312.606 181.132 314.087 194.035C314.652 198.962 314.935 201.426 313.95 203.813C313.145 205.766 311.396 207.727 309.549 208.749Z" fill="#080708"/>
<path fill-rule="evenodd" clip-rule="evenodd" d="M292.987 225.503C296.379 199.684 291.221 173.3 278.057 150.5C262.277 123.168 236.285 103.223 205.8 95.0549C175.314 86.8864 142.833 91.1627 115.5 106.943C92.7 120.107 75.0408 140.376 65.0697 164.432C63.1001 169.184 62.5951 170.619 62.7896 172.265C62.9568 173.679 63.8362 175.463 64.8564 176.457C65.3881 176.975 66.1043 177.424 67.4431 177.924C68.8411 178.446 70.6737 178.94 73.3885 179.667L278.165 234.537C280.88 235.265 282.714 235.753 284.186 236C285.595 236.236 286.439 236.206 287.159 236.023C288.54 235.672 290.193 234.567 291.045 233.426C292.036 232.097 292.316 230.603 292.987 225.503ZM287.898 238.93C285.368 239.573 282.708 238.86 277.388 237.435L72.612 182.565C67.2921 181.14 64.6322 180.427 62.7628 178.606C61.2503 177.132 60.0582 174.714 59.8104 172.617C59.5041 170.025 60.4355 167.778 62.2983 163.284C72.5208 138.621 90.6251 117.841 114 104.345C142.022 88.1668 175.322 83.7827 206.576 92.1571C237.83 100.532 264.477 120.979 280.655 149C294.151 172.375 299.439 199.424 295.961 225.893C295.327 230.717 295.01 233.129 293.449 235.22C292.186 236.913 289.944 238.411 287.898 238.93Z" fill="#080708"/>
<path fill-rule="evenodd" clip-rule="evenodd" d="M254.361 267.497C266.4 250.88 273 230.78 273 210C273 184.009 262.675 159.082 244.296 140.704C225.918 122.325 200.991 112 175 112C154.22 112 134.12 118.6 117.503 130.639C113.481 133.553 112.358 134.467 111.66 136.009C111.078 137.296 110.913 139.377 111.285 140.74C111.486 141.477 111.88 142.228 112.775 143.32C113.714 144.466 115.041 145.798 117.017 147.775L237.225 267.983C239.202 269.959 240.533 271.286 241.679 272.225C242.772 273.12 243.523 273.514 244.26 273.715C245.623 274.087 247.703 273.922 248.991 273.339C250.533 272.641 251.447 271.519 254.361 267.497ZM243.469 276.609C240.91 275.91 238.974 273.975 235.104 270.104L114.896 149.896C111.025 146.025 109.09 144.09 108.391 141.53C107.834 139.493 108.057 136.696 108.927 134.772C110.022 132.354 111.929 130.973 115.743 128.209C132.869 115.802 153.584 109 175 109C201.787 109 227.476 119.641 246.418 138.582C265.359 157.523 276 183.213 276 210C276 231.416 269.198 252.131 256.791 269.257C254.027 273.071 252.645 274.978 250.228 276.072C248.304 276.943 245.507 277.165 243.469 276.609Z" fill="#080708"/>
</svg>
