<svg width="350" height="350" viewBox="0 0 350 350" fill="none" xmlns="http://www.w3.org/2000/svg">
<path d="M268.5 220.312C268.5 274.609 226.571 318.5 175 318.5C123.429 318.5 81.5 274.609 81.5 220.312C81.5 204.911 89.1501 182.837 100.268 158.979C111.353 135.192 125.768 109.868 139.069 88.056C144.603 78.9813 148.692 72.2795 152.479 67.3631C156.246 62.4728 159.619 59.4799 163.658 57.7278C170.399 54.8036 179.601 54.8036 186.342 57.7278C190.381 59.4799 193.754 62.4728 197.521 67.3631C201.308 72.2795 205.397 78.9812 210.931 88.056C224.232 109.868 238.647 135.192 249.732 158.979C260.85 182.837 268.5 204.911 268.5 220.312Z" stroke="#080708" stroke-width="3"/>
<path d="M252.5 209.5C252.5 254.297 217.741 290.5 175 290.5C132.259 290.5 97.5 254.297 97.5 209.5C97.5 202.618 99.3713 194.057 102.605 184.44C105.832 174.842 110.383 164.285 115.67 153.439C126.244 131.749 139.713 109 151.272 90.6215C155.087 84.5551 157.888 80.1056 160.445 76.856C162.985 73.6287 165.183 71.7195 167.732 70.6307C172.103 68.7632 177.897 68.7632 182.268 70.6307C184.817 71.7195 187.015 73.6287 189.555 76.856C192.112 80.1056 194.913 84.5551 198.728 90.6215C210.287 109 223.756 131.749 234.33 153.439C239.617 164.285 244.168 174.842 247.395 184.44C250.629 194.057 252.5 202.618 252.5 209.5Z" stroke="#080708" stroke-width="3"/>
<path d="M234.5 198.688C234.5 234.028 207.766 262.5 175 262.5C142.234 262.5 115.5 234.028 115.5 198.688C115.5 192.577 117.333 184.765 120.443 175.957C123.544 167.174 127.873 157.512 132.774 147.736C142.575 128.185 154.613 108.278 163.541 94.2082C165.541 91.0566 166.981 88.7895 168.273 87.1487C169.55 85.5249 170.574 84.66 171.673 84.1923C173.703 83.3288 176.297 83.3288 178.327 84.1923C179.426 84.66 180.45 85.5249 181.727 87.1487C183.019 88.7895 184.459 91.0566 186.459 94.2082C195.387 108.278 207.425 128.185 217.227 147.736C222.127 157.512 226.456 167.174 229.557 175.957C232.667 184.765 234.5 192.577 234.5 198.688Z" stroke="#080708" stroke-width="3"/>
<circle cx="175" cy="203" r="39" fill="#9CF50B"/>
</svg>
