<svg width="740" height="480" viewBox="0 0 740 480" fill="none" xmlns="http://www.w3.org/2000/svg">
<rect x="280" y="200" width="360" height="80" rx="40" fill="#9CF50B"/>
<circle cx="240" cy="240" r="238.5" stroke="#080708" stroke-width="3"/>
<circle cx="275" cy="240" r="184" stroke="#080708" stroke-width="2"/>
<circle cx="300" cy="240" r="139.5" stroke="#080708"/>
<circle cx="630" cy="240" r="108.5" stroke="#080708" stroke-width="3"/>
<circle cx="620" cy="240" r="89" stroke="#080708" stroke-width="2"/>
<circle cx="610" cy="240" r="69.5" stroke="#080708"/>
<g opacity="0.5">
<mask id="path-8-inside-1_1245:6902" fill="white">
<path fill-rule="evenodd" clip-rule="evenodd" d="M344.56 332.984C338.247 334.305 331.705 335 325 335C272.533 335 230 292.467 230 240C230 187.533 272.533 145 325 145C331.705 145 338.247 145.695 344.56 147.016L606.462 190.414C607.653 190.567 608.831 190.763 609.995 190.999L610 191C632.822 195.633 650 215.81 650 240C650 264.19 632.822 284.367 610 289M606.462 289.586L344.56 332.984L606.462 289.586ZM606.462 289.586C607.653 289.433 608.831 289.237 609.995 289.001L606.462 289.586Z"/>
</mask>
<path d="M606.462 289.586L606.503 289.833L606.462 289.586ZM609.959 288.753L344.519 332.738L344.601 333.231L610.041 289.247L609.959 288.753ZM344.601 333.231L606.503 289.833L606.421 289.34L344.519 332.738L344.601 333.231ZM606.503 289.833L610.036 289.247L609.954 288.754L606.421 289.34L606.503 289.833ZM344.56 332.984L344.478 332.491L344.468 332.493L344.457 332.495L344.56 332.984ZM344.56 147.016L344.457 147.505L344.468 147.507L344.478 147.509L344.56 147.016ZM606.462 190.414L606.38 190.907L606.389 190.908L606.398 190.91L606.462 190.414ZM609.995 190.999L609.896 191.489L609.905 191.491L609.913 191.492L609.995 190.999ZM610 191L610.099 190.51L610.091 190.508L610.082 190.507L610 191ZM606.462 289.586L606.398 289.09L606.389 289.092L606.38 289.093L606.462 289.586ZM325 335.5C331.739 335.5 338.316 334.802 344.662 333.474L344.457 332.495C338.178 333.809 331.67 334.5 325 334.5V335.5ZM229.5 240C229.5 292.743 272.257 335.5 325 335.5V334.5C272.809 334.5 230.5 292.191 230.5 240H229.5ZM325 144.5C272.257 144.5 229.5 187.257 229.5 240H230.5C230.5 187.809 272.809 145.5 325 145.5V144.5ZM344.662 146.526C338.316 145.198 331.739 144.5 325 144.5V145.5C331.67 145.5 338.178 146.191 344.457 147.505L344.662 146.526ZM344.478 147.509L606.38 190.907L606.543 189.92L344.641 146.522L344.478 147.509ZM610.095 190.509C608.919 190.271 607.729 190.073 606.526 189.918L606.398 190.91C607.577 191.062 608.744 191.255 609.896 191.489L610.095 190.509ZM609.913 191.492L609.918 191.493L610.082 190.507L610.077 190.506L609.913 191.492ZM650.5 240C650.5 215.568 633.15 195.189 610.099 190.51L609.901 191.49C632.494 196.076 649.5 216.053 649.5 240H650.5ZM610.099 289.49C633.15 284.811 650.5 264.432 650.5 240H649.5C649.5 263.947 632.494 283.924 609.901 288.51L610.099 289.49ZM606.38 289.093L344.478 332.491L344.641 333.478L606.543 290.08L606.38 289.093ZM606.526 290.082C607.729 289.927 608.919 289.729 610.095 289.491L609.896 288.511C608.744 288.745 607.577 288.938 606.398 289.09L606.526 290.082Z" fill="#080708" mask="url(#path-8-inside-1_1245:6902)"/>
</g>
</svg>
