<svg width="350" height="350" viewBox="0 0 350 350" fill="none" xmlns="http://www.w3.org/2000/svg">
<rect x="147" y="199" width="56" height="56" rx="10" fill="#0EFBCA"/>
<rect x="111.5" y="76.5" width="127" height="217" rx="28.5" stroke="#080708" stroke-width="3"/>
<rect x="131.5" y="131.5" width="87" height="142" rx="18.5" stroke="#080708" stroke-width="3"/>
<path d="M275 295L272.427 289.855C272.187 289.374 272.067 289.133 271.957 288.905C267.779 280.182 268.062 269.98 272.718 261.503C272.84 261.28 272.973 261.047 273.24 260.58L277.984 252.279C282.126 245.029 280.904 235.904 275 230V230C269.096 224.096 267.874 214.971 272.016 207.721L277.984 197.279C282.126 190.029 280.904 180.904 275 175V175C269.096 169.096 267.874 159.971 272.016 152.721L277.984 142.279C282.126 135.029 280.904 125.904 275 120V120C269.096 114.096 267.874 104.971 272.016 97.7212L276.76 89.4201C277.027 88.9532 277.16 88.7197 277.282 88.4972C281.938 80.0199 282.221 69.818 278.043 61.0955C277.933 60.8665 277.813 60.626 277.573 60.145L275 55" stroke="#080708" stroke-width="3"/>
<path d="M75 295L77.5725 289.855C77.813 289.374 77.9333 289.133 78.0429 288.905C82.2212 280.182 81.9381 269.98 77.2823 261.503C77.1602 261.28 77.0268 261.047 76.7599 260.58L72.0165 252.279C67.8739 245.029 69.0959 235.904 75 230V230C80.9041 224.096 82.1261 214.971 77.9835 207.721L72.0165 197.279C67.8739 190.029 69.0959 180.904 75 175V175C80.9041 169.096 82.1261 159.971 77.9835 152.721L72.0165 142.279C67.8739 135.029 69.0959 125.904 75 120V120C80.9041 114.096 82.1261 104.971 77.9835 97.7212L73.2401 89.4201C72.9732 88.9532 72.8398 88.7197 72.7177 88.4972C68.0619 80.0199 67.7788 69.818 71.9571 61.0955C72.0667 60.8665 72.187 60.626 72.4275 60.145L75 55" stroke="#080708" stroke-width="3"/>
</svg>
