<svg width="576" height="255" viewBox="0 0 576 255" fill="none" xmlns="http://www.w3.org/2000/svg">
<path d="M174.7 148.5H171.7V151.5H174.7V148.5ZM208.65 148.5H211.65V145.5H208.65V148.5ZM208.65 195.4V198.4H211.65V195.4H208.65ZM174.7 195.4V192.4H171.7V195.4H174.7ZM174.7 250V253H177.7V250H174.7ZM124.3 250H121.3V253H124.3V250ZM124.3 195.4H127.3V192.4H124.3V195.4ZM0.4 195.4H-2.6V198.4H0.4V195.4ZM0.4 148.5L-2.21643 147.032L-2.6 147.716V148.5H0.4ZM80.9 4.99998V1.99998H79.1431L78.2836 3.53223L80.9 4.99998ZM174.7 4.99998H177.7V1.99998H174.7V4.99998ZM107.5 52.25V49.25H105.747L104.887 50.777L107.5 52.25ZM53.25 148.5L50.6365 147.027L48.1154 151.5H53.25V148.5ZM124.3 148.5V151.5H127.3V148.5H124.3ZM124.3 52.25H127.3V49.25H124.3V52.25ZM174.7 151.5H208.65V145.5H174.7V151.5ZM205.65 148.5V195.4H211.65V148.5H205.65ZM208.65 192.4H174.7V198.4H208.65V192.4ZM171.7 195.4V250H177.7V195.4H171.7ZM174.7 247H124.3V253H174.7V247ZM127.3 250V195.4H121.3V250H127.3ZM124.3 192.4H0.4V198.4H124.3V192.4ZM3.4 195.4V148.5H-2.6V195.4H3.4ZM3.01643 149.968L83.5164 6.46774L78.2836 3.53223L-2.21643 147.032L3.01643 149.968ZM80.9 7.99998H174.7V1.99998H80.9V7.99998ZM171.7 4.99998V148.5H177.7V4.99998H171.7ZM104.887 50.777L50.6365 147.027L55.8635 149.973L110.113 53.723L104.887 50.777ZM53.25 151.5H124.3V145.5H53.25V151.5ZM127.3 148.5V52.25H121.3V148.5H127.3ZM124.3 49.25H107.5V55.25H124.3V49.25ZM338.32 10.6L337.163 13.368L337.188 13.3783L337.212 13.3882L338.32 10.6ZM378.92 36.85L376.798 38.9713L376.809 38.9822L376.82 38.9931L378.92 36.85ZM405.87 77.45L403.096 78.5922L403.106 78.617L403.116 78.6417L405.87 77.45ZM409.72 168.45L412.571 169.383L412.573 169.376L412.576 169.368L409.72 168.45ZM391.52 203.45L389.126 201.641L389.12 201.65L391.52 203.45ZM364.22 230.4L362.445 227.981L362.432 227.99L362.42 228L364.22 230.4ZM329.22 248.25L330.091 251.121L330.114 251.114L330.138 251.106L329.22 248.25ZM223.52 237.75L222.055 240.368L223.52 237.75ZM177.32 192.25L174.701 193.715L174.712 193.733L174.723 193.752L177.32 192.25ZM177.32 63.1L174.715 61.6116L174.709 61.6217L177.32 63.1ZM343.22 70.8L341.065 72.8874L341.073 72.896L341.082 72.9045L343.22 70.8ZM233.32 70.8L235.457 72.9045L233.32 70.8ZM233.32 184.2L235.457 182.095L233.32 184.2ZM343.22 184.2L341.082 182.095L341.073 182.104L341.065 182.113L343.22 184.2ZM288.27 3.8C305.625 3.8 321.913 6.99491 337.163 13.368L339.476 7.83199C323.46 1.13841 306.381 -2.2 288.27 -2.2V3.8ZM337.212 13.3882C352.729 19.5492 365.909 28.0823 376.798 38.9713L381.041 34.7287C369.53 23.2177 355.643 14.2507 339.427 7.81174L337.212 13.3882ZM376.82 38.9931C387.943 49.8885 396.706 63.074 403.096 78.5922L408.644 76.3077C401.967 60.0927 392.763 46.2114 381.019 34.7069L376.82 38.9931ZM403.116 78.6417C409.714 93.8834 413.02 110.159 413.02 127.5H419.02C419.02 109.374 415.559 92.2833 408.623 76.2583L403.116 78.6417ZM413.02 127.5C413.02 141.433 410.965 154.773 406.863 167.532L412.576 169.368C416.874 155.994 419.02 142.033 419.02 127.5H413.02ZM406.868 167.517C402.769 180.043 396.854 191.413 389.126 201.642L393.913 205.258C402.052 194.487 408.27 182.523 412.571 169.383L406.868 167.517ZM389.12 201.65C381.599 211.677 372.711 220.453 362.445 227.981L365.994 232.819C376.728 224.947 386.04 215.756 393.92 205.25L389.12 201.65ZM362.42 228C352.437 235.487 341.073 241.289 328.302 245.394L330.138 251.106C343.499 246.811 355.468 240.713 366.02 232.8L362.42 228ZM328.348 245.379C315.576 249.257 302.22 251.2 288.27 251.2V257.2C302.786 257.2 316.73 255.177 330.091 251.121L328.348 245.379ZM288.27 251.2C265.19 251.2 244.114 245.836 224.984 235.132L222.055 240.368C242.125 251.598 264.216 257.2 288.27 257.2V251.2ZM224.984 235.132C205.853 224.428 190.845 209.646 179.917 190.748L174.723 193.752C186.194 213.588 201.986 229.139 222.055 240.368L224.984 235.132ZM179.938 190.785C169.234 171.655 163.87 150.58 163.87 127.5H157.87C157.87 151.553 163.472 173.645 174.701 193.715L179.938 190.785ZM163.87 127.5C163.87 104.42 169.234 83.4673 179.93 64.5782L174.709 61.6217C163.472 81.466 157.87 103.447 157.87 127.5H163.87ZM179.924 64.5884C190.855 45.4589 205.862 30.5672 224.984 19.868L222.055 14.6319C201.977 25.8661 186.184 41.5411 174.715 61.6116L179.924 64.5884ZM224.984 19.868C244.114 9.16433 265.19 3.8 288.27 3.8V-2.2C264.216 -2.2 242.125 3.40232 222.055 14.6319L224.984 19.868ZM345.374 68.7126C330.302 53.1543 311.189 45.4 288.27 45.4V51.4C309.684 51.4 327.204 58.579 341.065 72.8874L345.374 68.7126ZM288.27 45.4C265.574 45.4 246.474 53.16 231.182 68.6954L235.457 72.9045C249.565 58.5733 267.098 51.4 288.27 51.4V45.4ZM231.182 68.6954C215.876 84.2438 208.27 103.925 208.27 127.5H214.27C214.27 105.342 221.363 87.2228 235.457 72.9045L231.182 68.6954ZM208.27 127.5C208.27 151.075 215.876 170.756 231.182 186.305L235.457 182.095C221.363 167.777 214.27 149.658 214.27 127.5H208.27ZM231.182 186.305C246.474 201.84 265.574 209.6 288.27 209.6V203.6C267.098 203.6 249.565 196.427 235.457 182.095L231.182 186.305ZM288.27 209.6C311.189 209.6 330.302 201.846 345.374 186.287L341.065 182.113C327.204 196.421 309.684 203.6 288.27 203.6V209.6ZM345.358 186.305C360.663 170.756 368.27 151.075 368.27 127.5H362.27C362.27 149.658 355.176 167.777 341.082 182.095L345.358 186.305ZM368.27 127.5C368.27 103.925 360.663 84.2438 345.358 68.6954L341.082 72.9045C355.176 87.2228 362.27 105.342 362.27 127.5H368.27ZM541.079 148.5H538.079V151.5H541.079V148.5ZM575.029 148.5H578.029V145.5H575.029V148.5ZM575.029 195.4V198.4H578.029V195.4H575.029ZM541.079 195.4V192.4H538.079V195.4H541.079ZM541.079 250V253H544.079V250H541.079ZM490.679 250H487.679V253H490.679V250ZM490.679 195.4H493.679V192.4H490.679V195.4ZM366.779 195.4H363.779V198.4H366.779V195.4ZM366.779 148.5L364.162 147.032L363.779 147.716V148.5H366.779ZM447.279 4.99998V1.99998H445.522L444.662 3.53223L447.279 4.99998ZM541.079 4.99998H544.079V1.99998H541.079V4.99998ZM473.879 52.25V49.25H472.126L471.265 50.777L473.879 52.25ZM419.629 148.5L417.015 147.027L414.494 151.5H419.629V148.5ZM490.679 148.5V151.5H493.679V148.5H490.679ZM490.679 52.25H493.679V49.25H490.679V52.25ZM541.079 151.5H575.029V145.5H541.079V151.5ZM572.029 148.5V195.4H578.029V148.5H572.029ZM575.029 192.4H541.079V198.4H575.029V192.4ZM538.079 195.4V250H544.079V195.4H538.079ZM541.079 247H490.679V253H541.079V247ZM493.679 250V195.4H487.679V250H493.679ZM490.679 192.4H366.779V198.4H490.679V192.4ZM369.779 195.4V148.5H363.779V195.4H369.779ZM369.395 149.968L449.895 6.46774L444.662 3.53223L364.162 147.032L369.395 149.968ZM447.279 7.99998H541.079V1.99998H447.279V7.99998ZM538.079 4.99998V148.5H544.079V4.99998H538.079ZM471.265 50.777L417.015 147.027L422.242 149.973L476.492 53.723L471.265 50.777ZM419.629 151.5H490.679V145.5H419.629V151.5ZM493.679 148.5V52.25H487.679V148.5H493.679ZM490.679 49.25H473.879V55.25H490.679V49.25Z" fill="#080708"/>
</svg>
