<svg width="25" height="38" viewBox="0 0 25 38" fill="none" xmlns="http://www.w3.org/2000/svg">
<path fill-rule="evenodd" clip-rule="evenodd" d="M10 1.5988C11.5706 0.797146 13.4303 0.797146 15.0009 1.5988C16.1117 2.16575 16.8544 3.28127 17.4975 4.51881C18.1564 5.78697 18.8725 7.52437 19.7743 9.71269L24.3532 20.8227C25.7296 24.1623 23.2743 27.8298 19.6622 27.8298C18.4431 27.8298 17.487 28.8763 17.5969 30.0904L17.7476 31.7567C18.0267 34.8413 15.5977 37.5001 12.5005 37.5001C9.40324 37.5001 6.97419 34.8413 7.25329 31.7567L7.40406 30.0904C7.51392 28.8763 6.55783 27.8298 5.33873 27.8298C1.72661 27.8298 -0.728632 24.1623 0.647749 20.8227L5.22657 9.71274C6.12845 7.52439 6.8445 5.78697 7.50345 4.51881C8.14649 3.28127 8.88928 2.16575 10 1.5988ZM13.637 4.27085C12.9231 3.90646 12.0778 3.90646 11.3639 4.27085C11.1582 4.37587 10.779 4.72143 10.1655 5.90206C9.57527 7.038 8.90883 8.6513 7.97014 10.9289L3.42142 21.9658C2.85886 23.3308 3.86237 24.8298 5.33873 24.8298C8.32141 24.8298 10.6606 27.3902 10.3919 30.3608L10.2411 32.0271C10.1209 33.3553 11.1668 34.5001 12.5005 34.5001C13.8341 34.5001 14.88 33.3553 14.7598 32.0271L14.6091 30.3608C14.3403 27.3902 16.6795 24.8298 19.6622 24.8298C21.1386 24.8298 22.1421 23.3308 21.5795 21.9658L17.0308 10.9289C16.0921 8.65131 15.4257 7.038 14.8354 5.90206C14.2219 4.72143 13.8428 4.37587 13.637 4.27085Z" fill="#080708"/>
</svg>
