<svg width="980" height="1080" viewBox="0 0 980 1080" fill="none" xmlns="http://www.w3.org/2000/svg">
<path d="M1 325.552C1 296.05 1.01806 281.586 5.97253 269.453C10.3615 258.705 17.4679 249.282 26.595 242.108C36.8982 234.009 50.8007 230.016 79.1662 221.906L947.566 -26.3801C971.128 -33.1167 988.735 -38.1499 1002.78 -40.845C1016.82 -43.5389 1027.18 -43.8705 1036.28 -41.292C1052.35 -36.7332 1066.15 -26.3309 1074.95 -12.1261C1079.93 -4.09178 1082.46 5.96239 1083.73 20.202C1085 34.448 1085 52.7609 1085 77.2668V1030.73C1085 1055.24 1085 1073.55 1083.73 1087.8C1082.46 1102.04 1079.93 1112.09 1074.95 1120.13C1066.15 1134.33 1052.35 1144.73 1036.28 1149.29C1027.18 1151.87 1016.82 1151.54 1002.78 1148.84C988.735 1146.15 971.128 1141.12 947.566 1134.38L79.1661 886.094C50.8006 877.984 36.8982 873.991 26.595 865.892C17.4679 858.718 10.3615 849.295 5.97253 838.547C1.01806 826.414 1 811.95 1 782.448V325.552Z" stroke="#080708" stroke-width="2"/>
</svg>
