<svg width="1037" height="1080" viewBox="0 0 1037 1080" fill="none" xmlns="http://www.w3.org/2000/svg">
<path d="M1 415.458C1 390.51 1.01349 378.278 4.7806 367.545C8.12329 358.021 13.5747 349.375 20.7277 342.253C28.7888 334.227 39.8196 328.942 62.3313 318.188L928.732 -95.7157C954.594 -108.071 973.928 -117.306 989.417 -123.039C1004.91 -128.773 1016.41 -130.947 1026.63 -129.305C1044.66 -126.409 1060.72 -116.278 1071.11 -101.257C1077 -92.744 1079.99 -81.4283 1081.5 -64.9813C1083 -48.5347 1083 -27.1071 1083 1.55469V1106.45C1083 1135.11 1083 1156.53 1081.5 1172.98C1079.99 1189.43 1077 1200.74 1071.11 1209.26C1060.72 1224.28 1044.66 1234.41 1026.63 1237.31C1016.41 1238.95 1004.91 1236.77 989.417 1231.04C973.928 1225.31 954.593 1216.07 928.731 1203.72L62.3312 789.812C39.8196 779.057 28.7888 773.773 20.7277 765.747C13.5747 758.625 8.12329 749.979 4.78061 740.455C1.01349 729.722 1 717.49 1 692.542V415.458Z" stroke="#080708" stroke-width="2"/>
</svg>
