<svg width="24" height="32" viewBox="0 0 24 32" fill="none" xmlns="http://www.w3.org/2000/svg">
<path fill-rule="evenodd" clip-rule="evenodd" d="M9.00972 0.500001H14.99C16.4578 0.499978 17.6608 0.499959 18.6169 0.586244C19.5949 0.674508 20.5125 0.865409 21.311 1.38189C22.504 2.15358 23.3521 3.35704 23.6776 4.74012C23.8954 5.66579 23.7666 6.59414 23.5208 7.54487C23.2805 8.47428 22.8759 9.60713 22.3822 10.9894L21.1813 14.352C20.8759 15.2071 20.8012 15.4378 20.7708 15.6581C20.7395 15.8849 20.7395 16.1151 20.7708 16.342C20.8012 16.5622 20.8759 16.7929 21.1813 17.6481L22.3822 21.0106C22.8759 22.3929 23.2805 23.5257 23.5208 24.4551C23.7666 25.4059 23.8954 26.3342 23.6776 27.2599C23.3521 28.643 22.504 29.8464 21.311 30.6181C20.5125 31.1346 19.5949 31.3255 18.6169 31.4138C17.6608 31.5 16.4578 31.5 14.99 31.5H9.00975C7.54192 31.5 6.33896 31.5 5.38285 31.4138C4.40482 31.3255 3.48722 31.1346 2.68875 30.6181C1.49571 29.8464 0.647616 28.643 0.32214 27.2599C0.104304 26.3342 0.233146 25.4059 0.47897 24.4551C0.719285 23.5257 1.1239 22.3928 1.6176 21.0105L2.81849 17.6481C3.1239 16.7929 3.19851 16.5622 3.22893 16.342C3.26026 16.1151 3.26026 15.8849 3.22893 15.6581C3.19851 15.4378 3.1239 15.2071 2.81849 14.352L1.6176 10.9895C1.1239 9.60716 0.719285 8.4743 0.478971 7.54487C0.233146 6.59414 0.104304 5.66579 0.32214 4.74012C0.647616 3.35704 1.49571 2.15358 2.68875 1.38189C3.48722 0.865409 4.40482 0.674508 5.38285 0.586244C6.33895 0.499959 7.5419 0.499978 9.00972 0.500001ZM5.65249 3.5741C4.85378 3.64618 4.51118 3.77597 4.3181 3.90086C3.77581 4.25163 3.39031 4.79866 3.24237 5.42733C3.18969 5.65117 3.1827 6.01746 3.38345 6.79388C3.58581 7.5765 3.94321 8.58152 4.46697 10.0481L5.64372 13.3429C5.65789 13.3826 5.67191 13.4218 5.68577 13.4606C5.93013 14.1437 6.12258 14.6817 6.20074 15.2477C6.26966 15.7469 6.26966 16.2531 6.20074 16.7523C6.12258 17.3183 5.93014 17.8563 5.68577 18.5394C5.67192 18.5782 5.6579 18.6174 5.64372 18.6571L4.46697 21.952C3.94321 23.4185 3.58581 24.4235 3.38345 25.2061C3.1827 25.9825 3.18969 26.3488 3.24237 26.5727C3.39031 27.2013 3.77581 27.7484 4.3181 28.0991C4.51118 28.224 4.85378 28.3538 5.65249 28.4259C6.45758 28.4986 7.52425 28.5 9.08151 28.5H14.9182C16.4755 28.5 17.5422 28.4986 18.3473 28.4259C19.146 28.3538 19.4886 28.224 19.6817 28.0991C20.2239 27.7484 20.6094 27.2013 20.7574 26.5727C20.8101 26.3488 20.8171 25.9825 20.6163 25.2061C20.4139 24.4235 20.0565 23.4185 19.5328 21.952L18.356 18.6571C18.3419 18.6174 18.3278 18.5781 18.314 18.5394C18.0696 17.8563 17.8772 17.3183 17.799 16.7523C17.7301 16.2531 17.7301 15.7469 17.799 15.2477C17.8772 14.6817 18.0696 14.1437 18.314 13.4606C18.3278 13.4218 18.3419 13.3826 18.356 13.3429L19.5328 10.048C20.0565 8.58152 20.4139 7.5765 20.6163 6.79388C20.8171 6.01746 20.8101 5.65117 20.7574 5.42733C20.6094 4.79866 20.2239 4.25163 19.6817 3.90086C19.4886 3.77597 19.146 3.64618 18.3473 3.5741C17.5422 3.50145 16.4755 3.5 14.9182 3.5H9.08151C7.52425 3.5 6.45758 3.50145 5.65249 3.5741Z" fill="#080708"/>
</svg>
