<svg width="1450" height="860" viewBox="0 0 1450 860" fill="none" xmlns="http://www.w3.org/2000/svg">
<path d="M0.5 159.515C0.5 142.152 0.500401 129.16 1.35286 118.874C2.20485 108.594 3.90532 101.064 7.27957 94.6144C13.2401 83.2217 22.7307 74.0663 34.3303 68.5192C40.8968 65.379 48.4834 63.9503 58.7873 63.4684C69.0968 62.9862 82.0806 63.4529 99.433 64.0771L1297.43 107.171C1313.69 107.756 1325.86 108.194 1335.51 109.32C1345.15 110.446 1352.23 112.256 1358.34 115.562C1369.13 121.407 1377.85 130.447 1383.3 141.442C1386.39 147.66 1387.94 154.805 1388.72 164.481C1389.5 174.163 1389.5 186.337 1389.5 202.609V657.391C1389.5 673.663 1389.5 685.837 1388.72 695.519C1387.94 705.195 1386.39 712.34 1383.3 718.558C1377.85 729.553 1369.13 738.593 1358.34 744.438C1352.23 747.744 1345.15 749.554 1335.51 750.68C1325.86 751.806 1313.69 752.245 1297.43 752.829L99.4332 795.923C82.0807 796.547 69.0969 797.014 58.7873 796.532C48.4834 796.05 40.8968 794.621 34.3303 791.481C22.7307 785.934 13.2401 776.778 7.27957 765.386C3.90532 758.936 2.20485 751.406 1.35286 741.126C0.500401 730.84 0.5 717.848 0.5 700.485V159.515Z" stroke="#080708"/>
<path d="M31 163.074C31 139.856 31.0008 122.504 32.1401 108.774C33.2784 95.0545 35.548 85.0431 40.0335 76.4879C47.9753 61.3405 60.6184 49.1795 76.0629 41.8323C84.786 37.6827 94.8779 35.8038 108.631 35.1995C122.396 34.5946 139.735 35.2681 162.935 36.1703L1296.94 80.2691C1318.56 81.1101 1334.72 81.7394 1347.54 83.272C1360.33 84.8032 1369.71 87.2281 1377.77 91.6157C1392.05 99.3908 1403.59 111.385 1410.8 125.961C1414.87 134.187 1416.93 143.645 1417.97 156.494C1419 169.355 1419 185.529 1419 207.173V652.827C1419 674.471 1419 690.645 1417.97 703.506C1416.93 716.355 1414.87 725.813 1410.8 734.039C1403.59 748.615 1392.05 760.609 1377.77 768.384C1369.71 772.772 1360.33 775.197 1347.54 776.728C1334.72 778.261 1318.56 778.89 1296.94 779.731L162.935 823.83C139.735 824.732 122.395 825.405 108.631 824.801C94.8779 824.196 84.786 822.317 76.0629 818.168C60.6184 810.82 47.9753 798.659 40.0335 783.512C35.548 774.957 33.2784 764.945 32.1401 751.226C31.0008 737.496 31 720.143 31 696.926V163.074Z" stroke="#080708" stroke-width="2"/>
<path d="M61.5 166.828C61.5 137.726 61.5012 115.991 62.9293 98.7983C64.3559 81.6229 67.1987 69.1201 72.8032 58.4532C82.7401 39.5408 98.5565 24.3718 117.867 15.2335C128.759 10.0794 141.37 7.76135 158.59 7.05331C175.827 6.34458 197.543 7.25121 226.62 8.46677L1296.62 53.1975C1323.58 54.3247 1343.72 55.1675 1359.68 57.1219C1375.61 59.0742 1387.26 62.1232 1397.27 67.596C1415.02 77.3078 1429.36 92.2536 1438.32 110.4C1443.37 120.627 1445.93 132.389 1447.21 148.395C1448.5 164.419 1448.5 184.572 1448.5 211.559V648.441C1448.5 675.428 1448.5 695.581 1447.21 711.605C1445.93 727.611 1443.37 739.373 1438.32 749.6C1429.36 767.746 1415.02 782.692 1397.27 792.404C1387.26 797.877 1375.61 800.926 1359.68 802.878C1343.72 804.832 1323.58 805.675 1296.62 806.802L226.62 851.533C197.543 852.749 175.827 853.655 158.59 852.947C141.37 852.239 128.759 849.921 117.867 844.766C98.5565 835.628 82.7401 820.459 72.8032 801.547C67.1987 790.88 64.3559 778.377 62.9293 761.202C61.5012 744.009 61.5 722.274 61.5 693.172V166.828Z" stroke="#080708" stroke-width="3"/>
</svg>
