<svg width="1920" height="652" viewBox="0 0 1920 652" fill="none" xmlns="http://www.w3.org/2000/svg">
<path d="M1088.74 26.5993L1088.75 26.6045L1088.77 26.6095C1129.39 42.7498 1164.01 65.1551 1192.66 93.8172L1192.66 93.8227L1192.67 93.8281C1221.91 122.493 1244.9 157.141 1261.63 197.792L1261.63 197.804L1261.64 197.816C1278.95 237.845 1287.62 280.568 1287.62 326C1287.62 362.471 1282.24 397.436 1271.49 430.902C1260.74 463.767 1245.22 493.636 1224.92 520.516L1224.92 520.52C1205.21 546.817 1181.91 569.827 1155.03 589.553L1155.02 589.558L1155.02 589.563C1128.76 609.266 1098.92 624.5 1065.47 635.259C1032.02 645.418 997.076 650.5 960.622 650.5C900.267 650.5 845.022 636.451 794.859 608.365C744.697 580.281 705.295 541.452 676.632 491.86C648.567 441.667 634.529 386.39 634.529 326C634.529 265.606 648.569 210.629 676.634 161.037C705.299 110.844 744.7 71.7173 794.859 43.6348C845.022 15.5491 900.267 1.5 960.622 1.5C1006.03 1.5 1048.73 9.86923 1088.74 26.5993ZM427.691 627.239C425.527 636.097 424.522 640.087 422.334 643.033C420.364 645.684 417.72 647.76 414.677 649.044C411.296 650.471 407.182 650.5 398.063 650.5H278.512C273.786 650.5 270.324 650.499 267.56 650.293C264.815 650.088 262.865 649.686 261.159 648.936C258.022 647.557 255.329 645.334 253.382 642.514C252.322 640.981 251.559 639.142 250.838 636.486C250.113 633.811 249.457 630.411 248.563 625.771L160.101 166.676C159.421 163.149 156.334 160.599 152.741 160.599C149.149 160.599 146.062 163.149 145.382 166.676L56.9197 625.771C56.0256 630.411 55.3695 633.811 54.6441 636.486C53.9236 639.142 53.1602 640.981 52.1008 642.514C50.1531 645.334 47.4606 647.557 44.3234 648.936C42.617 649.686 40.6672 650.088 37.9223 650.293C35.1585 650.499 31.6961 650.5 26.9706 650.5H-92.5803C-101.699 650.5 -105.814 650.471 -109.195 649.044C-112.238 647.76 -114.882 645.684 -116.851 643.033C-119.04 640.087 -120.044 636.097 -122.209 627.239L-265.869 39.2388C-267.525 32.4595 -268.743 27.4706 -269.347 23.5108C-269.95 19.5624 -269.912 16.8101 -269.18 14.471C-267.83 10.1623 -264.952 6.4957 -261.086 4.16221C-258.988 2.89547 -256.323 2.20549 -252.345 1.85394C-248.355 1.50138 -243.219 1.5 -236.241 1.5H-170.355C-165.756 1.5 -162.388 1.50093 -159.695 1.69865C-157.021 1.89499 -155.115 2.2802 -153.439 2.99983C-150.356 4.32277 -147.692 6.45874 -145.73 9.17924C-144.663 10.6591 -143.872 12.4351 -143.099 15.0025C-142.32 17.588 -141.586 20.8757 -140.586 25.3642L-69.4025 344.705L-69.3865 344.776C-64.8731 365.024 -61.4692 380.295 -58.2709 391.051C-56.6697 396.436 -55.1008 400.757 -53.4398 404.036C-51.7908 407.291 -49.9682 409.686 -47.7697 411.006C-40.9595 415.094 -32.4503 415.094 -25.6401 411.006C-23.4417 409.686 -21.6191 407.291 -19.97 404.036C-18.309 400.757 -16.7401 396.436 -15.1389 391.051C-11.9406 380.295 -8.53674 365.024 -4.02332 344.776L-4.00739 344.705L67.1758 25.3642C68.1763 20.8757 68.9102 17.5881 69.6891 15.0025C70.4625 12.4351 71.2531 10.6591 72.3202 9.17925C74.282 6.45874 76.9466 4.32277 80.0287 2.99983C81.7053 2.2802 83.6108 1.89499 86.2849 1.69865C88.978 1.50093 92.3466 1.5 96.9452 1.5H208.537C213.136 1.5 216.504 1.50093 219.197 1.69865C221.872 1.89499 223.777 2.2802 225.454 2.99983C228.536 4.32277 231.2 6.45874 233.162 9.17924C234.229 10.6591 235.02 12.4351 235.793 15.0025C236.572 17.588 237.306 20.8757 238.307 25.3642L309.49 344.705L309.506 344.779C314.019 365.025 317.423 380.295 320.621 391.051C322.223 396.436 323.791 400.757 325.452 404.036C327.102 407.291 328.924 409.686 331.122 411.006C337.933 415.094 346.442 415.094 353.252 411.006C355.451 409.686 357.273 407.291 358.922 404.036C360.583 400.757 362.152 396.436 363.753 391.051C366.951 380.295 370.355 365.025 374.868 344.779L374.885 344.705L446.068 25.3642C447.069 20.8757 447.802 17.588 448.581 15.0025C449.355 12.4351 450.145 10.6591 451.212 9.17924C453.174 6.45874 455.839 4.32277 458.921 2.99983C460.598 2.2802 462.503 1.89499 465.177 1.69865C467.87 1.50093 471.239 1.5 475.837 1.5H541.723C548.702 1.5 553.837 1.50138 557.827 1.85394C561.806 2.20549 564.471 2.89547 566.569 4.16221C570.434 6.4957 573.313 10.1622 574.662 14.471C575.395 16.8101 575.433 19.5624 574.83 23.5108C574.225 27.4706 573.008 32.4596 571.351 39.2388L427.691 627.239ZM1102.99 179.059C1065.49 140.328 1017.99 120.975 960.622 120.975C903.842 120.975 856.351 140.334 818.256 179.059C780.154 217.79 761.126 266.81 761.126 326C761.126 385.19 780.154 434.21 818.256 472.941C856.351 511.666 903.842 531.025 960.622 531.025C1017.99 531.025 1065.49 511.672 1102.99 472.941C1141.09 434.21 1160.12 385.19 1160.12 326C1160.12 266.81 1141.09 217.79 1102.99 179.059ZM2042.21 627.239C2040.04 636.097 2039.04 640.087 2036.85 643.033C2034.88 645.684 2032.24 647.76 2029.19 649.044C2025.81 650.471 2021.7 650.5 2012.58 650.5H1893.03C1888.3 650.5 1884.84 650.499 1882.08 650.293C1879.33 650.088 1877.38 649.686 1875.68 648.936C1872.54 647.557 1869.85 645.334 1867.9 642.514C1866.84 640.981 1866.08 639.142 1865.36 636.486C1864.63 633.811 1863.97 630.411 1863.08 625.771L1774.62 166.676C1773.94 163.149 1770.85 160.599 1767.26 160.599C1763.67 160.599 1760.58 163.149 1759.9 166.676L1671.44 625.771C1670.54 630.411 1669.89 633.811 1669.16 636.486C1668.44 639.142 1667.68 640.981 1666.62 642.514C1664.67 645.334 1661.98 647.557 1658.84 648.936C1657.13 649.686 1655.18 650.088 1652.44 650.293C1649.68 650.499 1646.21 650.5 1641.49 650.5H1521.94C1512.82 650.5 1508.7 650.471 1505.32 649.044C1502.28 647.76 1499.64 645.684 1497.67 643.033C1495.48 640.087 1494.47 636.097 1492.31 627.239L1348.65 39.2388C1346.99 32.4595 1345.77 27.4706 1345.17 23.5108C1344.57 19.5624 1344.61 16.8101 1345.34 14.471C1346.69 10.1623 1349.57 6.49571 1353.43 4.16221C1355.53 2.89547 1358.19 2.20549 1362.17 1.85394C1366.16 1.50138 1371.3 1.5 1378.28 1.5H1444.16C1448.76 1.5 1452.13 1.50093 1454.82 1.69865C1457.5 1.89499 1459.4 2.2802 1461.08 2.99984C1464.16 4.32277 1466.83 6.45875 1468.79 9.17924C1469.85 10.6591 1470.65 12.4351 1471.42 15.0025C1472.2 17.588 1472.93 20.8757 1473.93 25.3642L1545.12 344.705L1545.13 344.779C1549.64 365.025 1553.05 380.295 1556.25 391.051C1557.85 396.436 1559.42 400.757 1561.08 404.036C1562.73 407.291 1564.55 409.686 1566.75 411.006C1573.56 415.094 1582.07 415.094 1588.88 411.006C1591.08 409.686 1592.9 407.291 1594.55 404.036C1596.21 400.757 1597.78 396.436 1599.38 391.051C1602.58 380.296 1605.98 365.029 1610.49 344.785L1610.51 344.705L1681.69 25.3642C1682.69 20.8758 1683.43 17.5881 1684.21 15.0025C1684.98 12.4351 1685.77 10.6591 1686.84 9.17923C1688.8 6.45875 1691.46 4.32277 1694.55 2.99983C1696.22 2.2802 1698.13 1.89499 1700.8 1.69865C1703.5 1.50093 1706.86 1.5 1711.46 1.5H1823.05C1827.65 1.5 1831.02 1.50093 1833.71 1.69865C1836.39 1.89499 1838.29 2.2802 1839.97 2.99983C1843.05 4.32277 1845.72 6.45875 1847.68 9.17923C1848.75 10.6591 1849.54 12.4351 1850.31 15.0025C1851.09 17.588 1851.82 20.8757 1852.82 25.3642L1924.01 344.705L1924.03 344.795C1928.54 365.034 1931.94 380.298 1935.14 391.051C1936.74 396.436 1938.31 400.757 1939.97 404.036C1941.62 407.291 1943.44 409.686 1945.64 411.006C1952.45 415.094 1960.96 415.094 1967.77 411.006C1969.97 409.686 1971.79 407.291 1973.44 404.036C1975.1 400.757 1976.67 396.436 1978.27 391.051C1981.47 380.298 1984.87 365.033 1989.38 344.794L1989.4 344.705L2060.59 25.3642C2061.59 20.8757 2062.32 17.588 2063.1 15.0025C2063.87 12.4351 2064.66 10.6591 2065.73 9.17926C2067.69 6.45875 2070.36 4.32277 2073.44 2.99983C2075.12 2.2802 2077.02 1.89499 2079.69 1.69865C2082.39 1.50093 2085.76 1.5 2090.35 1.5H2156.24C2163.22 1.5 2168.35 1.50138 2172.34 1.85394C2176.32 2.20549 2178.99 2.89547 2181.09 4.1622C2184.95 6.4957 2187.83 10.1622 2189.18 14.4711C2189.91 16.81 2189.95 19.5624 2189.35 23.5108C2188.74 27.4706 2187.53 32.4596 2185.87 39.2388L2042.21 627.239Z" fill="#FAFFFD" stroke="#080708" stroke-width="3"/>
</svg>
