<svg width="1390" height="736" viewBox="0 0 1390 736" fill="none" xmlns="http://www.w3.org/2000/svg">
<path d="M0.5 97.5153C0.5 80.1517 0.500401 67.1595 1.35286 56.874C2.20485 46.5941 3.90532 39.0638 7.27957 32.6144C13.2401 21.2217 22.7307 12.0663 34.3303 6.51918C40.8968 3.37895 48.4834 1.95028 58.7873 1.46838C69.0968 0.986222 82.0806 1.45286 99.433 2.07705L1297.43 45.1706C1313.69 45.7555 1325.86 46.1935 1335.51 47.3202C1345.15 48.4462 1352.23 50.2561 1358.34 53.5622C1369.13 59.4075 1377.85 68.4468 1383.3 79.4415C1386.39 85.6603 1387.94 92.8048 1388.72 102.481C1389.5 112.163 1389.5 124.337 1389.5 140.609V595.391C1389.5 611.663 1389.5 623.837 1388.72 633.519C1387.94 643.195 1386.39 650.34 1383.3 656.558C1377.85 667.553 1369.13 676.593 1358.34 682.438C1352.23 685.744 1345.15 687.554 1335.51 688.68C1325.86 689.806 1313.69 690.245 1297.43 690.829L99.4332 733.923C82.0807 734.547 69.0969 735.014 58.7873 734.532C48.4834 734.05 40.8968 732.621 34.3303 729.481C22.7307 723.934 13.2401 714.778 7.27957 703.386C3.90532 696.936 2.20485 689.406 1.35286 679.126C0.500401 668.84 0.5 655.848 0.5 638.485V97.5153Z" stroke="#080708"/>
</svg>
