<svg width="998" height="897" viewBox="0 0 998 897" fill="none" xmlns="http://www.w3.org/2000/svg">
<path d="M540.664 416.17C527.008 440.041 520.18 451.976 511.246 455.971C503.454 459.455 494.546 459.455 486.754 455.971C477.82 451.976 470.992 440.041 457.336 416.17L413.095 338.835C399.601 315.247 392.854 303.453 393.897 293.781C394.808 285.345 399.249 277.688 406.12 272.709C413.996 267 427.584 267 454.759 267L543.241 267C570.416 267 584.004 267 591.88 272.708C598.751 277.688 603.192 285.345 604.103 293.781C605.146 303.453 598.399 315.247 584.905 338.835L540.664 416.17Z" fill="#0EFBCA"/>
<path d="M607.707 532.402C589.571 562.876 576.021 585.642 564.075 602.086C552.126 618.535 541.919 628.459 530.549 633.449C510.442 642.274 487.558 642.274 467.451 633.449C456.081 628.459 445.874 618.535 433.925 602.086C421.98 585.642 408.429 562.876 390.294 532.402L274.42 337.693C255.552 305.989 241.456 282.299 232.378 263.281C223.297 244.254 219.354 230.127 220.561 217.517C222.696 195.227 234.248 174.909 252.311 161.676C262.529 154.19 276.686 150.353 297.681 148.427C318.667 146.502 346.233 146.5 383.126 146.5L614.874 146.5C651.767 146.5 679.333 146.501 700.319 148.427C721.314 150.353 735.471 154.189 745.689 161.676C763.752 174.909 775.304 195.227 777.439 217.517C778.646 230.127 774.703 244.254 765.622 263.281C756.544 282.299 742.448 305.989 723.58 337.693L607.707 532.402Z" stroke="#080708" stroke-width="3"/>
<path d="M581.203 495.103C567.557 518.659 557.357 536.266 548.348 548.978C539.336 561.693 531.609 569.373 522.966 573.215C507.709 579.998 490.292 579.998 475.034 573.215C466.391 569.373 458.664 561.693 449.652 548.978C440.644 536.266 430.443 518.659 416.797 495.103L320.354 328.62C306.648 304.96 296.405 287.275 289.833 273.08C283.259 258.88 280.434 248.321 281.415 238.893C283.147 222.249 291.865 207.125 305.398 197.283C313.064 191.708 323.617 188.86 339.2 187.43C354.777 186.001 375.214 186 402.557 186L595.443 186C622.785 186 643.223 186.001 658.8 187.43C674.383 188.86 684.936 191.708 692.602 197.283C706.135 207.125 714.853 222.249 716.585 238.893C717.566 248.321 714.741 258.88 708.167 273.08C701.596 287.275 691.352 304.96 677.646 328.62L581.203 495.103Z" stroke="#080708" stroke-width="2"/>
<path d="M554.487 478.264C545.351 494.681 538.515 506.963 532.462 515.825C526.407 524.69 521.18 530.059 515.294 532.724C504.937 537.414 493.063 537.414 482.706 532.724C476.82 530.059 471.593 524.69 465.538 515.825C459.485 506.963 452.649 494.681 443.513 478.265L355.372 319.878C346.66 304.224 340.144 292.514 335.988 283.117C331.832 273.717 330.072 266.705 330.801 260.437C332.084 249.404 337.953 239.421 346.971 232.934C352.093 229.25 359.076 227.378 369.31 226.439C379.543 225.5 392.944 225.5 410.858 225.5L587.141 225.5C605.056 225.5 618.457 225.5 628.69 226.439C638.924 227.378 645.907 229.25 651.029 232.934C660.047 239.421 665.916 249.404 667.199 260.437C667.928 266.705 666.168 273.717 662.012 283.117C657.856 292.514 651.34 304.224 642.628 319.878L554.487 478.264Z" stroke="#080708"/>
<rect width="81" height="65" transform="translate(458 154)" fill="#FAFFFD"/>
<path d="M491.292 200H486.144V191.72H475.884V200H470.736V174.8H491.292V200ZM475.884 179.696V186.788H486.144V179.696H475.884ZM515.616 191.648H501.864V200H496.716V174.8H515.616V191.648ZM501.864 179.696V186.716H510.468V179.696H501.864ZM525.982 200H520.834V174.8H525.982V200Z" fill="#080708"/>
<rect width="104" height="65" transform="translate(372.293 362) rotate(60)" fill="#FAFFFD"/>
<path d="M367.034 393.627C368.594 396.329 369.166 399.144 368.75 402.072C368.335 405 367.011 407.483 364.778 409.52L362.078 404.843C363.132 403.597 363.72 402.191 363.841 400.625C363.995 399.067 363.646 397.55 362.794 396.075C361.654 394.1 360.041 392.842 357.954 392.301C355.88 391.78 353.825 392.108 351.788 393.284C350.437 394.064 349.389 395.057 348.644 396.263C347.932 397.477 347.575 398.778 347.572 400.166C347.581 401.574 347.958 402.922 348.702 404.211C349.266 405.188 349.965 405.99 350.798 406.617C351.643 407.265 352.562 407.705 353.554 407.935C354.567 408.154 355.59 408.173 356.622 407.993L359.322 412.67C356.463 413.573 353.65 413.478 350.886 412.386C348.142 411.282 345.991 409.379 344.431 406.677C343.219 404.577 342.597 402.373 342.566 400.063C342.556 397.741 343.125 395.583 344.274 393.59C345.435 391.617 347.076 390.018 349.196 388.794C351.316 387.57 353.52 386.949 355.81 386.93C358.111 386.931 360.248 387.513 362.221 388.674C364.205 389.856 365.81 391.507 367.034 393.627ZM370.598 432.632L369.086 430.013L363.121 438.113L360.349 433.312L366.296 425.181L363.758 420.785L355.777 425.393L353.203 420.935L375.027 408.335L384.441 424.64L370.598 432.632ZM373.361 415.241L367.562 418.589L372.026 426.321L377.825 422.973L373.361 415.241ZM378.059 463.987L375.485 459.528L390.824 450.672L378.226 449.3L377.992 448.894L383.12 437.329L367.781 446.185L365.189 441.695L387.013 429.095L389.983 434.239L385.257 444.991L396.913 446.243L399.883 451.387L378.059 463.987Z" fill="#080708"/>
<rect width="90" height="65" transform="translate(577 445.942) rotate(-60)" fill="#FAFFFD"/>
<path d="M614.081 433.108L608.195 443.302L612.591 445.84L618.063 436.363L622.303 438.811L616.831 448.288L621.539 451.006L627.425 440.812L631.665 443.26L623.205 457.913L601.381 445.313L609.841 430.66L614.081 433.108ZM635.36 418.427L633.848 421.046L643.846 422.162L641.074 426.963L631.058 425.878L628.52 430.274L636.502 434.882L633.928 439.341L612.104 426.741L621.518 410.435L635.36 418.427ZM618.918 424.73L624.717 428.078L629.181 420.346L623.382 416.998L618.918 424.73ZM648.221 397.88L641.345 409.79L648.578 413.966L646.004 418.424L624.18 405.824L633.63 389.456L648.221 397.88ZM630.994 403.814L637.074 407.324L641.376 399.872L635.296 396.362L630.994 403.814Z" fill="#080708"/>
<g filter="url(#filter0_d_1245:6313)">
<path fill-rule="evenodd" clip-rule="evenodd" d="M519.331 784.912C510.365 800.485 487.894 800.485 478.928 784.912L434.679 708.058C424.535 690.438 437.253 668.44 457.585 668.44C472.182 668.44 484.015 656.607 484.015 642.009L484.015 499.218C484.015 490.871 490.782 484.104 499.129 484.104C507.476 484.104 514.243 490.871 514.243 499.218L514.243 642.009C514.243 656.607 526.076 668.44 540.674 668.44C561.006 668.44 573.724 690.438 563.579 708.058L519.331 784.912ZM416.085 292.169C420.262 284.905 429.543 282.413 436.796 286.608L471.525 306.69C488.601 316.565 509.652 316.562 526.725 306.683L561.409 286.613C568.661 282.417 577.943 284.906 582.122 292.169C586.286 299.406 583.807 308.649 576.58 312.831L541.855 332.924C524.766 342.813 514.243 361.059 514.243 380.803L514.243 421.005C514.243 429.352 507.476 436.119 499.129 436.119C490.782 436.119 484.015 429.352 484.015 421.005L484.015 380.811C484.015 361.065 473.488 342.817 456.395 332.932L421.633 312.83C414.404 308.65 411.922 299.408 416.085 292.169ZM235.662 139.748C228.376 152.418 232.719 168.595 245.372 175.912L369.061 247.438C376.29 251.618 378.771 260.861 374.609 268.1C370.432 275.363 361.151 277.855 353.898 273.66L230.281 202.176C217.641 194.867 201.468 199.209 194.189 211.867C184.047 229.503 158.605 229.517 148.445 211.89L104.09 134.943C95.1549 119.442 106.337 100.079 124.228 100.069L212.668 100.024C233.06 100.013 245.828 122.07 235.662 139.748ZM752.649 175.955C765.299 168.635 769.638 152.457 762.349 139.789C752.178 122.114 764.94 100.053 785.332 100.058L873.772 100.08C891.663 100.085 902.85 119.445 893.919 134.948L849.585 211.907C839.43 229.537 813.988 229.531 803.841 211.896C796.558 199.241 780.385 194.903 767.747 202.215L644.285 273.655C637.033 277.851 627.751 275.362 623.572 268.1C619.408 260.862 621.887 251.619 629.114 247.437L752.649 175.955Z" fill="#FAFFFD"/>
<path d="M518.031 784.164C509.642 798.734 488.617 798.734 480.228 784.164L435.979 707.31C426.41 690.689 438.407 669.94 457.585 669.94C473.01 669.94 485.515 657.435 485.515 642.009L485.515 499.218C485.515 491.699 491.611 485.604 499.129 485.604C506.648 485.604 512.743 491.699 512.743 499.218L512.743 642.009C512.743 657.435 525.248 669.94 540.674 669.94C559.852 669.94 571.848 690.689 562.279 707.31L518.031 784.164ZM417.385 292.916C421.149 286.372 429.51 284.127 436.045 287.906L470.774 307.989C488.314 318.132 509.938 318.129 527.476 307.981L562.16 287.912C568.694 284.131 577.056 286.374 580.821 292.917C584.574 299.438 582.34 307.765 575.828 311.533L541.104 331.626C523.551 341.782 512.743 360.524 512.743 380.803L512.743 421.005C512.743 428.524 506.648 434.619 499.129 434.619C491.611 434.619 485.515 428.524 485.515 421.005L485.515 380.811C485.515 360.529 474.703 341.786 457.145 331.633L422.384 311.531C415.871 307.765 413.635 299.438 417.385 292.916ZM234.361 139C226.663 152.387 231.252 169.48 244.621 177.21L368.31 248.737C374.823 252.503 377.059 260.83 373.308 267.352C369.545 273.896 361.183 276.141 354.648 272.362L231.032 200.878C217.673 193.153 200.582 197.742 192.889 211.119C183.323 227.753 159.327 227.766 149.744 211.141L105.39 134.194C97.0307 119.692 107.491 101.578 124.229 101.569L212.668 101.524C231.907 101.514 243.952 122.323 234.361 139ZM753.4 177.254C766.766 169.519 771.351 152.426 763.649 139.041C754.054 122.366 766.093 101.554 785.332 101.558L873.771 101.58C890.509 101.584 900.975 119.696 892.62 134.199L848.286 211.159C838.707 227.786 814.711 227.78 805.141 211.148C797.445 197.773 780.352 193.189 766.995 200.917L643.534 272.357C637 276.137 628.637 273.894 624.872 267.351C621.12 260.831 623.354 252.503 629.865 248.735L753.4 177.254Z" stroke="#080708" stroke-width="3"/>
</g>
<defs>
<filter id="filter0_d_1245:6313" x="0.947266" y="0.0234375" width="996.111" height="896.568" filterUnits="userSpaceOnUse" color-interpolation-filters="sRGB">
<feFlood flood-opacity="0" result="BackgroundImageFix"/>
<feColorMatrix in="SourceAlpha" type="matrix" values="0 0 0 0 0 0 0 0 0 0 0 0 0 0 0 0 0 0 127 0" result="hardAlpha"/>
<feOffset/>
<feGaussianBlur stdDeviation="50"/>
<feComposite in2="hardAlpha" operator="out"/>
<feColorMatrix type="matrix" values="0 0 0 0 0.054902 0 0 0 0 0.984314 0 0 0 0 0.792157 0 0 0 0.5 0"/>
<feBlend mode="normal" in2="BackgroundImageFix" result="effect1_dropShadow_1245:6313"/>
<feBlend mode="normal" in="SourceGraphic" in2="effect1_dropShadow_1245:6313" result="shape"/>
</filter>
</defs>
</svg>
