<svg width="150" height="150" viewBox="0 0 150 150" fill="none" xmlns="http://www.w3.org/2000/svg">
<path d="M21.3137 86.3137C17.3535 82.3535 15.3735 80.3735 14.6316 78.0902C13.979 76.0817 13.979 73.9183 14.6316 71.9098C15.3735 69.6265 17.3535 67.6465 21.3137 63.6863L63.6863 21.3137C67.6465 17.3535 69.6265 15.3735 71.9098 14.6316C73.9183 13.979 76.0817 13.979 78.0902 14.6316C80.3735 15.3735 82.3535 17.3535 86.3137 21.3137L128.686 63.6863C132.646 67.6465 134.627 69.6265 135.368 71.9098C136.021 73.9183 136.021 76.0817 135.368 78.0902C134.627 80.3735 132.646 82.3535 128.686 86.3137L86.3137 128.686C82.3535 132.646 80.3735 134.627 78.0902 135.368C76.0817 136.021 73.9183 136.021 71.9098 135.368C69.6265 134.627 67.6465 132.646 63.6863 128.686L21.3137 86.3137Z" stroke="#080708" stroke-width="3"/>
<path d="M21.3137 86.3137C17.3535 82.3535 15.3735 80.3735 14.6316 78.0902C13.979 76.0817 13.979 73.9183 14.6316 71.9098C15.3735 69.6265 17.3535 67.6465 21.3137 63.6863L48.6863 36.3137C52.6465 32.3535 54.6265 30.3735 56.9098 29.6316C58.9183 28.979 61.0817 28.979 63.0902 29.6316C65.3735 30.3735 67.3535 32.3535 71.3137 36.3137L98.6863 63.6863C102.646 67.6465 104.627 69.6265 105.368 71.9098C106.021 73.9183 106.021 76.0817 105.368 78.0902C104.627 80.3735 102.646 82.3535 98.6863 86.3137L71.3137 113.686C67.3535 117.646 65.3735 119.627 63.0902 120.368C61.0817 121.021 58.9183 121.021 56.9098 120.368C54.6265 119.627 52.6465 117.646 48.6863 113.686L21.3137 86.3137Z" stroke="#080708" stroke-width="3"/>
<path d="M21.3137 86.3137C17.3535 82.3535 15.3735 80.3735 14.6316 78.0902C13.979 76.0817 13.979 73.9183 14.6316 71.9098C15.3735 69.6265 17.3535 67.6465 21.3137 63.6863L33.6863 51.3137C37.6465 47.3535 39.6265 45.3735 41.9098 44.6316C43.9183 43.979 46.0817 43.979 48.0902 44.6316C50.3735 45.3735 52.3535 47.3535 56.3137 51.3137L68.6863 63.6863C72.6465 67.6465 74.6265 69.6265 75.3684 71.9098C76.021 73.9183 76.021 76.0817 75.3684 78.0902C74.6265 80.3735 72.6465 82.3535 68.6863 86.3137L56.3137 98.6863C52.3535 102.646 50.3735 104.627 48.0902 105.368C46.0817 106.021 43.9183 106.021 41.9098 105.368C39.6265 104.627 37.6465 102.646 33.6863 98.6863L21.3137 86.3137Z" stroke="#080708" stroke-width="3"/>
<path d="M23.5355 78.5355C21.5829 76.5829 21.5829 73.4171 23.5355 71.4645L31.4645 63.5355C33.4171 61.5829 36.5829 61.5829 38.5355 63.5355L46.4645 71.4645C48.4171 73.4171 48.4171 76.5829 46.4645 78.5355L38.5355 86.4645C36.5829 88.4171 33.4171 88.4171 31.4645 86.4645L23.5355 78.5355Z" fill="#9CF50B"/>
</svg>
