<svg width="16" height="16" viewBox="0 0 16 16" fill="none" xmlns="http://www.w3.org/2000/svg">
<path fill-rule="evenodd" clip-rule="evenodd" d="M6.07222 4.07261e-07H9.42778C10.061 -1.1218e-05 10.5847 -2.07741e-05 11.0066 0.0375076C11.4426 0.0762906 11.8515 0.160206 12.2229 0.380792C12.7853 0.714848 13.2135 1.2417 13.4313 1.86772C13.5752 2.2811 13.5806 2.707 13.5376 3.15173C13.496 3.58209 13.3995 4.10769 13.2828 4.74325L12.9716 6.4379C12.8888 6.88904 12.8191 7.26859 12.7385 7.578C12.6538 7.90294 12.5447 8.20293 12.3583 8.48065C12.0692 8.91126 11.6683 9.25104 11.2005 9.46184C10.8988 9.5978 10.59 9.65197 10.2616 9.67706C9.94898 9.70095 9.57083 9.70094 9.12135 9.70093H6.37865C5.92917 9.70094 5.55102 9.70095 5.23836 9.67706C4.91 9.65197 4.60115 9.5978 4.29948 9.46184C3.83174 9.25104 3.43081 8.91126 3.14171 8.48065C2.95525 8.20293 2.84619 7.90294 2.76153 7.578C2.68092 7.26859 2.61124 6.88905 2.52841 6.43791L2.21724 4.74322C2.10053 4.10767 2.00401 3.58208 1.96239 3.15173C1.91937 2.707 1.92477 2.2811 2.06865 1.86772C2.28654 1.2417 2.71474 0.714848 3.27713 0.380792C3.6485 0.160206 4.05744 0.0762906 4.49343 0.0375076C4.91532 -2.07741e-05 5.43899 -1.1218e-05 6.07222 4.07261e-07ZM4.6236 1.56345C4.28127 1.59391 4.12622 1.64846 4.03134 1.70481C3.77571 1.85666 3.58108 2.09614 3.48203 2.38069C3.44528 2.48629 3.42134 2.65197 3.45512 3.00117C3.48956 3.35718 3.57329 3.81691 3.69773 4.4946L3.99773 6.12844C4.08686 6.61389 4.14664 6.93673 4.21111 7.18419C4.27315 7.42233 4.32687 7.53706 4.37888 7.61453C4.51029 7.81026 4.69253 7.96471 4.90514 8.06053C4.98929 8.09845 5.10962 8.13122 5.35027 8.1496C5.60033 8.16871 5.92208 8.1692 6.40576 8.1692H9.09424C9.57792 8.1692 9.89967 8.16871 10.1497 8.1496C10.3904 8.13122 10.5107 8.09845 10.5949 8.06053C10.8075 7.96471 10.9897 7.81026 11.1211 7.61453C11.1731 7.53706 11.2268 7.42233 11.2889 7.18419C11.3534 6.93673 11.4131 6.61389 11.5023 6.12844L11.8023 4.4946C11.9267 3.81691 12.0104 3.35718 12.0449 3.00117C12.0787 2.65197 12.0547 2.48629 12.018 2.38069C11.9189 2.09614 11.7243 1.85666 11.4687 1.70481C11.3738 1.64846 11.2187 1.59391 10.8764 1.56345C10.5274 1.53241 10.0695 1.53173 9.39424 1.53173H6.10576C5.43054 1.53173 4.97262 1.53241 4.6236 1.56345Z" fill="black"/>
<path fill-rule="evenodd" clip-rule="evenodd" d="M0 13.0197C0 11.7507 1.00736 10.7221 2.25 10.7221H13.25C14.4926 10.7221 15.5 11.7507 15.5 13.0197C15.5 14.2886 14.4926 15.3173 13.25 15.3173H2.25C1.00736 15.3173 0 14.2886 0 13.0197ZM2.25 12.2538C1.83579 12.2538 1.5 12.5967 1.5 13.0197C1.5 13.4426 1.83579 13.7855 2.25 13.7855H13.25C13.6642 13.7855 14 13.4426 14 13.0197C14 12.5967 13.6642 12.2538 13.25 12.2538H2.25Z" fill="black"/>
</svg>
