<svg width="1390" height="736" viewBox="0 0 1390 736" fill="none" xmlns="http://www.w3.org/2000/svg">
<path d="M1.5 97.5153C1.5 80.1349 1.5012 67.1912 2.34944 56.9566C3.19628 46.7389 4.87942 39.3591 8.16562 33.0779C14.026 21.8767 23.3571 12.8752 34.7617 7.42133C41.1569 4.36304 48.5925 2.94627 58.834 2.46729C69.0926 1.98752 82.0279 2.45161 99.3971 3.0764L1297.4 46.1699C1313.67 46.7554 1325.79 47.1925 1335.39 48.3134C1344.97 49.4323 1351.92 51.2208 1357.86 54.4415C1368.47 60.1885 1377.05 69.0759 1382.41 79.8859C1385.41 85.944 1386.95 92.9464 1387.72 102.561C1388.5 112.194 1388.5 124.321 1388.5 140.609V595.391C1388.5 611.679 1388.5 623.806 1387.72 633.439C1386.95 643.054 1385.41 650.056 1382.41 656.114C1377.05 666.924 1368.47 675.811 1357.86 681.558C1351.92 684.779 1344.97 686.568 1335.39 687.687C1325.79 688.807 1313.67 689.245 1297.4 689.83L99.3972 732.924C82.028 733.548 69.0926 734.013 58.834 733.533C48.5925 733.054 41.1569 731.637 34.7617 728.579C23.3571 723.125 14.026 714.123 8.16562 702.922C4.87942 696.641 3.19628 689.261 2.34944 679.043C1.5012 668.809 1.5 655.865 1.5 638.485V97.5153Z" fill="#FAFFFD" stroke="#080708" stroke-width="3"/>
</svg>
