<svg width="81" height="72" viewBox="0 0 81 72" fill="none" xmlns="http://www.w3.org/2000/svg">
<rect x="1.5" y="1.5" width="78" height="69" rx="23.5" fill="#9CF50B" stroke="#9CF50B" stroke-width="3"/>
<path d="M51 28.5718C54.938 30.8454 56.9069 31.9822 57.5677 33.4663C58.1441 34.7609 58.1441 36.2391 57.5677 37.5337C56.9069 39.0178 54.938 40.1546 51 42.4282L39.75 48.9234C35.812 51.197 33.8431 52.3338 32.2274 52.164C30.8181 52.0158 29.5378 51.2767 28.7049 50.1303C27.75 48.8159 27.75 46.5424 27.75 41.9952L27.75 29.0048C27.75 24.4576 27.75 22.1841 28.7049 20.8697C29.5378 19.7233 30.8181 18.9842 32.2274 18.836C33.8431 18.6662 35.812 19.803 39.75 22.0766L51 28.5718Z" fill="#080708"/>
</svg>
