<svg width="350" height="350" viewBox="0 0 350 350" fill="none" xmlns="http://www.w3.org/2000/svg">
<path d="M155.463 58.7867C163.916 43.3545 186.084 43.3545 194.537 58.7867C200.962 70.515 215.411 75.2096 227.502 69.4976C243.413 61.9818 261.346 75.0113 259.115 92.4652C257.419 105.73 266.348 118.021 279.488 120.507C296.777 123.778 303.627 144.86 291.563 157.669C282.394 167.404 282.394 182.596 291.563 192.331C303.627 205.14 296.777 226.222 279.488 229.493C266.348 231.979 257.419 244.27 259.115 257.535C261.346 274.989 243.413 288.018 227.502 280.502C215.411 274.79 200.962 279.485 194.537 291.213C186.084 306.645 163.916 306.645 155.463 291.213C149.038 279.485 134.589 274.79 122.498 280.502C106.587 288.018 88.654 274.989 90.8854 257.535C92.5813 244.27 83.6517 231.979 70.5119 229.493C53.2227 226.222 46.3727 205.14 58.4372 192.331C67.6061 182.596 67.6061 167.404 58.4372 157.669C46.3727 144.86 53.2227 123.778 70.5119 120.507C83.6517 118.021 92.5813 105.73 90.8854 92.4652C88.654 75.0113 106.587 61.9818 122.498 69.4976C134.589 75.2096 149.038 70.515 155.463 58.7867Z" stroke="#080708" stroke-width="3"/>
<path d="M159.499 81.419C161.086 78.5215 162.253 76.3911 163.225 74.7864C164.2 73.1743 164.919 72.1946 165.584 71.5475C170.825 66.4457 179.175 66.4457 184.416 71.5475C185.081 72.1946 185.8 73.1743 186.775 74.7864C187.747 76.3911 188.914 78.5215 190.501 81.419L190.612 81.621C192.273 84.6541 193.226 86.3938 194.364 87.7135C198.38 92.372 204.653 94.4104 210.64 93.002C212.336 92.6029 214.13 91.7555 217.257 90.2782L217.465 90.18C220.452 88.7688 222.649 87.7314 224.378 87.004C226.114 86.2733 227.272 85.9031 228.19 85.7703C235.429 84.7235 242.185 89.632 243.426 96.84C243.583 97.7543 243.589 98.9692 243.431 100.847C243.273 102.716 242.965 105.126 242.546 108.403L242.517 108.631C242.078 112.061 241.827 114.029 241.971 115.766C242.482 121.895 246.359 127.231 252.031 129.611C253.637 130.285 255.586 130.654 258.985 131.297L259.211 131.339C262.457 131.953 264.844 132.405 266.67 132.833C268.505 133.263 269.658 133.644 270.479 134.076C276.951 137.484 279.532 145.426 276.299 151.987C275.889 152.819 275.179 153.805 273.948 155.231C272.722 156.651 271.056 158.42 268.791 160.825L268.634 160.992C266.262 163.509 264.902 164.953 263.998 166.443C260.809 171.702 260.809 178.298 263.998 183.557C264.902 185.047 266.262 186.491 268.633 189.008L268.791 189.175C271.056 191.58 272.722 193.349 273.948 194.769C275.179 196.195 275.889 197.181 276.299 198.013C279.532 204.574 276.951 212.516 270.479 215.924C269.658 216.356 268.505 216.737 266.67 217.167C264.844 217.595 262.457 218.047 259.211 218.661L258.985 218.703C255.587 219.346 253.637 219.715 252.031 220.389C246.359 222.769 242.482 228.105 241.971 234.234C241.827 235.971 242.078 237.939 242.517 241.369L242.546 241.597C242.965 244.874 243.273 247.284 243.431 249.153C243.589 251.031 243.583 252.246 243.426 253.16C242.185 260.368 235.429 265.276 228.19 264.23C227.272 264.097 226.114 263.727 224.378 262.996C222.649 262.269 220.452 261.231 217.465 259.82L217.257 259.722C214.13 258.244 212.336 257.397 210.64 256.998C204.653 255.59 198.38 257.628 194.364 262.286C193.226 263.606 192.273 265.346 190.612 268.379L190.501 268.581C188.914 271.478 187.747 273.609 186.775 275.214C185.8 276.826 185.081 277.805 184.416 278.452C179.175 283.554 170.825 283.554 165.584 278.452C164.919 277.805 164.2 276.826 163.225 275.214C162.253 273.609 161.086 271.478 159.499 268.581L159.388 268.38C157.727 265.346 156.774 263.606 155.636 262.286C151.62 257.628 145.347 255.59 139.36 256.998C137.664 257.397 135.87 258.245 132.743 259.722L132.535 259.82C129.548 261.231 127.351 262.269 125.622 262.996C123.886 263.727 122.728 264.097 121.81 264.23C114.571 265.276 107.815 260.368 106.574 253.16C106.417 252.246 106.411 251.031 106.569 249.153C106.727 247.284 107.035 244.874 107.454 241.597L107.483 241.369C107.922 237.939 108.173 235.971 108.029 234.234C107.518 228.105 103.641 222.769 97.9694 220.389C96.3626 219.715 94.4134 219.346 91.015 218.703L90.7894 218.661C87.5432 218.047 85.1562 217.595 83.33 217.167C81.4953 216.737 80.3415 216.356 79.5207 215.924C73.049 212.516 70.4685 204.574 73.701 198.013C74.111 197.181 74.8206 196.195 76.0524 194.769C77.2784 193.349 78.9439 191.58 81.209 189.175L81.3667 189.008C83.7381 186.491 85.0982 185.047 86.0019 183.557C89.1914 178.298 89.1914 171.702 86.0019 166.443C85.0982 164.953 83.7381 163.509 81.3667 160.992L81.209 160.825C78.9439 158.42 77.2784 156.651 76.0524 155.231C74.8206 153.805 74.111 152.819 73.701 151.987C70.4685 145.426 73.049 137.484 79.5207 134.076C80.3415 133.644 81.4953 133.263 83.33 132.833C85.1562 132.405 87.5432 131.953 90.7894 131.339L91.0154 131.297C94.4135 130.654 96.3627 130.285 97.9694 129.611C103.641 127.231 107.518 121.895 108.029 115.766C108.173 114.029 107.922 112.061 107.483 108.631L107.454 108.403C107.035 105.126 106.727 102.716 106.569 100.847C106.411 98.9692 106.417 97.7543 106.574 96.84C107.815 89.632 114.571 84.7235 121.81 85.7703C122.728 85.9031 123.886 86.2733 125.622 87.004C127.351 87.7314 129.548 88.7688 132.535 90.18L132.743 90.2782C135.87 91.7556 137.664 92.6029 139.36 93.002C145.347 94.4104 151.62 92.372 155.636 87.7135C156.774 86.3937 157.727 84.6539 159.388 81.6206L159.499 81.419Z" stroke="#080708" stroke-width="3"/>
<path d="M163.938 106.315C165.124 104.151 165.989 102.572 166.708 101.385C167.432 100.191 167.948 99.4983 168.408 99.0553C172.087 95.5089 177.913 95.5089 181.592 99.0553C182.052 99.4983 182.568 100.191 183.292 101.385C184.011 102.572 184.876 104.151 186.062 106.315L186.167 106.508C187.384 108.728 188.113 110.061 188.994 111.075C192.028 114.57 196.744 116.102 201.253 115.058C202.561 114.755 203.935 114.106 206.224 113.024L206.423 112.931C208.654 111.877 210.282 111.108 211.562 110.571C212.849 110.03 213.673 109.773 214.306 109.684C219.367 108.978 224.08 112.403 224.973 117.434L226.45 117.172L224.973 117.434C225.084 118.063 225.094 118.927 224.978 120.318C224.862 121.701 224.634 123.487 224.321 125.934L224.293 126.153C223.972 128.664 223.779 130.171 223.895 131.509C224.296 136.12 227.211 140.132 231.472 141.937C232.708 142.461 234.202 142.743 236.689 143.214L236.905 143.255C239.329 143.713 241.099 144.049 242.45 144.366C243.809 144.685 244.627 144.962 245.191 145.262C249.7 147.666 251.501 153.206 249.265 157.802C248.986 158.376 248.486 159.08 247.574 160.137C246.668 161.188 245.433 162.499 243.742 164.295L243.591 164.455C241.855 166.298 240.813 167.404 240.121 168.555C237.735 172.52 237.735 177.48 240.121 181.445C240.813 182.596 241.855 183.702 243.591 185.545L243.742 185.705C245.433 187.501 246.668 188.812 247.574 189.863C248.486 190.92 248.986 191.624 249.265 192.198C251.501 196.794 249.7 202.334 245.191 204.738C244.627 205.038 243.809 205.315 242.45 205.634C241.099 205.951 239.329 206.287 236.905 206.745L236.69 206.786C234.202 207.257 232.709 207.539 231.472 208.063C227.211 209.868 224.296 213.88 223.895 218.491C223.779 219.829 223.972 221.336 224.293 223.847L224.321 224.066C224.634 226.513 224.862 228.299 224.978 229.682C225.094 231.073 225.084 231.937 224.973 232.566C224.08 237.597 219.367 241.022 214.306 240.316C213.673 240.227 212.849 239.97 211.562 239.429C210.282 238.892 208.654 238.123 206.423 237.07L206.225 236.976C203.935 235.894 202.561 235.245 201.253 234.942C196.744 233.898 192.028 235.43 188.994 238.925C188.113 239.939 187.383 241.272 186.167 243.492L186.062 243.685C184.876 245.849 184.011 247.428 183.292 248.615C182.568 249.809 182.052 250.502 181.592 250.945C177.913 254.491 172.087 254.491 168.408 250.945C167.948 250.502 167.432 249.809 166.708 248.615C165.989 247.428 165.124 245.849 163.938 243.685L163.833 243.492C162.616 241.272 161.886 239.939 161.006 238.925C157.972 235.43 153.256 233.898 148.747 234.942C147.439 235.245 146.065 235.894 143.775 236.976L143.577 237.07C141.346 238.123 139.718 238.892 138.438 239.429C137.151 239.97 136.327 240.227 135.694 240.316C130.633 241.022 125.92 237.597 125.027 232.566C124.916 231.937 124.906 231.074 125.022 229.682C125.138 228.299 125.366 226.513 125.679 224.066L125.707 223.847C126.028 221.336 126.221 219.829 126.105 218.491C125.704 213.88 122.789 209.868 118.528 208.063C117.291 207.539 115.798 207.257 113.31 206.786L113.095 206.745C110.671 206.287 108.901 205.951 107.55 205.634C106.191 205.315 105.373 205.038 104.809 204.738C100.3 202.334 98.4994 196.794 100.735 192.198C101.014 191.624 101.514 190.92 102.426 189.863C103.332 188.812 104.567 187.501 106.258 185.705L106.409 185.544C108.145 183.702 109.187 182.596 109.879 181.445C112.265 177.48 112.265 172.52 109.879 168.555C109.187 167.404 108.145 166.298 106.409 164.455L106.258 164.295C104.567 162.499 103.332 161.188 102.426 160.137C101.514 159.08 101.014 158.376 100.735 157.802C98.4994 153.206 100.3 147.666 104.809 145.262C105.373 144.962 106.191 144.685 107.55 144.366C108.901 144.049 110.671 143.713 113.095 143.255L113.311 143.214C115.798 142.743 117.292 142.461 118.528 141.937C122.789 140.132 125.704 136.12 126.105 131.509C126.221 130.171 126.028 128.664 125.707 126.153L125.679 125.934C125.366 123.487 125.138 121.701 125.022 120.318C124.906 118.927 124.916 118.063 125.027 117.434C125.92 112.403 130.633 108.978 135.694 109.684C136.327 109.773 137.151 110.03 138.438 110.571C139.718 111.108 141.346 111.877 143.577 112.931L143.776 113.024C146.065 114.106 147.439 114.755 148.747 115.058C153.256 116.102 157.972 114.57 161.006 111.075C161.887 110.061 162.616 108.728 163.833 106.508L163.938 106.315Z" stroke="black" stroke-width="3"/>
<path d="M170.79 125.685C172.162 123.18 172.848 121.928 173.755 121.515C174.546 121.154 175.454 121.154 176.245 121.515C177.152 121.928 177.838 123.18 179.21 125.685L184.453 135.256C185.218 136.652 185.6 137.35 186.165 137.75C186.662 138.102 187.254 138.294 187.863 138.302C188.555 138.31 189.274 137.97 190.713 137.29L200.581 132.629C203.163 131.409 204.454 130.799 205.431 130.998C206.282 131.171 207.017 131.705 207.445 132.461C207.936 133.329 207.755 134.745 207.393 137.577L206.009 148.403C205.807 149.982 205.706 150.771 205.927 151.426C206.123 152.003 206.489 152.507 206.977 152.871C207.532 153.284 208.314 153.432 209.877 153.728L220.601 155.757C223.406 156.288 224.809 156.553 225.483 157.288C226.07 157.929 226.351 158.793 226.252 159.656C226.139 160.647 225.16 161.686 223.203 163.764L215.72 171.709C214.629 172.867 214.083 173.447 213.877 174.107C213.696 174.689 213.696 175.311 213.877 175.893C214.083 176.553 214.629 177.133 215.72 178.291L223.203 186.236C225.16 188.314 226.139 189.353 226.252 190.344C226.351 191.207 226.07 192.071 225.483 192.712C224.809 193.447 223.406 193.712 220.601 194.243L209.877 196.272C208.314 196.568 207.532 196.716 206.977 197.129C206.489 197.493 206.123 197.997 205.927 198.574C205.706 199.229 205.807 200.018 206.009 201.597L207.393 212.423C207.755 215.255 207.936 216.671 207.445 217.539C207.017 218.295 206.282 218.829 205.431 219.002C204.454 219.201 203.163 218.591 200.581 217.371L190.713 212.71C189.274 212.03 188.555 211.69 187.863 211.698C187.254 211.706 186.662 211.898 186.165 212.25C185.6 212.65 185.218 213.348 184.453 214.744L179.21 224.315C177.838 226.82 177.152 228.072 176.245 228.485C175.454 228.846 174.546 228.846 173.755 228.485C172.848 228.072 172.162 226.82 170.79 224.315L165.547 214.744C164.782 213.348 164.4 212.65 163.835 212.25C163.338 211.898 162.746 211.706 162.137 211.698C161.445 211.69 160.726 212.03 159.287 212.71L149.419 217.371C146.837 218.591 145.546 219.201 144.569 219.002C143.718 218.829 142.983 218.295 142.555 217.539C142.064 216.671 142.245 215.255 142.607 212.423L143.991 201.597C144.193 200.018 144.294 199.229 144.073 198.574C143.877 197.997 143.511 197.493 143.023 197.129C142.468 196.716 141.686 196.568 140.123 196.272L129.399 194.243C126.594 193.712 125.191 193.447 124.517 192.712C123.93 192.071 123.649 191.207 123.748 190.344C123.861 189.353 124.84 188.314 126.797 186.236L134.28 178.291C135.371 177.133 135.917 176.553 136.123 175.893C136.304 175.311 136.304 174.689 136.123 174.107C135.917 173.447 135.371 172.867 134.28 171.709L126.797 163.764C124.84 161.686 123.861 160.647 123.748 159.656C123.649 158.793 123.93 157.929 124.517 157.288C125.191 156.553 126.594 156.288 129.399 155.757L140.123 153.728C141.686 153.432 142.468 153.284 143.023 152.871C143.511 152.507 143.877 152.003 144.073 151.426C144.294 150.771 144.193 149.982 143.991 148.403L142.607 137.577C142.245 134.745 142.064 133.329 142.555 132.461C142.983 131.705 143.718 131.171 144.569 130.998C145.546 130.799 146.837 131.409 149.419 132.629L159.287 137.29C160.726 137.97 161.445 138.31 162.137 138.302C162.746 138.294 163.338 138.102 163.835 137.75C164.4 137.35 164.782 136.652 165.547 135.256L170.79 125.685Z" fill="#9CF50B"/>
</svg>
