<svg width="124" height="137" viewBox="0 0 124 137" fill="none" xmlns="http://www.w3.org/2000/svg">
<g filter="url(#filter0_d)">
<path d="M39.3726 39.3417C51.8694 26.8861 72.1306 26.8861 84.6274 39.3417C97.1242 51.7972 97.1242 71.9917 84.6274 84.4472L62 107L39.3726 84.4472C26.8758 71.9917 26.8758 51.7972 39.3726 39.3417Z" fill="#FAFFFD"/>
</g>
<path fill-rule="evenodd" clip-rule="evenodd" d="M59 45.5988C60.5706 44.7971 62.4303 44.7971 64.0009 45.5988C65.1117 46.1658 65.8544 47.2813 66.4975 48.5188C67.1564 49.787 67.8725 51.5244 68.7743 53.7127L73.3532 64.8227C74.7296 68.1623 72.2743 71.8298 68.6622 71.8298C67.4431 71.8298 66.487 72.8763 66.5969 74.0904L66.7476 75.7567C67.0267 78.8413 64.5977 81.5001 61.5005 81.5001C58.4032 81.5001 55.9742 78.8413 56.2533 75.7567L56.4041 74.0904C56.5139 72.8763 55.5578 71.8298 54.3387 71.8298C50.7266 71.8298 48.2714 68.1623 49.6477 64.8227L54.2266 53.7127C55.1285 51.5244 55.8445 49.787 56.5034 48.5188C57.1465 47.2813 57.8893 46.1658 59 45.5988ZM62.637 48.2708C61.9231 47.9065 61.0778 47.9065 60.3639 48.2708C60.1582 48.3759 59.779 48.7214 59.1655 49.9021C58.5753 51.038 57.9088 52.6513 56.9701 54.9289L52.4214 65.9658C51.8589 67.3308 52.8624 68.8298 54.3387 68.8298C57.3214 68.8298 59.6606 71.3902 59.3919 74.3608L59.2411 76.0271C59.1209 77.3553 60.1668 78.5001 61.5005 78.5001C62.8341 78.5001 63.88 77.3553 63.7598 76.0271L63.6091 74.3608C63.3403 71.3902 65.6795 68.8298 68.6622 68.8298C70.1386 68.8298 71.1421 67.3308 70.5795 65.9658L66.0308 54.9289C65.0921 52.6513 64.4257 51.038 63.8354 49.9021C63.2219 48.7214 62.8428 48.3759 62.637 48.2708Z" fill="#080708"/>
<defs>
<filter id="filter0_d" x="0" y="0" width="124" height="137" filterUnits="userSpaceOnUse" color-interpolation-filters="sRGB">
<feFlood flood-opacity="0" result="BackgroundImageFix"/>
<feColorMatrix in="SourceAlpha" type="matrix" values="0 0 0 0 0 0 0 0 0 0 0 0 0 0 0 0 0 0 127 0" result="hardAlpha"/>
<feOffset/>
<feGaussianBlur stdDeviation="15"/>
<feComposite in2="hardAlpha" operator="out"/>
<feColorMatrix type="matrix" values="0 0 0 0 0.611765 0 0 0 0 0.960784 0 0 0 0 0.0431373 0 0 0 0.5 0"/>
<feBlend mode="normal" in2="BackgroundImageFix" result="effect1_dropShadow"/>
<feBlend mode="normal" in="SourceGraphic" in2="effect1_dropShadow" result="shape"/>
</filter>
</defs>
</svg>
