<svg width="350" height="350" viewBox="0 0 350 350" fill="none" xmlns="http://www.w3.org/2000/svg">
<path d="M60 115C60 101.193 71.1929 90 85 90H265C278.807 90 290 101.193 290 115C290 128.807 278.807 140 265 140H85C71.1929 140 60 128.807 60 115Z" fill="#9CF50B"/>
<path d="M61.5 115C61.5 102.021 72.0213 91.5 85 91.5H265C277.979 91.5 288.5 102.021 288.5 115C288.5 127.979 277.979 138.5 265 138.5H85C72.0213 138.5 61.5 127.979 61.5 115Z" stroke="#080708" stroke-width="3"/>
<path d="M51.5 145C51.5 132.021 62.0213 121.5 75 121.5H275C287.979 121.5 298.5 132.021 298.5 145C298.5 157.979 287.979 168.5 275 168.5H75C62.0213 168.5 51.5 157.979 51.5 145Z" stroke="#080708" stroke-width="3"/>
<path d="M41.5 175C41.5 162.021 52.0213 151.5 65 151.5H285C297.979 151.5 308.5 162.021 308.5 175C308.5 187.979 297.979 198.5 285 198.5H65C52.0213 198.5 41.5 187.979 41.5 175Z" stroke="#080708" stroke-width="3"/>
<path d="M31.5 205C31.5 192.021 42.0213 181.5 55 181.5H295C307.979 181.5 318.5 192.021 318.5 205C318.5 217.979 307.979 228.5 295 228.5H55C42.0213 228.5 31.5 217.979 31.5 205Z" stroke="#080708" stroke-width="3"/>
<path d="M21.5 235C21.5 222.021 32.0213 211.5 45 211.5H305C317.979 211.5 328.5 222.021 328.5 235C328.5 247.979 317.979 258.5 305 258.5H45C32.0213 258.5 21.5 247.979 21.5 235Z" stroke="#080708" stroke-width="3"/>
</svg>
