<svg width="1390" height="794" viewBox="0 0 1390 794" fill="none" xmlns="http://www.w3.org/2000/svg">
<path d="M1 130.074C1 106.856 1.0008 89.5042 2.14005 75.7737C3.27837 62.0545 5.54795 52.0431 10.0335 43.4879C17.9753 28.3405 30.6184 16.1795 46.0629 8.83234C54.786 4.68265 64.8779 2.8038 78.6311 2.19946C92.3955 1.59462 109.735 2.2681 132.935 3.17031L1266.94 47.2691C1288.56 48.1101 1304.72 48.7394 1317.54 50.272C1330.33 51.8032 1339.71 54.2281 1347.77 58.6157C1362.05 66.3908 1373.59 78.3852 1380.8 92.9614C1384.87 101.187 1386.93 110.645 1387.97 123.494C1389 136.355 1389 152.529 1389 174.173V619.827C1389 641.471 1389 657.645 1387.97 670.506C1386.93 683.355 1384.87 692.813 1380.8 701.039C1373.59 715.615 1362.05 727.609 1347.77 735.384C1339.71 739.772 1330.33 742.197 1317.54 743.728C1304.72 745.261 1288.56 745.89 1266.94 746.731L132.935 790.83C109.735 791.732 92.3955 792.405 78.6311 791.801C64.8779 791.196 54.786 789.317 46.0629 785.168C30.6184 777.82 17.9753 765.659 10.0335 750.512C5.54795 741.957 3.27837 731.945 2.14005 718.226C1.0008 704.496 1 687.143 1 663.926V130.074Z" stroke="#080708" stroke-width="2"/>
</svg>
