<svg width="130" height="130" viewBox="0 0 130 130" fill="none" xmlns="http://www.w3.org/2000/svg">
<path d="M21.5 56.8144C21.5 52.1479 21.5013 48.7426 21.7281 46.0779C21.9537 43.4286 22.3933 41.6619 23.1815 40.2342C24.6582 37.5593 26.9987 35.4645 29.8203 34.2922C31.3263 33.6665 33.1307 33.4247 35.7887 33.4931C38.4622 33.5619 41.8468 33.9367 46.4847 34.452L62.184 36.1963L62.2409 36.2027C63.1798 36.307 63.7221 36.3673 64.2699 36.3915C64.7564 36.4131 65.2436 36.4131 65.7301 36.3915C66.2779 36.3673 66.8202 36.307 67.7592 36.2027L67.816 36.1963L83.5153 34.452C88.1532 33.9367 91.5378 33.5619 94.2113 33.4931C96.8693 33.4247 98.6737 33.6665 100.18 34.2922C103.001 35.4645 105.342 37.5593 106.819 40.2342C107.607 41.6619 108.046 43.4286 108.272 46.0779C108.499 48.7426 108.5 52.1479 108.5 56.8144V63.0697C108.5 69.2526 108.499 73.7871 108.182 77.2569C107.866 80.7252 107.249 82.9122 106.167 84.5045C104.128 87.5057 100.967 89.56 97.3967 90.2041C95.5024 90.5459 93.2532 90.2217 89.9554 89.102C86.6562 87.9819 82.5119 86.1416 76.8619 83.6305L75.3565 82.9614L75.1459 82.8678C71.757 81.3614 69.8009 80.4919 67.7474 80.1451C65.9287 79.838 64.0713 79.838 62.2526 80.1451C60.1991 80.4919 58.243 81.3614 54.8541 82.8678L54.6435 82.9614L53.1381 83.6305C47.4881 86.1416 43.3438 87.9819 40.0446 89.102C36.7468 90.2217 34.4976 90.5459 32.6033 90.2041C29.0327 89.56 25.8717 87.5057 23.8329 84.5045C22.7513 82.9122 22.134 80.7252 21.8178 77.2569C21.5015 73.7871 21.5 69.2526 21.5 63.0697V56.8144Z" fill="#FAFFFD" stroke="black" stroke-width="3"/>
<circle cx="43" cy="59" r="9" stroke="black" stroke-width="3" stroke-linecap="round"/>
<circle cx="86" cy="59" r="9" stroke="black" stroke-width="3" stroke-linecap="round"/>
</svg>
