<svg width="220" height="31" viewBox="0 0 220 31" fill="none" xmlns="http://www.w3.org/2000/svg">
<g clip-path="url(#clip0)">
<path fill-rule="evenodd" clip-rule="evenodd" d="M209.898 16.2881C207.569 16.2881 205.741 18.2043 205.741 20.4915C205.741 22.7787 207.569 24.6949 209.898 24.6949C210.953 24.6949 212.075 24.3111 212.876 23.7107C213.679 23.1086 213.848 22.5596 213.848 22.2501H213.889V18.9152C213.889 18.6268 213.706 18.0156 212.858 17.3462C212.033 16.6937 210.917 16.2881 209.898 16.2881ZM213.889 10.7822C212.632 10.2713 211.269 9.98304 209.898 9.98304C204.26 9.98304 199.63 14.6535 199.63 20.4915C199.63 26.3295 204.261 31 209.898 31C211.25 31 212.617 30.7322 213.889 30.2368V31H220V9.98304H213.889V10.7822Z" fill="#080708"/>
<path fill-rule="evenodd" clip-rule="evenodd" d="M179.514 31.0001V1.83908H185.625V18.7443L193.082 8.13271L198.03 11.8336L192.459 19.7615L197.338 23.3275V31.0001H191.227V26.588L185.625 22.494V31.0001H179.514Z" fill="#080708"/>
<path fill-rule="evenodd" clip-rule="evenodd" d="M169.329 30.9999V9.72028H175.44V30.9999H169.329Z" fill="#080708"/>
<path d="M176.204 3.94068C176.204 6.11705 174.494 7.88136 172.384 7.88136C170.275 7.88136 168.565 6.11705 168.565 3.94068C168.565 1.7643 170.275 0 172.384 0C174.494 0 176.204 1.7643 176.204 3.94068Z" fill="#080708"/>
<path fill-rule="evenodd" clip-rule="evenodd" d="M154.306 9.98311V5.77972H160.417V9.98311H166.528V16.2882H160.417V24.695H166.528V31.0001H154.306V16.2882H150.996V9.98311H154.306Z" fill="#080708"/>
<path fill-rule="evenodd" clip-rule="evenodd" d="M138.092 16.2881C135.763 16.2881 133.935 18.2043 133.935 20.4915C133.935 22.7787 135.763 24.6949 138.092 24.6949C139.147 24.6949 140.269 24.3111 141.07 23.7107C141.873 23.1086 142.042 22.5596 142.042 22.2501H142.083L142.083 18.9152C142.083 18.6268 141.9 18.0156 141.053 17.3462C140.227 16.6937 139.111 16.2881 138.092 16.2881ZM142.083 10.7822C140.827 10.2713 139.463 9.98304 138.092 9.98304C132.455 9.98304 127.824 14.6535 127.824 20.4915C127.824 26.3295 132.455 31 138.092 31C139.444 31 140.812 30.7322 142.083 30.2368V31H148.194V9.98304H142.083V10.7822Z" fill="#080708"/>
<path fill-rule="evenodd" clip-rule="evenodd" d="M94.7224 9.98304H124.769V31H118.658V16.2881H112.801V31H106.69V16.2881H100.833V31H94.7224V9.98304Z" fill="#080708"/>
<path fill-rule="evenodd" clip-rule="evenodd" d="M84.7917 31V10.2457H90.9028V31H84.7917Z" fill="#080708"/>
<path d="M91.6665 3.94068C91.6665 6.11705 89.9565 7.88136 87.8471 7.88136C85.7376 7.88136 84.0276 6.11705 84.0276 3.94068C84.0276 1.7643 85.7376 0 87.8471 0C89.9565 0 91.6665 1.7643 91.6665 3.94068Z" fill="#080708"/>
<path fill-rule="evenodd" clip-rule="evenodd" d="M62.1299 2.10166H68.241V10.2457H80.7178V31H74.6067V16.5508H68.241V31H62.1299V2.10166Z" fill="#080708"/>
<path fill-rule="evenodd" clip-rule="evenodd" d="M48.8887 16.2881C46.6387 16.2881 44.8146 18.17 44.8146 20.4915C44.8146 22.813 46.6387 24.6949 48.8887 24.6949C49.9157 24.6949 51.0122 24.3165 51.7977 23.7209C52.5826 23.1257 52.7577 22.5757 52.7577 22.2501H58.8689C58.8689 25.1574 57.2568 27.4061 55.4169 28.8013C53.5776 30.1961 51.2119 31 48.8887 31C43.2636 31 38.7035 26.2952 38.7035 20.4915C38.7035 14.6878 43.2636 9.98304 48.8887 9.98304C51.3118 9.98304 53.7041 10.8975 55.5227 12.351C57.3227 13.7897 58.9098 16.0668 58.9098 18.9152H52.7987C52.7987 18.6111 52.6096 17.9984 51.7801 17.3354C50.9692 16.6872 49.8787 16.2881 48.8887 16.2881Z" fill="#080708"/>
<path fill-rule="evenodd" clip-rule="evenodd" d="M24.4443 9.98304H37.1758V16.2881H30.5554V31H24.4443V9.98304Z" fill="#080708"/>
<path fill-rule="evenodd" clip-rule="evenodd" d="M10.2682 16.2881C7.93886 16.2881 6.11111 18.2043 6.11111 20.4915C6.11111 22.7787 7.93886 24.6949 10.2682 24.6949C11.3232 24.6949 12.4447 24.3111 13.2457 23.7107C14.0489 23.1086 14.2178 22.5596 14.2178 22.2501H14.2593L14.2593 18.9152C14.2593 18.6268 14.0759 18.0156 13.2286 17.3462C12.4028 16.6937 11.2874 16.2881 10.2682 16.2881ZM14.2593 10.7822C13.0024 10.2713 11.6394 9.98304 10.2682 9.98304C4.63065 9.98304 0 14.6535 0 20.4915C0 26.3295 4.63066 31 10.2682 31C11.6199 31 12.9874 30.7322 14.2593 30.2368V31H20.3704V9.98304H14.2593V10.7822Z" fill="#080708"/>
</g>
<defs>
<clipPath id="clip0">
<rect width="220" height="31" fill="white"/>
</clipPath>
</defs>
</svg>
