<svg width="150" height="150" viewBox="0 0 150 150" fill="none" xmlns="http://www.w3.org/2000/svg">
<path d="M73.0979 63.8541C73.6966 62.0115 76.3034 62.0115 76.9021 63.8541L78.3677 68.3647C78.6355 69.1888 79.4034 69.7467 80.2698 69.7467L85.0126 69.7467C86.95 69.7467 87.7556 72.2259 86.1882 73.3647L82.3512 76.1525C81.6502 76.6618 81.3569 77.5645 81.6246 78.3885L83.0902 82.8992C83.6889 84.7418 81.58 86.2741 80.0126 85.1353L76.1756 82.3475C75.4746 81.8382 74.5254 81.8382 73.8244 82.3475L69.9874 85.1353C68.42 86.2741 66.3111 84.7418 66.9098 82.8992L68.3754 78.3885C68.6431 77.5645 68.3498 76.6618 67.6488 76.1525L63.8118 73.3647C62.2444 72.2259 63.05 69.7467 64.9874 69.7467L69.7302 69.7467C70.5966 69.7467 71.3645 69.1888 71.6323 68.3647L73.0979 63.8541Z" fill="#0EFBCA"/>
<rect x="51" y="51" width="48" height="48" rx="24" stroke="#080708" stroke-width="3"/>
<rect x="51" y="35" width="80" height="80" rx="40" stroke="#080708" stroke-width="3"/>
<rect x="19" y="35" width="80" height="80" rx="40" stroke="#080708" stroke-width="3"/>
</svg>
