<svg width="655" height="660" xmlns="http://www.w3.org/2000/svg" fill="none">

  <g>
    <g stroke="null" id="svg_1">
      <path stroke="#FAFFFD" id="svg_2" fill="white" shape-rendering="geometricPrecision" stroke-width="3" d="m499.74391,187.8658l46.72399,80.93017c31.61218,54.75847 55.26201,95.72571 71.08266,128.59882c15.82482,32.88282 23.68867,57.41906 23.93836,79.33354c0.70468,61.67766 -32.26831,118.829 -86.00027,149.06788c-19.0916,10.74362 -44.26038,16.20351 -80.63609,18.9404c-36.36323,2.7355 -83.64902,2.73688 -146.85257,2.73688c-63.20355,0 -110.48934,-0.00139 -146.85257,-2.73688c-36.37571,-2.73688 -61.54449,-8.19678 -80.63609,-18.9404c-53.73196,-30.23888 -86.70495,-87.39021 -86.00027,-149.06788c0.24969,-21.91448 8.11355,-46.45072 23.93836,-79.33354c15.82065,-32.87311 39.47049,-73.84035 71.08266,-128.59743l46.72399,-80.93156c28.49798,-49.36238 49.80073,-86.25828 68.61767,-112.89608c18.82387,-26.64473 34.97051,-42.73588 53.03422,-50.78146c31.88684,-14.201 68.29723,-14.201 100.18407,0c18.06371,8.04558 34.21034,24.13673 53.03422,50.78146c18.81694,26.63641 40.11968,63.53369 68.61767,112.89608z"/>
    </g>
  </g>
</svg>
