<svg width="124" height="137" viewBox="0 0 124 137" fill="none" xmlns="http://www.w3.org/2000/svg">
<g filter="url(#filter0_d)">
<path d="M39.3726 39.3417C51.8694 26.8861 72.1306 26.8861 84.6274 39.3417C97.1242 51.7972 97.1242 71.9917 84.6274 84.4472L62 107L39.3726 84.4472C26.8758 71.9917 26.8758 51.7972 39.3726 39.3417Z" fill="#FAFFFD"/>
<path d="M40.4315 40.4041C52.3429 28.532 71.6571 28.532 83.5685 40.4041C95.4772 52.2735 95.4772 71.5154 83.5685 83.3848L62 104.882L40.4315 83.3848C28.5228 71.5154 28.5228 52.2735 40.4315 40.4041Z" stroke="#9CF50B" stroke-width="3"/>
</g>
<path fill-rule="evenodd" clip-rule="evenodd" d="M58.6444 45.5H65.3556C66.622 45.5 67.6694 45.5 68.5131 45.5735C69.3851 45.6494 70.203 45.8138 70.9457 46.2458C72.0705 46.9001 72.9269 47.932 73.3627 49.1581C73.6505 49.9677 73.6613 50.8019 73.5752 51.6729C73.492 52.5158 73.2989 53.5452 73.0655 54.79L72.4432 58.1091C72.2775 58.9927 72.1382 59.7361 71.9769 60.3421C71.8076 60.9785 71.5895 61.5661 71.2166 62.11C70.6384 62.9534 69.8365 63.6189 68.901 64.0317C68.2977 64.298 67.68 64.4041 67.0233 64.4533C66.398 64.5 65.6417 64.5 64.7427 64.5H59.2573C58.3583 64.5 57.602 64.5 56.9767 64.4533C56.32 64.4041 55.7023 64.298 55.099 64.0317C54.1635 63.6189 53.3616 62.9534 52.7834 62.11C52.4105 61.5661 52.1924 60.9785 52.0231 60.3421C51.8618 59.7361 51.7225 58.9927 51.5568 58.1091L50.9345 54.7899C50.7011 53.5452 50.508 52.5158 50.4248 51.6729C50.3387 50.8019 50.3495 49.9677 50.6373 49.1581C51.0731 47.932 51.9295 46.9001 53.0543 46.2458C53.797 45.8138 54.6149 45.6494 55.4869 45.5735C56.3306 45.5 57.378 45.5 58.6444 45.5ZM55.7472 48.5621C55.0625 48.6218 54.7524 48.7286 54.5627 48.839C54.0514 49.1364 53.6622 49.6054 53.4641 50.1628C53.3906 50.3696 53.3427 50.6941 53.4102 51.378C53.4791 52.0753 53.6466 52.9757 53.8955 54.303L54.4955 57.503C54.6737 58.4538 54.7933 59.0861 54.9222 59.5708C55.0463 60.0372 55.1537 60.2619 55.2578 60.4136C55.5206 60.797 55.8851 61.0995 56.3103 61.2872C56.4786 61.3614 56.7192 61.4256 57.2005 61.4616C57.7007 61.499 58.3442 61.5 59.3115 61.5H64.6885C65.6558 61.5 66.2993 61.499 66.7995 61.4616C67.2808 61.4256 67.5214 61.3614 67.6897 61.2872C68.1149 61.0995 68.4794 60.797 68.7422 60.4136C68.8463 60.2619 68.9537 60.0372 69.0778 59.5708C69.2067 59.0861 69.3263 58.4538 69.5045 57.503L70.1045 54.303C70.3534 52.9757 70.5209 52.0753 70.5898 51.378C70.6573 50.6941 70.6094 50.3696 70.5359 50.1628C70.3378 49.6054 69.9486 49.1364 69.4373 48.839C69.2476 48.7286 68.9375 48.6218 68.2528 48.5621C67.5548 48.5013 66.6389 48.5 65.2885 48.5H58.7115C57.3611 48.5 56.4452 48.5013 55.7472 48.5621Z" fill="#9CF50B"/>
<path fill-rule="evenodd" clip-rule="evenodd" d="M46.5 71C46.5 68.5147 48.5147 66.5 51 66.5H73C75.4853 66.5 77.5 68.5147 77.5 71C77.5 73.4853 75.4853 75.5 73 75.5H51C48.5147 75.5 46.5 73.4853 46.5 71ZM51 69.5C50.1716 69.5 49.5 70.1716 49.5 71C49.5 71.8284 50.1716 72.5 51 72.5H73C73.8284 72.5 74.5 71.8284 74.5 71C74.5 70.1716 73.8284 69.5 73 69.5H51Z" fill="#9CF50B"/>
<defs>
<filter id="filter0_d" x="0" y="0" width="124" height="137" filterUnits="userSpaceOnUse" color-interpolation-filters="sRGB">
<feFlood flood-opacity="0" result="BackgroundImageFix"/>
<feColorMatrix in="SourceAlpha" type="matrix" values="0 0 0 0 0 0 0 0 0 0 0 0 0 0 0 0 0 0 127 0" result="hardAlpha"/>
<feOffset/>
<feGaussianBlur stdDeviation="15"/>
<feComposite in2="hardAlpha" operator="out"/>
<feColorMatrix type="matrix" values="0 0 0 0 0.611765 0 0 0 0 0.960784 0 0 0 0 0.0431373 0 0 0 0.5 0"/>
<feBlend mode="normal" in2="BackgroundImageFix" result="effect1_dropShadow"/>
<feBlend mode="normal" in="SourceGraphic" in2="effect1_dropShadow" result="shape"/>
</filter>
</defs>
</svg>
