<svg width="28" height="31" viewBox="0 0 28 31" fill="none" xmlns="http://www.w3.org/2000/svg">
<path fill-rule="evenodd" clip-rule="evenodd" d="M14.5749 3.34869C14.1969 3.25942 13.8034 3.25942 13.4255 3.34869C13.0595 3.43514 12.6808 3.65736 11.3154 4.55167L5.71543 8.2195C4.5791 8.96377 4.28332 9.17607 4.07789 9.42313C3.86601 9.67794 3.70691 9.97234 3.60984 10.2892C3.51572 10.5964 3.50018 10.9602 3.50018 12.3185V22.6001C3.50018 23.745 3.50135 24.5134 3.5497 25.1052C3.59661 25.6794 3.68038 25.954 3.77267 26.1351C4.01235 26.6055 4.3948 26.988 4.8652 27.2276C5.04633 27.3199 5.32089 27.4037 5.89514 27.4506C6.48689 27.499 7.25532 27.5001 8.40018 27.5001H19.6002C20.745 27.5001 21.5135 27.499 22.1052 27.4506C22.6795 27.4037 22.954 27.3199 23.1352 27.2276C23.6056 26.988 23.988 26.6055 24.2277 26.1351C24.32 25.954 24.4037 25.6794 24.4507 25.1052C24.499 24.5134 24.5002 23.745 24.5002 22.6001V12.3185C24.5002 10.9602 24.4846 10.5964 24.3905 10.2892C24.2934 9.97234 24.1343 9.67794 23.9225 9.42313C23.717 9.17607 23.4213 8.96377 22.2849 8.2195L16.6849 4.55167C15.3195 3.65736 14.9409 3.43514 14.5749 3.34869ZM12.7359 0.429022C13.5673 0.232644 14.433 0.232644 15.2645 0.429022C16.2112 0.652631 17.0578 1.20818 18.1365 1.91601C18.1997 1.95751 18.2638 1.99954 18.3287 2.04205L23.9287 5.70989C23.9821 5.74491 24.035 5.77945 24.0871 5.81358C24.9898 6.40382 25.6994 6.86784 26.2292 7.50507C26.6953 8.06567 27.0454 8.71334 27.2589 9.41044C27.5017 10.2028 27.5011 11.0507 27.5003 12.1292C27.5002 12.1915 27.5002 12.2546 27.5002 12.3185V22.661C27.5002 23.7293 27.5002 24.621 27.4407 25.3495C27.3786 26.1092 27.2444 26.8226 26.9007 27.4971C26.3734 28.532 25.532 29.3734 24.4971 29.9007C23.8226 30.2444 23.1093 30.3786 22.3495 30.4407C21.6211 30.5002 20.7294 30.5002 19.6611 30.5001H8.33928C7.27098 30.5002 6.3793 30.5002 5.65084 30.4407C4.89107 30.3786 4.17776 30.2444 3.50323 29.9007C2.46834 29.3734 1.62695 28.532 1.09965 27.4971C0.755958 26.8226 0.621735 26.1092 0.55966 25.3495C0.500142 24.621 0.500159 23.7293 0.500181 22.661L0.500181 12.3185C0.500181 12.2546 0.500135 12.1915 0.500089 12.1291C0.499296 11.0507 0.498672 10.2028 0.74143 9.41044C0.954991 8.71334 1.30502 8.06567 1.77115 7.50507C2.30101 6.86784 3.0106 6.40382 3.91322 5.81358C3.9654 5.77946 4.01823 5.74491 4.07171 5.70989L9.6717 2.04205C9.73661 1.99954 9.80065 1.95751 9.8639 1.91601C10.9426 1.20818 11.7892 0.65263 12.7359 0.429022Z" fill="#080708"/>
</svg>
