<svg width="921" height="1022" viewBox="0 0 921 1022" fill="none" xmlns="http://www.w3.org/2000/svg">
<path d="M1.5 195.497C1.5 178.011 1.50107 164.983 2.31467 154.596C3.12682 144.227 4.74222 136.608 7.9094 129.926C13.5543 118.018 22.6103 108.055 33.9277 101.303C40.2775 97.5144 47.7083 95.1815 57.9529 93.3865C68.2158 91.5884 81.185 90.3478 98.5917 88.6842L964.992 5.8807C985.671 3.90436 1001.09 2.43229 1013.33 2.30015C1025.56 2.16818 1034.47 3.37807 1042.17 6.67642C1055.88 12.5453 1067.22 22.8505 1074.36 35.9372C1078.38 43.2921 1080.43 52.0508 1081.47 64.2348C1082.5 76.4346 1082.5 91.9207 1082.5 112.694V909.306C1082.5 930.079 1082.5 945.565 1081.47 957.765C1080.43 969.949 1078.38 978.708 1074.36 986.063C1067.22 999.149 1055.88 1009.45 1042.17 1015.32C1034.47 1018.62 1025.56 1019.83 1013.33 1019.7C1001.09 1019.57 985.671 1018.1 964.992 1016.12L98.5917 933.316C81.185 931.652 68.2158 930.412 57.9529 928.613C47.7083 926.818 40.2775 924.486 33.9277 920.697C22.6103 913.945 13.5543 903.982 7.90941 892.074C4.74222 885.392 3.12682 877.773 2.31467 867.404C1.50107 857.017 1.5 843.988 1.5 826.502V195.497Z" stroke="#080708" stroke-width="3"/>
</svg>
