<svg width="581" height="260" viewBox="0 0 581 260" fill="none" xmlns="http://www.w3.org/2000/svg">
<path fill-rule="evenodd" clip-rule="evenodd" d="M83.8096 7.98894L3.39677 151.268V198.095H127.163V252.611H177.508V198.095H182.004C182.628 199.106 183.263 200.104 183.911 201.091C194.697 217.521 208.818 230.617 226.275 240.38C245.853 251.33 267.413 256.805 290.955 256.805C305.172 256.805 318.808 254.824 331.86 250.864C344.913 246.67 356.567 240.73 366.822 233.041C377.311 225.353 386.401 216.384 394.093 206.133C395.341 204.481 396.544 202.8 397.7 201.091C398.368 200.102 399.021 199.103 399.659 198.095H493.145V252.611H543.49V198.095H577.403V151.268H543.49V7.98894H449.792L408.759 81.1006C408.649 80.8425 408.539 80.5847 408.427 80.3272C408.052 79.4165 407.669 78.5135 407.277 77.6181C400.861 62.9391 392.271 50.3297 381.506 39.7898C370.318 28.6071 356.8 19.8706 340.95 13.5803C325.334 7.05706 308.669 3.79542 290.955 3.79542C267.413 3.79542 245.853 9.2703 226.275 20.2201C206.917 31.0463 191.66 46.086 180.505 65.339C180.378 65.5585 180.251 65.7787 180.125 65.9993C179.215 67.6057 178.342 69.2265 177.508 70.8617V7.98894H83.8096ZM180.505 59.5506V4.99356H82.0546L0.400024 150.485V201.091H124.166V255.607H180.505V201.343C191.665 218.829 206.446 232.723 224.811 242.994C244.86 254.206 266.927 259.8 290.955 259.8C305.455 259.8 319.384 257.78 332.731 253.73L332.754 253.723L332.777 253.716C346.119 249.429 358.07 243.344 368.607 235.448C379.324 227.59 388.622 218.416 396.49 207.93C398.175 205.701 399.777 203.422 401.296 201.091H490.148V255.607H546.487V201.091H580.4V148.272H546.487V4.99356H448.037L409.105 74.3624C402.652 60.2317 394.158 47.9875 383.614 37.6607C372.124 26.1787 358.264 17.2326 342.081 10.8063C326.089 4.1299 309.037 0.800049 290.955 0.800049C266.927 0.800049 244.86 6.39373 224.811 17.606C206.442 27.8796 191.663 41.8727 180.505 59.5506ZM345.845 73.6875C331.394 58.7772 313.097 51.322 290.955 51.322C269.045 51.322 250.748 58.7772 236.064 73.6875C221.38 88.5978 214.038 107.469 214.038 130.3C214.038 153.131 221.38 172.002 236.064 186.913C250.748 201.823 269.045 209.278 290.955 209.278C313.097 209.278 331.394 201.823 345.845 186.913C360.529 172.002 367.871 153.131 367.871 130.3C367.871 107.469 360.529 88.5978 345.845 73.6875ZM56.1895 151.268H127.163V55.1661H110.381L56.1895 151.268ZM61.3186 148.272H124.166V58.1615H112.132L61.3186 148.272ZM343.701 75.7802L343.693 75.7716C329.846 61.4853 312.346 54.3174 290.955 54.3174C269.806 54.3174 252.292 61.4796 238.2 75.7888C224.12 90.085 217.035 108.176 217.035 130.3C217.035 152.424 224.12 170.515 238.2 184.811C252.292 199.12 269.806 206.283 290.955 206.283C312.346 206.283 329.846 199.115 343.693 184.828L343.701 184.82L343.709 184.811C357.789 170.515 364.874 152.424 364.874 130.3C364.874 108.176 357.789 90.085 343.709 75.7888L343.701 75.7802ZM422.172 151.268H493.145V55.1661H476.363L422.172 151.268ZM427.301 148.272H490.148V58.1615H478.114L427.301 148.272Z" fill="#080708"/>
</svg>
