<svg width="150" height="150" viewBox="0 0 150 150" fill="none" xmlns="http://www.w3.org/2000/svg">
<path d="M68.1401 68.4332C70.4027 64.6621 71.5341 62.7766 72.9971 62.1369C74.274 61.5787 75.726 61.5787 77.0029 62.1369C78.4659 62.7766 79.5973 64.6621 81.8599 68.4332L85.7304 74.884C88.1098 78.8497 89.2995 80.8326 89.1475 82.4641C89.0149 83.8867 88.28 85.1846 87.1283 86.0302C85.8076 87 83.4952 87 78.8705 87H71.1295C66.5048 87 64.1924 87 62.8717 86.0302C61.72 85.1846 60.9851 83.8867 60.8525 82.4641C60.7005 80.8326 61.8902 78.8497 64.2696 74.884L68.1401 68.4332Z" fill="#00FDE5"/>
<path d="M66.4251 58.2916C70.3091 51.8182 79.6909 51.8182 83.5749 58.2915L107.913 98.855C111.912 105.52 107.111 114 99.3381 114H50.6619C42.889 114 38.0878 105.52 42.087 98.855L66.4251 58.2916Z" stroke="#080708" stroke-width="3"/>
<path d="M66.4251 37.2916C70.3091 30.8182 79.6909 30.8182 83.5749 37.2915L107.913 77.855C111.912 84.5203 107.111 93 99.3381 93H50.6619C42.889 93 38.0878 84.5203 42.087 77.855L66.4251 37.2916Z" stroke="#080708" stroke-width="3"/>
<path d="M66.4251 37.2916C70.3091 30.8182 79.6909 30.8182 83.5749 37.2915L128.913 112.855C132.912 119.52 128.111 128 120.338 128H29.6619C21.889 128 17.0878 119.52 21.087 112.855L66.4251 37.2916Z" stroke="#080708" stroke-width="3"/>
</svg>
