<svg width="350" height="350" viewBox="0 0 350 350" fill="none" xmlns="http://www.w3.org/2000/svg">
<path d="M159.915 139.669C164.546 126.569 166.862 120.019 170.273 118.189C173.225 116.605 176.775 116.605 179.727 118.189C183.138 120.019 185.454 126.569 190.085 139.669L202.458 174.667C204.998 181.853 206.269 185.445 205.587 188.313C204.991 190.822 203.448 193.003 201.281 194.402C198.805 196 194.994 196 187.373 196H162.627C155.006 196 151.195 196 148.719 194.402C146.552 193.003 145.009 190.822 144.413 188.313C143.731 185.445 145.002 181.853 147.542 174.667L159.915 139.669Z" fill="#9CF50B"/>
<path d="M215.308 256.914C208.469 268.803 203.391 277.629 198.914 283.988C194.431 290.354 190.689 294.039 186.609 295.859C179.22 299.155 170.78 299.155 163.391 295.859C159.311 294.039 155.569 290.354 151.086 283.988C146.609 277.629 141.531 268.803 134.692 256.914L64.6749 135.185C57.8697 123.353 52.8189 114.569 49.5878 107.533C46.3535 100.49 45.0528 95.4209 45.5238 90.9888C46.3765 82.9633 50.5919 75.6756 57.1236 70.9349C60.7307 68.3169 65.7732 66.9169 73.491 66.2089C81.2012 65.5015 91.3339 65.5 104.983 65.5L245.017 65.5C258.666 65.5 268.799 65.5015 276.509 66.2088C284.227 66.9169 289.269 68.3168 292.876 70.9349C299.408 75.6755 303.623 82.9632 304.476 90.9888C304.947 95.4208 303.646 100.49 300.412 107.533C297.181 114.569 292.13 123.353 285.325 135.185L215.308 256.914Z" stroke="#080708" stroke-width="3"/>
<path d="M146.224 121.425C150.865 108.218 154.313 98.4061 157.45 91.4296C160.62 84.3802 163.315 80.6121 166.242 79.0389C171.711 76.0995 178.289 76.0995 183.758 79.0389C186.685 80.6121 189.38 84.3802 192.55 91.4296C195.687 98.4061 199.135 108.218 203.776 121.425L223.615 177.89C226.146 185.094 228.009 190.402 229.079 194.626C230.146 198.843 230.368 201.789 229.767 204.303C228.659 208.938 225.804 212.967 221.798 215.549C219.626 216.95 216.773 217.717 212.44 218.107C208.101 218.499 202.475 218.5 194.839 218.5H155.161C147.525 218.5 141.899 218.499 137.56 218.107C133.227 217.717 130.374 216.95 128.202 215.549C124.196 212.967 121.341 208.938 120.233 204.303C119.632 201.789 119.854 198.843 120.921 194.626C121.991 190.402 123.854 185.094 126.385 177.89L146.224 121.425Z" stroke="#080708" stroke-width="3"/>
<path d="M203.776 230.575C199.135 243.782 195.687 253.594 192.55 260.57C189.38 267.62 186.685 271.388 183.758 272.961C178.289 275.9 171.711 275.9 166.242 272.961C163.315 271.388 160.62 267.62 157.45 260.57C154.313 253.594 150.865 243.782 146.224 230.575L126.385 174.11C123.854 166.906 121.991 161.598 120.921 157.374C119.854 153.157 119.632 150.211 120.233 147.697C121.341 143.062 124.196 139.033 128.202 136.451C130.374 135.05 133.227 134.283 137.56 133.893C141.899 133.501 147.525 133.5 155.161 133.5L194.839 133.5C202.475 133.5 208.101 133.501 212.44 133.893C216.773 134.283 219.626 135.05 221.798 136.451C225.804 139.033 228.659 143.062 229.767 147.697C230.368 150.211 230.146 153.157 229.079 157.374C228.009 161.598 226.146 166.906 223.615 174.11L203.776 230.575Z" stroke="#080708" stroke-width="3"/>
<path d="M195.61 176.073C191.777 179.586 188.966 182.162 186.574 184.031C184.197 185.889 182.328 186.973 180.41 187.56C176.884 188.638 173.116 188.638 169.59 187.56C167.672 186.973 165.803 185.889 163.426 184.031C161.034 182.162 158.223 179.586 154.39 176.073L116.656 141.483C107.205 132.819 100.191 126.389 95.4291 121.191C90.6261 115.95 88.3779 112.231 88.0257 109.012C87.3694 103.012 89.681 97.0695 94.2189 93.0903C96.654 90.955 100.824 89.7331 107.906 89.1146C114.929 88.5014 124.444 88.5 137.266 88.5L212.734 88.5C225.556 88.5 235.071 88.5014 242.094 89.1146C249.176 89.7331 253.346 90.955 255.781 93.0903C260.319 97.0695 262.631 103.012 261.974 109.012C261.622 112.231 259.374 115.95 254.571 121.191C249.809 126.389 242.795 132.819 233.344 141.483L195.61 176.073Z" stroke="#080708" stroke-width="3"/>
</svg>
