<svg width="350" height="350" viewBox="0 0 350 350" fill="none" xmlns="http://www.w3.org/2000/svg">
<circle cx="212" cy="175" r="50" fill="#9CF50B"/>
<mask id="path-2-inside-1" fill="white">
<path d="M173.5 56C173.5 50.4792 173.5 47.7187 172.242 45.4541C171.217 43.6079 169.238 41.8512 167.283 41.0523C164.885 40.0723 162.436 40.3651 157.538 40.9506C145.357 42.4064 133.408 45.5247 122.029 50.2382C105.711 56.9975 90.8836 66.9047 78.3941 79.3941C65.9046 91.8836 55.9975 106.711 49.2382 123.029C42.4789 139.347 39 156.837 39 174.5C39 192.163 42.4789 209.653 49.2382 225.971C55.9975 242.289 65.9047 257.116 78.3941 269.606C90.8836 282.095 105.711 292.003 122.029 298.762C133.408 303.475 145.357 306.594 157.538 308.049C162.436 308.635 164.885 308.928 167.283 307.948C169.238 307.149 171.217 305.392 172.242 303.546C173.5 301.281 173.5 298.521 173.5 293L173.5 174.5L173.5 56Z"/>
</mask>
<path d="M173.5 56C173.5 50.4792 173.5 47.7187 172.242 45.4541C171.217 43.6079 169.238 41.8512 167.283 41.0523C164.885 40.0723 162.436 40.3651 157.538 40.9506C145.357 42.4064 133.408 45.5247 122.029 50.2382C105.711 56.9975 90.8836 66.9047 78.3941 79.3941C65.9046 91.8836 55.9975 106.711 49.2382 123.029C42.4789 139.347 39 156.837 39 174.5C39 192.163 42.4789 209.653 49.2382 225.971C55.9975 242.289 65.9047 257.116 78.3941 269.606C90.8836 282.095 105.711 292.003 122.029 298.762C133.408 303.475 145.357 306.594 157.538 308.049C162.436 308.635 164.885 308.928 167.283 307.948C169.238 307.149 171.217 305.392 172.242 303.546C173.5 301.281 173.5 298.521 173.5 293L173.5 174.5L173.5 56Z" stroke="#080708" stroke-width="6" mask="url(#path-2-inside-1)"/>
<mask id="path-3-inside-2" fill="white">
<path d="M194 76C194 70.5014 194 67.7521 192.714 65.4676C191.678 63.6274 189.621 61.838 187.656 61.066C185.216 60.1075 182.827 60.4405 178.051 61.1065C168.433 62.4475 159.003 64.9991 149.991 68.7158C136.039 74.47 123.361 82.904 112.683 93.5363C102.004 104.169 93.5331 116.791 87.7538 130.683C81.9746 144.575 79 159.464 79 174.5C79 189.536 81.9746 204.425 87.7539 218.317C93.5331 232.209 102.004 244.831 112.683 255.464C123.361 266.096 136.039 274.53 149.991 280.284C159.003 284.001 168.433 286.552 178.051 287.894C182.827 288.559 185.216 288.892 187.656 287.934C189.621 287.162 191.678 285.373 192.714 283.532C194 281.248 194 278.499 194 273L194 174.5L194 76Z"/>
</mask>
<path d="M194 76C194 70.5014 194 67.7521 192.714 65.4676C191.678 63.6274 189.621 61.838 187.656 61.066C185.216 60.1075 182.827 60.4405 178.051 61.1065C168.433 62.4475 159.003 64.9991 149.991 68.7158C136.039 74.47 123.361 82.904 112.683 93.5363C102.004 104.169 93.5331 116.791 87.7538 130.683C81.9746 144.575 79 159.464 79 174.5C79 189.536 81.9746 204.425 87.7539 218.317C93.5331 232.209 102.004 244.831 112.683 255.464C123.361 266.096 136.039 274.53 149.991 280.284C159.003 284.001 168.433 286.552 178.051 287.894C182.827 288.559 185.216 288.892 187.656 287.934C189.621 287.162 191.678 285.373 192.714 283.532C194 281.248 194 278.499 194 273L194 174.5L194 76Z" stroke="#080708" stroke-width="6" mask="url(#path-3-inside-2)"/>
<mask id="path-4-inside-3" fill="white">
<path d="M211.5 91C211.5 85.5299 211.5 82.7949 210.181 80.488C209.132 78.6548 206.988 76.83 205.01 76.0887C202.522 75.1558 200.204 75.5318 195.569 76.2837C187.986 77.5137 180.553 79.6205 173.423 82.574C161.351 87.5743 150.382 94.9035 141.143 104.143C131.903 113.382 124.574 124.351 119.574 136.423C114.574 148.495 112 161.433 112 174.5C112 187.567 114.574 200.505 119.574 212.577C124.574 224.649 131.903 235.618 141.143 244.857C150.382 254.097 161.351 261.426 173.423 266.426C180.553 269.379 187.986 271.486 195.569 272.716C200.204 273.468 202.522 273.844 205.01 272.911C206.988 272.17 209.132 270.345 210.181 268.512C211.5 266.205 211.5 263.47 211.5 258L211.5 174.5L211.5 91Z"/>
</mask>
<path d="M211.5 91C211.5 85.5299 211.5 82.7949 210.181 80.488C209.132 78.6548 206.988 76.83 205.01 76.0887C202.522 75.1558 200.204 75.5318 195.569 76.2837C187.986 77.5137 180.553 79.6205 173.423 82.574C161.351 87.5743 150.382 94.9035 141.143 104.143C131.903 113.382 124.574 124.351 119.574 136.423C114.574 148.495 112 161.433 112 174.5C112 187.567 114.574 200.505 119.574 212.577C124.574 224.649 131.903 235.618 141.143 244.857C150.382 254.097 161.351 261.426 173.423 266.426C180.553 269.379 187.986 271.486 195.569 272.716C200.204 273.468 202.522 273.844 205.01 272.911C206.988 272.17 209.132 270.345 210.181 268.512C211.5 266.205 211.5 263.47 211.5 258L211.5 174.5L211.5 91Z" stroke="#080708" stroke-width="6" mask="url(#path-4-inside-3)"/>
</svg>
