<svg width="350" height="350" viewBox="0 0 350 350" fill="none" xmlns="http://www.w3.org/2000/svg">
<path d="M328.5 233C328.5 238 324.74 243.133 317.01 248.085C309.349 252.993 298.164 257.469 284.209 261.251C256.321 268.808 217.709 273.5 175 273.5C132.291 273.5 93.6793 268.808 65.7908 261.251C51.8356 257.469 40.6507 252.993 32.9898 248.085C25.2596 243.133 21.5 238 21.5 233C21.5 228 25.2596 222.867 32.9898 217.915C40.6507 213.007 51.8356 208.531 65.7908 204.749C93.6793 197.192 132.291 192.5 175 192.5C217.709 192.5 256.321 197.192 284.209 204.749C298.164 208.531 309.349 213.007 317.01 217.915C324.74 222.867 328.5 228 328.5 233Z" stroke="#080708" stroke-width="3"/>
<path d="M311.5 207C311.5 211.305 308.237 215.78 301.389 220.136C294.614 224.447 284.71 228.385 272.337 231.714C247.615 238.367 213.377 242.5 175.5 242.5C137.623 242.5 103.385 238.367 78.6626 231.714C66.2904 228.385 56.3863 224.447 49.6106 220.136C42.7631 215.78 39.5 211.305 39.5 207C39.5 202.695 42.7631 198.22 49.6106 193.864C56.3863 189.553 66.2904 185.615 78.6626 182.286C103.385 175.633 137.623 171.5 175.5 171.5C213.377 171.5 247.615 175.633 272.337 182.286C284.71 185.615 294.614 189.553 301.389 193.864C308.237 198.22 311.5 202.695 311.5 207Z" stroke="#080708" stroke-width="3"/>
<path d="M283.5 182C283.5 185.192 281.046 188.615 275.636 192.018C270.301 195.374 262.483 198.451 252.689 201.057C233.122 206.262 206.008 209.5 176 209.5C145.992 209.5 118.878 206.262 99.311 201.057C89.5167 198.451 81.6985 195.374 76.3644 192.018C70.9545 188.615 68.5 185.192 68.5 182C68.5 178.808 70.9545 175.385 76.3644 171.982C81.6985 168.626 89.5167 165.549 99.311 162.943C118.878 157.738 145.992 154.5 176 154.5C206.008 154.5 233.122 157.738 252.689 162.943C262.483 165.549 270.301 168.626 275.636 171.982C281.046 175.385 283.5 178.808 283.5 182Z" stroke="#080708" stroke-width="3"/>
<path d="M243.034 99.7845C246.87 102.493 248.329 103.576 249.235 105.828C249.546 106.603 249.736 107.758 249.736 109C249.736 110.242 249.546 111.397 249.235 112.172C248.329 114.424 246.87 115.507 243.034 118.216C228.521 128.465 203.431 142.5 175 142.5C146.569 142.5 121.479 128.465 106.966 118.216C103.13 115.507 101.671 114.424 100.765 112.172C100.454 111.397 100.264 110.242 100.264 109C100.264 107.758 100.454 106.603 100.765 105.828C101.671 103.576 103.13 102.493 106.966 99.7845C121.479 89.5355 146.569 75.5 175 75.5C203.431 75.5 228.521 89.5355 243.034 99.7845Z" stroke="#080708" stroke-width="3"/>
<path d="M205.5 99.0004C205.5 115.845 191.845 129.5 175 129.5C158.155 129.5 144.5 115.845 144.5 99.0004C144.5 91.0211 147.562 83.7602 152.578 78.3236C156.081 77.3361 166.324 75.5 175 75.5C183.836 75.5 188.548 76.4391 197.462 78.3671C202.454 83.7989 205.5 91.0424 205.5 99.0004Z" stroke="#080708" stroke-width="3"/>
<circle cx="175" cy="99" r="14" fill="#9CF50B"/>
</svg>
