<svg width="700" height="700" viewBox="0 0 700 700" fill="none" xmlns="http://www.w3.org/2000/svg">
<path d="M353.031 56.2468L694.369 647.25C695.717 649.583 694.033 652.5 691.338 652.5H8.66179C5.96726 652.5 4.28335 649.583 5.63099 647.25L346.969 56.2469C348.316 53.9141 351.684 53.9141 353.031 56.2468Z" stroke="black" stroke-width="3" stroke-linecap="round"/>
<path d="M353.026 156.19L580.336 547.241C581.692 549.574 580.009 552.5 577.31 552.5H122.69C119.991 552.5 118.308 549.574 119.664 547.241L346.974 156.19C348.323 153.869 351.677 153.869 353.026 156.19Z" stroke="black" stroke-width="3" stroke-linecap="round"/>
<path d="M353.028 256.21L460.347 441.244C461.701 443.577 460.017 446.5 457.32 446.5H242.68C239.983 446.5 238.299 443.577 239.653 441.244L346.972 256.21C348.321 253.884 351.679 253.884 353.028 256.21Z" stroke="black" stroke-width="3" stroke-linecap="round"/>
<path d="M353.031 318.248L508.37 587.25C509.717 589.583 508.033 592.5 505.339 592.5H194.661C191.967 592.5 190.283 589.583 191.63 587.25L346.969 318.248C348.316 315.915 351.684 315.915 353.031 318.248Z" stroke="black" stroke-width="3" stroke-linecap="round"/>
<path d="M345.67 389.498C347.595 386.165 352.405 386.165 354.33 389.498L427.669 516.5C429.594 519.833 427.188 524 423.339 524H276.661C272.812 524 270.406 519.833 272.331 516.5L345.67 389.498Z" fill="#DF2935"/>
</svg>
