<svg width="1895" height="1894" viewBox="0 0 1895 1894" fill="none" xmlns="http://www.w3.org/2000/svg">
<path d="M748.445 1890.06C738.519 1887.89 729.531 1884.04 721.502 1878.51C713.474 1872.99 706.973 1866.42 702.02 1858.77C697.068 1851.13 693.687 1842.5 691.919 1832.88C690.152 1823.27 690.349 1813.51 692.53 1803.61C694.276 1795.67 697.133 1788.34 701.082 1781.62C705.031 1774.9 709.831 1769.14 715.503 1764.29C721.153 1759.46 727.371 1755.52 734.134 1752.5C740.897 1749.48 748.183 1747.63 756.015 1746.95C763.847 1746.28 771.745 1746.82 779.708 1748.56C792.906 1751.46 804.316 1757.18 813.937 1765.7C823.558 1774.23 830.278 1784.62 834.074 1796.87C837.87 1809.11 838.328 1821.81 835.426 1834.97C832.525 1848.13 826.765 1859.46 818.148 1868.99C809.53 1878.49 799.059 1885.1 786.733 1888.82C774.406 1892.56 761.644 1892.98 748.445 1890.06ZM726.214 1844.22C732.541 1854.35 741.878 1860.77 754.226 1863.49C766.574 1866.2 777.788 1864.29 787.867 1857.77C797.946 1851.24 804.382 1841.58 807.218 1828.82C810.032 1816.05 808.243 1804.59 801.873 1794.45C795.481 1784.3 786.122 1777.88 773.774 1775.16C761.426 1772.44 750.256 1774.36 740.242 1780.9C730.229 1787.45 723.815 1797.11 721 1809.87C718.121 1822.62 719.888 1834.08 726.214 1844.22Z" stroke="#FAFFFD" stroke-width="3"/>
<path d="M582.555 1682.27L674.38 1722.12L630.333 1823.03L604.022 1811.61L637.096 1735.84L597.892 1718.83L564.819 1794.61L538.508 1783.17L582.555 1682.27Z" stroke="#FAFFFD" stroke-width="3"/>
<path d="M445.659 1696.34L478.361 1716.66L522.211 1646.52L546.58 1661.65L488.2 1755.04L431.129 1719.59L445.659 1696.34Z" stroke="#FAFFFD" stroke-width="3"/>
<path d="M277.456 1591.53C270.955 1584.84 266.744 1577.05 264.846 1568.2C262.948 1559.35 263.624 1550.26 266.853 1540.92C270.082 1531.59 275.689 1523.07 283.674 1515.37C295.781 1503.69 309.089 1497.58 323.575 1497.06C338.061 1496.53 350.322 1501.45 360.379 1511.8C370.807 1522.55 374.581 1534.97 371.68 1549.06L415.967 1506.34L435.929 1526.9L323.423 1635.42L303.461 1614.87L314.849 1603.89C300.45 1606.48 287.971 1602.37 277.456 1591.53ZM301.672 1577.35C307.344 1583.2 314.063 1586.1 321.83 1586.03C329.597 1585.97 336.687 1582.84 343.144 1576.61C349.58 1570.39 352.962 1563.43 353.289 1555.69C353.616 1547.97 350.976 1541.23 345.391 1535.47C339.719 1529.62 332.978 1526.7 325.168 1526.72C317.358 1526.74 310.246 1529.85 303.788 1536.07C297.352 1542.29 293.993 1549.28 293.731 1557.06C293.447 1564.83 296.087 1571.59 301.672 1577.35Z" stroke="#FAFFFD" stroke-width="3"/>
<path d="M195.122 1440.73L217.44 1472.05L285.004 1424.18L301.628 1447.49L211.637 1511.24L172.695 1456.6L195.122 1440.73Z" stroke="#FAFFFD" stroke-width="3"/>
<path d="M153.453 1398.19C138.618 1393.18 127.601 1383.57 120.38 1369.35C113.159 1355.12 111.937 1340.57 116.671 1325.7C121.427 1310.82 131.135 1299.68 145.817 1292.27C160.5 1284.87 175.247 1283.63 190.061 1288.57C204.874 1293.51 215.913 1303.16 223.178 1317.5C230.464 1331.85 231.708 1346.42 226.93 1361.23C222.152 1376.04 212.422 1387.16 197.74 1394.57C183.036 1401.99 168.288 1403.19 153.453 1398.19ZM144.77 1357.14C148.392 1364.28 153.955 1369.04 161.438 1371.39C168.921 1373.74 176.665 1372.89 184.672 1368.87C192.679 1364.84 197.936 1359.12 200.489 1351.71C203.019 1344.29 202.496 1337.03 198.853 1329.87C195.166 1322.61 189.602 1317.82 182.141 1315.54C174.68 1313.25 166.957 1314.12 158.951 1318.15C150.944 1322.17 145.665 1327.87 143.09 1335.22C140.538 1342.57 141.105 1349.88 144.77 1357.14Z" stroke="#FAFFFD" stroke-width="3"/>
<path d="M151.01 1129.52L159.147 1156.97L144.334 1161.34C158.078 1165.77 167.066 1175.15 171.32 1189.48C175.422 1203.29 173.677 1216.36 166.106 1228.67C158.536 1241 146.668 1249.53 130.502 1254.31C114.337 1259.1 99.7198 1258.36 86.6301 1252.14C73.5404 1245.92 64.9666 1235.96 60.9088 1222.28C56.611 1207.84 59.1635 1194.98 68.5008 1183.72L10.9498 1200.7L2.81232 1173.26L151.01 1129.52ZM85.212 1208.21C87.4809 1215.88 92.0841 1221.52 99.0216 1225.11C105.959 1228.69 113.704 1229.22 122.299 1226.69C130.895 1224.15 137.113 1219.49 140.974 1212.73C144.836 1205.97 145.621 1198.75 143.33 1191.07C141.018 1183.26 136.393 1177.61 129.499 1174.08C122.583 1170.56 114.838 1170.06 106.243 1172.6C100.592 1174.28 95.9237 1176.93 92.1932 1180.61C88.4626 1184.28 85.9974 1188.52 84.7757 1193.33C83.5321 1198.11 83.6849 1203.07 85.212 1208.21Z" stroke="#FAFFFD" stroke-width="3"/>
<path d="M132.291 990.41L143.374 1089.65L33.6605 1101.83L30.4753 1073.38L112.853 1064.23L108.119 1021.86L25.7412 1031.02L22.556 1002.57L132.291 990.41Z" stroke="#FAFFFD" stroke-width="3"/>
<path d="M21.6396 891.147C22.4686 877.032 27.5518 864.961 36.8455 854.957C46.161 844.952 58.0726 839.363 72.624 838.232L70.8787 867.593C64.5084 868.681 59.3598 871.53 55.3892 876.097C51.4405 880.686 49.2589 886.167 48.888 892.561C48.408 900.826 50.8078 907.699 56.1091 913.223C61.4105 918.747 68.5444 921.77 77.489 922.292C86.4336 922.814 93.8729 920.617 99.8069 915.68C105.719 910.743 108.926 904.284 109.406 896.302C109.799 889.777 108.25 884.014 104.803 878.99C101.356 873.966 96.6 870.551 90.5351 868.724L92.2804 839.363C106.461 842.212 117.609 849.106 125.725 860.068C133.862 871.029 137.505 883.579 136.654 897.694C135.695 913.94 129.411 927.164 117.805 937.364C106.221 947.565 92.1931 952.197 75.7655 951.219C64.9447 950.588 55.3019 947.543 46.8591 942.106C38.3944 936.668 31.9368 929.469 27.4209 920.509C22.9486 911.613 21.0069 901.804 21.6396 891.147Z" stroke="#FAFFFD" stroke-width="3"/>
<path d="M44.4375 745.798L52.2477 710.02L78.7325 715.762L70.9223 751.539L125.834 763.436L133.644 727.659L160.129 733.401L146.232 797.147L64.8356 779.509L60.7778 798.083L34.293 792.341L38.3508 773.767L14.6148 768.612L20.7015 740.643L44.4375 745.798Z" stroke="#FAFFFD" stroke-width="3"/>
<path d="M118.373 588.204L98.5853 640.641L116.06 647.187L135.847 594.75L200.27 618.913L170.382 698.124L148.959 690.098L168.746 637.661L148.828 630.201L129.041 682.638L67.0609 659.389L96.9491 580.178L118.373 588.204Z" stroke="#FAFFFD" stroke-width="3"/>
<path d="M236.769 304.356C243.554 296.809 251.342 290.915 260.112 286.652C268.882 282.389 277.827 279.997 286.946 279.453C296.065 278.909 305.25 280.236 314.522 283.411C323.793 286.587 332.214 291.567 339.785 298.331C345.871 303.768 350.867 309.836 354.772 316.579C358.699 323.299 361.383 330.324 362.823 337.61C364.262 344.896 364.633 352.226 363.957 359.577C363.259 366.928 361.295 374.17 358.045 381.304C354.772 388.416 350.431 395.006 344.977 401.074C335.945 411.1 325.364 418.212 313.169 422.367C300.996 426.521 288.604 427.238 276.038 424.52C263.472 421.801 252.171 415.95 242.092 406.946C232.035 397.964 224.966 387.372 220.887 375.236C216.807 363.078 216.174 350.747 219.01 338.219C221.825 325.67 227.759 314.404 236.769 304.356ZM287.753 307.618C275.798 308.118 265.588 313.077 257.145 322.451C248.702 331.847 244.863 342.504 245.604 354.466C246.346 366.428 251.604 376.759 261.377 385.48C271.151 394.201 282.015 398.29 294.036 397.725C306.035 397.159 316.267 392.2 324.71 382.805C333.153 373.409 336.97 362.774 336.185 350.855C335.4 338.959 330.12 328.628 320.346 319.906C310.595 311.207 299.73 307.118 287.753 307.618Z" stroke="#FAFFFD" stroke-width="3"/>
<path d="M499.741 262.25L419.916 322.56L353.246 234.846L376.109 217.555L426.177 283.411L460.254 257.661L410.186 191.804L433.049 174.514L499.741 262.25Z" stroke="#FAFFFD" stroke-width="3"/>
<path d="M554.391 136.322L520.619 154.809L560.521 227.233L535.367 241L482.223 144.543L541.148 112.267L554.391 136.322Z" stroke="#FAFFFD" stroke-width="3"/>
<path d="M728.571 41.5174C737.625 39.1685 746.482 39.3425 755.165 42.0394C763.826 44.758 771.44 49.8038 778.006 57.1768C784.573 64.5715 789.263 73.6191 792.078 84.3197C796.332 100.588 795.132 115.138 788.478 127.97C781.802 140.802 771.483 149.045 757.499 152.677C742.991 156.462 730.294 153.634 719.386 144.195L734.963 203.635L707.191 210.856L667.638 59.8519L695.41 52.6312L699.424 67.9208C704.224 54.1319 713.932 45.3235 728.571 41.5174ZM729.051 69.5085C721.153 71.5747 715.328 75.968 711.576 82.7537C707.824 89.5177 707.06 97.2387 709.329 105.873C711.598 114.529 716.027 120.88 722.615 124.947C729.204 129.014 736.403 130.036 744.169 128.014C752.067 125.969 757.935 121.532 761.753 114.747C765.571 107.961 766.356 100.24 764.088 91.6056C761.819 82.9495 757.368 76.5987 750.692 72.5534C744.038 68.5081 736.839 67.4859 729.051 69.5085Z" stroke="#FAFFFD" stroke-width="3"/>
<path d="M900.918 44.236L862.587 48.1944L871.118 130.384L842.56 133.32L831.216 23.8571L898.104 16.9626L900.918 44.236Z" stroke="#FAFFFD" stroke-width="3"/>
<path d="M958.47 29.0118C970.119 18.5939 983.929 13.7221 999.899 14.4399C1015.87 15.1576 1029.2 21.2256 1039.87 32.6439C1050.53 44.0622 1055.51 57.9816 1054.77 74.3587C1054.02 90.7358 1047.87 104.155 1036.29 114.595C1024.7 125.034 1010.85 129.884 994.75 129.166C978.65 128.449 965.276 122.381 954.674 110.962C944.071 99.5442 939.141 85.6247 939.86 69.2476C940.624 52.8488 946.82 39.4513 958.47 29.0118ZM998.59 41.6263C990.561 41.2783 983.689 43.7577 977.951 49.1079C972.214 54.4582 969.16 61.6137 968.745 70.5308C968.352 79.4697 970.752 86.8427 975.988 92.6932C981.224 98.5437 987.834 101.632 995.863 102.002C1004.02 102.372 1010.92 99.8704 1016.59 94.5201C1022.26 89.1698 1025.29 82.0144 1025.69 73.0972C1026.08 64.1801 1023.7 56.7854 1018.55 50.9566C1013.4 45.1279 1006.75 41.996 998.59 41.6263Z" stroke="#FAFFFD" stroke-width="3"/>
<path d="M1194.52 158.55L1166.53 152.199L1169.96 137.17C1159.35 146.936 1146.74 150.176 1132.13 146.849C1118.03 143.651 1107.45 135.735 1100.38 123.12C1093.32 110.506 1091.66 95.999 1095.39 79.6219C1099.12 63.2231 1106.93 50.8696 1118.77 42.5614C1130.62 34.2315 1143.54 31.6651 1157.5 34.8187C1172.25 38.1681 1182.24 46.6503 1187.5 60.3087L1200.85 1.97754L1228.84 8.32828L1194.52 158.55ZM1157.93 62.8316C1150.1 61.0482 1142.93 62.2879 1136.4 66.5725C1129.88 70.857 1125.6 77.3166 1123.62 86.038C1121.63 94.7594 1122.66 102.437 1126.69 109.092C1130.73 115.747 1136.66 119.967 1144.5 121.75C1152.46 123.555 1159.66 122.316 1166.14 118.053C1172.6 113.768 1176.83 107.287 1178.81 98.5655C1180.12 92.8454 1180.08 87.4734 1178.68 82.4276C1177.29 77.3818 1174.8 73.1625 1171.18 69.7479C1167.56 66.3115 1163.15 64.0061 1157.93 62.8316Z" stroke="#FAFFFD" stroke-width="3"/>
<path d="M1325.35 210.421L1233.16 171.425L1276.27 70.1176L1302.69 81.2967L1270.31 157.375L1309.67 174.013L1342.04 97.9348L1368.46 109.114L1325.35 210.421Z" stroke="#FAFFFD" stroke-width="3"/>
<path d="M1466.39 163.16C1478.31 170.838 1486.33 181.169 1490.5 194.174C1494.65 207.18 1493.66 220.273 1487.49 233.453L1462.71 217.49C1464.89 211.422 1464.95 205.549 1462.9 199.873C1460.85 194.196 1457.12 189.607 1451.73 186.127C1444.77 181.647 1437.57 180.342 1430.14 182.212C1422.7 184.083 1416.54 188.781 1411.68 196.306C1406.81 203.809 1405.07 211.356 1406.46 218.903C1407.86 226.472 1411.92 232.431 1418.66 236.759C1424.16 240.304 1429.96 241.805 1436.05 241.283C1442.13 240.761 1447.46 238.304 1452.04 233.954L1476.82 249.918C1467.38 260.814 1455.83 267.099 1442.26 268.752C1428.67 270.405 1415.93 267.404 1404.02 259.726C1390.3 250.896 1381.86 238.934 1378.65 223.84C1375.44 208.746 1378.3 194.327 1387.24 180.538C1393.13 171.468 1400.53 164.596 1409.43 159.941C1418.33 155.287 1427.82 153.199 1437.84 153.699C1447.89 154.2 1457.41 157.353 1466.39 163.16Z" stroke="#FAFFFD" stroke-width="3"/>
<path d="M1582.08 254.441L1609.51 278.8L1591.47 298.962L1564.04 274.603L1526.65 316.426L1554.07 340.785L1536.03 360.947L1487.21 317.536L1542.64 255.551L1528.42 242.893L1546.46 222.731L1560.68 235.389L1576.85 217.316L1598.27 236.368L1582.08 254.441Z" stroke="#FAFFFD" stroke-width="3"/>
<path d="M1683.49 395.985L1647.34 353.096L1633.05 365.058L1669.2 407.947L1616.49 452.098L1561.88 387.285L1579.4 372.605L1615.55 415.516L1631.85 401.879L1595.7 358.968L1646.42 316.492L1701.03 381.304L1683.49 395.985Z" stroke="#FAFFFD" stroke-width="3"/>
<path d="M1873.79 637.944C1877.06 647.535 1878.39 657.192 1877.82 666.892C1877.24 676.592 1874.95 685.531 1870.95 693.731C1866.96 701.908 1861.29 709.259 1853.96 715.741C1846.63 722.244 1838.14 727.116 1828.52 730.378C1820.8 732.988 1813.03 734.358 1805.22 734.467C1797.41 734.576 1789.97 733.466 1782.9 731.139C1775.81 728.812 1769.25 725.55 1763.14 721.352C1757.05 717.154 1751.68 711.891 1747.06 705.562C1742.43 699.233 1738.81 692.23 1736.19 684.509C1731.85 671.742 1730.85 659.063 1733.18 646.426C1735.52 633.812 1740.97 622.698 1749.5 613.128C1758.03 603.537 1768.7 596.599 1781.51 592.271C1794.31 587.943 1807.01 586.986 1819.64 589.4C1832.25 591.814 1843.36 597.338 1852.93 605.929C1862.49 614.499 1869.45 625.177 1873.79 637.944ZM1845.95 680.638C1851.36 670.002 1852.06 658.715 1847.98 646.774C1843.92 634.834 1836.48 626.265 1825.66 621.045C1814.84 615.825 1803.21 615.325 1790.8 619.523C1778.39 623.72 1769.46 631.18 1764.08 641.881C1758.67 652.581 1758.01 663.891 1762.07 675.831C1766.13 687.771 1773.57 696.319 1784.36 701.473C1795.16 706.628 1806.77 707.106 1819.18 702.909C1831.6 698.689 1840.52 691.273 1845.95 680.638Z" stroke="#FAFFFD" stroke-width="3"/>
<path d="M1781.31 886.993L1767.96 788.035L1877.37 773.354L1881.18 801.715L1799.02 812.742L1804.72 854.978L1886.88 843.952L1890.7 872.312L1781.31 886.993Z" stroke="#FAFFFD" stroke-width="3"/>
<path d="M1864.23 996.543L1864.87 958.135L1781.99 956.786L1782.44 928.186L1892.81 929.969L1891.72 997L1864.23 996.543Z" stroke="#FAFFFD" stroke-width="3"/>
<path d="M1862.01 1194.13C1859.63 1203.16 1855.14 1210.77 1848.53 1216.99C1841.92 1223.19 1833.78 1227.35 1824.09 1229.43C1814.41 1231.52 1804.2 1231.17 1793.46 1228.37C1777.14 1224.1 1765.01 1215.95 1757.05 1203.86C1749.09 1191.79 1746.95 1178.78 1750.59 1164.84C1754.39 1150.38 1763.09 1140.72 1776.69 1135.87L1717.08 1120.3L1724.35 1092.61L1875.8 1132.17L1868.53 1159.86L1853.19 1155.86C1862.9 1166.8 1865.85 1179.56 1862.01 1194.13ZM1837.29 1180.85C1839.36 1172.97 1838.36 1165.75 1834.28 1159.16C1830.2 1152.57 1823.83 1148.16 1815.15 1145.89C1806.46 1143.63 1798.74 1144.37 1791.96 1148.11C1785.17 1151.85 1780.74 1157.6 1778.71 1165.34C1776.64 1173.21 1777.65 1180.48 1781.7 1187.11C1785.76 1193.76 1792.13 1198.2 1800.81 1200.49C1809.47 1202.75 1817.22 1201.99 1824.05 1198.18C1830.83 1194.37 1835.24 1188.59 1837.29 1180.85Z" stroke="#FAFFFD" stroke-width="3"/>
<path d="M1775.2 1342.57L1790.54 1307.32L1714.49 1274.43L1725.92 1248.18L1827.19 1291.96L1800.44 1353.45L1775.2 1342.57Z" stroke="#FAFFFD" stroke-width="3"/>
<path d="M1760.17 1400.19C1763.55 1415.43 1760.98 1429.81 1752.51 1443.31C1744.03 1456.82 1732.18 1465.39 1716.95 1469.04C1701.72 1472.68 1687.13 1470.15 1673.19 1461.43C1659.25 1452.71 1650.57 1440.77 1647.16 1425.59C1643.76 1410.41 1646.33 1395.99 1654.88 1382.37C1663.44 1368.74 1675.3 1360.15 1690.51 1356.56C1705.69 1352.97 1720.27 1355.53 1734.23 1364.23C1748.13 1372.98 1756.79 1384.94 1760.17 1400.19ZM1729.41 1428.81C1733.66 1422.02 1734.86 1414.82 1733.03 1407.21C1731.18 1399.6 1726.44 1393.42 1718.85 1388.68C1711.26 1383.94 1703.62 1382.39 1695.94 1384.07C1688.26 1385.72 1682.31 1389.96 1678.03 1396.75C1673.71 1403.64 1672.49 1410.86 1674.37 1418.43C1676.26 1425.98 1681 1432.14 1688.59 1436.88C1696.18 1441.62 1703.82 1443.18 1711.45 1441.57C1719.11 1439.94 1725.09 1435.7 1729.41 1428.81Z" stroke="#FAFFFD" stroke-width="3"/>
<path d="M1530.9 1541.29L1550.21 1520.13L1561.64 1530.51C1558.33 1516.5 1561.71 1503.97 1571.79 1492.92C1581.52 1482.27 1593.63 1476.96 1608.11 1477.05C1622.6 1477.11 1636.1 1482.81 1648.56 1494.12C1661.02 1505.43 1668 1518.26 1669.44 1532.66C1670.88 1547.04 1666.8 1559.5 1657.15 1570.07C1646.99 1581.23 1634.64 1585.73 1620.15 1583.57L1664.55 1623.81L1645.24 1644.97L1530.9 1541.29ZM1632.5 1556.58C1637.91 1550.67 1640.36 1543.82 1639.83 1536.05C1639.33 1528.29 1635.75 1521.39 1629.12 1515.39C1622.49 1509.39 1615.27 1506.5 1607.46 1506.71C1599.65 1506.95 1593.06 1510.02 1587.65 1515.93C1582.15 1521.96 1579.69 1528.83 1580.25 1536.53C1580.82 1544.25 1584.4 1551.1 1591.03 1557.13C1595.39 1561.06 1600.11 1563.67 1605.19 1564.96C1610.27 1566.22 1615.18 1566.13 1619.96 1564.67C1624.74 1563.24 1628.9 1560.54 1632.5 1556.58Z" stroke="#FAFFFD" stroke-width="3"/>
<path d="M1421.36 1629.64L1500.62 1568.59L1568.1 1655.67L1545.39 1673.16L1494.71 1607.76L1460.87 1633.82L1511.55 1699.21L1488.84 1716.7L1421.36 1629.64Z" stroke="#FAFFFD" stroke-width="3"/>
<path d="M1393.72 1775.4C1381.18 1782.01 1368.2 1783.93 1354.8 1781.19C1341.39 1778.45 1330.44 1771.16 1321.91 1759.35L1348 1745.61C1352.23 1750.46 1357.33 1753.39 1363.31 1754.39C1369.29 1755.39 1375.12 1754.39 1380.81 1751.41C1388.14 1747.54 1392.81 1741.93 1394.79 1734.54C1396.78 1727.14 1395.69 1719.51 1391.5 1711.61C1387.31 1703.72 1381.57 1698.52 1374.26 1696.02C1366.96 1693.52 1359.76 1694.15 1352.67 1697.89C1346.86 1700.93 1342.72 1705.24 1340.21 1710.79C1337.7 1716.33 1337.24 1722.16 1338.81 1728.27L1312.72 1742.02C1307.81 1728.47 1307.94 1715.37 1313.16 1702.76C1318.35 1690.15 1327.23 1680.53 1339.77 1673.92C1354.22 1666.33 1368.81 1664.81 1383.58 1669.42C1398.35 1674.01 1409.58 1683.56 1417.26 1698.08C1422.33 1707.63 1424.7 1717.42 1424.42 1727.47C1424.14 1737.49 1421.32 1746.76 1415.98 1755.22C1410.59 1763.7 1403.19 1770.42 1393.72 1775.4Z" stroke="#FAFFFD" stroke-width="3"/>
<path d="M1257.15 1831.28L1222.4 1843.15L1213.63 1817.6L1248.38 1805.72L1230.17 1752.72L1195.41 1764.59L1186.64 1739.04L1248.54 1717.9L1275.52 1796.45L1293.57 1790.3L1302.34 1815.86L1284.29 1822.01L1292.17 1844.91L1265.01 1854.18L1257.15 1831.28Z" stroke="#FAFFFD" stroke-width="3"/>
<path d="M1083.52 1849.78L1138.76 1839.52L1135.33 1821.23L1080.09 1831.49L1067.48 1764.03L1150.95 1748.52L1155.14 1770.94L1099.9 1781.21L1103.81 1802.07L1159.05 1791.8L1171.18 1856.72L1087.71 1872.23L1083.52 1849.78Z" stroke="#FAFFFD" stroke-width="3"/>
</svg>
