<svg width="16" height="16" viewBox="0 0 16 16" fill="none" xmlns="http://www.w3.org/2000/svg">
<path fill-rule="evenodd" clip-rule="evenodd" d="M6.26873 4.25414e-07H9.73254C10.3862 -1.1718e-05 10.9268 -2.17001e-05 11.3623 0.0391794C11.8123 0.0796912 12.2344 0.167346 12.6178 0.397765C13.1983 0.746711 13.6403 1.29705 13.8653 1.95097C14.0138 2.38277 14.0194 2.82766 13.9749 3.29222C13.932 3.74175 13.8323 4.29078 13.7119 4.95467L13.3907 6.72486C13.3052 7.19611 13.2332 7.59258 13.15 7.91578C13.0626 8.2552 12.9501 8.56857 12.7576 8.85866C12.4592 9.30846 12.0453 9.66339 11.5625 9.88359C11.2511 10.0256 10.9322 10.0822 10.5933 10.1084C10.2705 10.1334 9.8802 10.1333 9.41622 10.1333H6.58505C6.12107 10.1333 5.73072 10.1334 5.40797 10.1084C5.06902 10.0822 4.75021 10.0256 4.43881 9.88359C3.95598 9.66339 3.54211 9.30846 3.24369 8.85866C3.05122 8.56857 2.93864 8.2552 2.85125 7.91578C2.76804 7.59258 2.69611 7.19612 2.61061 6.72487L2.2894 4.95464C2.16892 4.29076 2.06929 3.74175 2.02632 3.29222C1.98192 2.82766 1.9875 2.38277 2.13602 1.95097C2.36094 1.29705 2.80294 0.746711 3.38348 0.397765C3.76683 0.167346 4.18896 0.0796912 4.63902 0.0391794C5.07451 -2.17001e-05 5.61508 -1.1718e-05 6.26873 4.25414e-07ZM4.77339 1.63314C4.42001 1.66495 4.25995 1.72194 4.16202 1.7808C3.89814 1.93941 3.69723 2.18957 3.59499 2.48681C3.55705 2.59712 3.53234 2.77018 3.56721 3.13494C3.60276 3.50682 3.68919 3.98704 3.81764 4.69494L4.12732 6.40161C4.21933 6.9087 4.28103 7.24593 4.34759 7.50442C4.41163 7.75317 4.46708 7.87302 4.52077 7.95394C4.65641 8.15839 4.84454 8.31972 5.064 8.41982C5.15087 8.45943 5.27508 8.49366 5.52349 8.51286C5.78162 8.53282 6.11375 8.53333 6.61304 8.53333H9.38823C9.88752 8.53333 10.2196 8.53282 10.4778 8.51286C10.7262 8.49366 10.8504 8.45943 10.9373 8.41982C11.1567 8.31972 11.3449 8.15839 11.4805 7.95394C11.5342 7.87302 11.5896 7.75317 11.6537 7.50442C11.7202 7.24593 11.7819 6.9087 11.8739 6.40161L12.1836 4.69494C12.3121 3.98704 12.3985 3.50682 12.4341 3.13494C12.4689 2.77018 12.4442 2.59712 12.4063 2.48681C12.304 2.18957 12.1031 1.93941 11.8392 1.7808C11.7413 1.72194 11.5813 1.66495 11.2279 1.63314C10.8676 1.60071 10.3949 1.6 9.69791 1.6H6.30336C5.60636 1.6 5.13366 1.60071 4.77339 1.63314Z" fill="black"/>
<path fill-rule="evenodd" clip-rule="evenodd" d="M0 13.6C0 12.2745 1.03985 11.2 2.32258 11.2H13.6774C14.9601 11.2 16 12.2745 16 13.6C16 14.9255 14.9601 16 13.6774 16H2.32258C1.03985 16 0 14.9255 0 13.6ZM2.32258 12.8C1.89501 12.8 1.54839 13.1582 1.54839 13.6C1.54839 14.0418 1.89501 14.4 2.32258 14.4H13.6774C14.105 14.4 14.4516 14.0418 14.4516 13.6C14.4516 13.1582 14.105 12.8 13.6774 12.8H2.32258Z" fill="black"/>
</svg>
