<svg width="16" height="16" viewBox="0 0 16 16" fill="none" xmlns="http://www.w3.org/2000/svg">
<path fill-rule="evenodd" clip-rule="evenodd" d="M8.18001 1.79442C7.99105 1.74885 7.79429 1.74885 7.60533 1.79442C7.42232 1.83856 7.233 1.95202 6.55029 2.40864L3.75029 4.28134C3.18213 4.66134 3.03424 4.76974 2.93153 4.89588C2.82559 5.02598 2.74603 5.1763 2.6975 5.33808C2.65044 5.49493 2.64267 5.68066 2.64267 6.37421V11.6237C2.64267 12.2083 2.64325 12.6006 2.66743 12.9027C2.69089 13.1959 2.73277 13.3361 2.77891 13.4286C2.89875 13.6688 3.08998 13.8641 3.32518 13.9864C3.41574 14.0335 3.55302 14.0763 3.84015 14.1003C4.13603 14.125 4.52024 14.1256 5.09267 14.1256H10.6927C11.2651 14.1256 11.6493 14.125 11.9452 14.1003C12.2323 14.0763 12.3696 14.0335 12.4602 13.9864C12.6954 13.8641 12.8866 13.6688 13.0064 13.4286C13.0526 13.3361 13.0945 13.1959 13.1179 12.9027C13.1421 12.6006 13.1427 12.2083 13.1427 11.6237V6.37421C13.1427 5.68066 13.1349 5.49493 13.0878 5.33808C13.0393 5.1763 12.9598 5.02599 12.8538 4.89588C12.7511 4.76974 12.6032 4.66134 12.035 4.28134L9.23504 2.40863C8.55234 1.95202 8.36301 1.83856 8.18001 1.79442ZM7.26052 0.303715C7.67623 0.203449 8.1091 0.203449 8.52481 0.303715C8.99817 0.417884 9.42147 0.701533 9.96081 1.06294C9.99243 1.08413 10.0245 1.10558 10.0569 1.12729L12.8569 2.99999C12.8836 3.01788 12.9101 3.03551 12.9361 3.05294C13.3875 3.3543 13.7423 3.59121 14.0072 3.91657C14.2402 4.2028 14.4153 4.53348 14.522 4.8894C14.6434 5.29398 14.6431 5.72687 14.6427 6.27751C14.6427 6.30935 14.6427 6.34157 14.6427 6.37421V11.6548C14.6427 12.2003 14.6427 12.6555 14.6129 13.0275C14.5819 13.4154 14.5148 13.7796 14.3429 14.124C14.0793 14.6524 13.6586 15.082 13.1411 15.3512C12.8039 15.5267 12.4472 15.5952 12.0673 15.6269C11.7031 15.6573 11.2573 15.6573 10.7231 15.6573H5.06222C4.52807 15.6573 4.08223 15.6573 3.718 15.6269C3.33811 15.5952 2.98146 15.5267 2.64419 15.3512C2.12675 15.082 1.70605 14.6524 1.4424 14.124C1.27056 13.7796 1.20345 13.4154 1.17241 13.0275C1.14265 12.6555 1.14266 12.2003 1.14267 11.6548L1.14267 6.37421C1.14267 6.34157 1.14265 6.30934 1.14262 6.27751C1.14223 5.72687 1.14191 5.29398 1.26329 4.8894C1.37007 4.53348 1.54509 4.2028 1.77815 3.91657C2.04308 3.59121 2.39788 3.3543 2.84919 3.05294C2.87528 3.03551 2.90169 3.01788 2.92843 2.99999L5.72843 1.12729C5.76088 1.10558 5.7929 1.08413 5.82453 1.06294C6.36387 0.701533 6.78717 0.417884 7.26052 0.303715Z" fill="black"/>
</svg>
