<svg width="130" height="130" viewBox="0 0 130 130" fill="none" xmlns="http://www.w3.org/2000/svg">
<path d="M108.5 61C108.5 63.2733 107.47 65.552 105.377 67.7508C103.277 69.9574 100.168 72.0127 96.2106 73.7714C88.3001 77.2872 77.2668 79.5 65 79.5C52.7332 79.5 41.6999 77.2872 33.7894 73.7714C29.8323 72.0127 26.7228 69.9574 24.6229 67.7508C22.5304 65.552 21.5 63.2733 21.5 61C21.5 58.7266 22.5304 56.448 24.6229 54.2492C26.7228 52.0426 29.8323 49.9873 33.7894 48.2286C41.6999 44.7128 52.7332 42.5 65 42.5C77.2668 42.5 88.3001 44.7128 96.2106 48.2286C100.168 49.9873 103.277 52.0426 105.377 54.2492C107.47 56.448 108.5 58.7266 108.5 61Z" fill="#FAFFFD" stroke="black" stroke-width="3"/>
<path d="M66.0607 14.9393C65.4749 14.3536 64.5251 14.3536 63.9393 14.9393L54.3934 24.4853C53.8076 25.0711 53.8076 26.0208 54.3934 26.6066C54.9792 27.1924 55.9289 27.1924 56.5147 26.6066L65 18.1213L73.4853 26.6066C74.0711 27.1924 75.0208 27.1924 75.6066 26.6066C76.1924 26.0208 76.1924 25.0711 75.6066 24.4853L66.0607 14.9393ZM110.382 87.4506C111.183 87.2398 111.661 86.4194 111.451 85.6183L108.015 72.5628C107.804 71.7616 106.984 71.2831 106.183 71.4939C105.381 71.7047 104.903 72.5251 105.114 73.3262L108.168 84.9311L96.5628 87.985C95.7616 88.1959 95.2831 89.0163 95.4939 89.8174C95.7047 90.6186 96.5251 91.0971 97.3262 90.8863L110.382 87.4506ZM18.5494 85.6183C18.3386 86.4194 18.8171 87.2398 19.6183 87.4506L32.6738 90.8863C33.4749 91.0971 34.2953 90.6186 34.5061 89.8174C34.7169 89.0163 34.2384 88.1959 33.4372 87.985L21.8324 84.9311L24.8863 73.3262C25.0971 72.5251 24.6186 71.7047 23.8174 71.4939C23.0162 71.2831 22.1959 71.7616 21.985 72.5628L18.5494 85.6183ZM63.5 18.7344C63.5 19.5628 64.1716 20.2344 65 20.2344C65.8284 20.2344 66.5 19.5628 66.5 18.7344H63.5ZM66.5 24.2031C66.5 23.3747 65.8284 22.7031 65 22.7031C64.1716 22.7031 63.5 23.3747 63.5 24.2031H66.5ZM63.5 29.6719C63.5 30.5003 64.1716 31.1719 65 31.1719C65.8284 31.1719 66.5 30.5003 66.5 29.6719H63.5ZM66.5 35.1406C66.5 34.3122 65.8284 33.6406 65 33.6406C64.1716 33.6406 63.5 34.3122 63.5 35.1406H66.5ZM63.5 40.6094C63.5 41.4378 64.1716 42.1094 65 42.1094C65.8284 42.1094 66.5 41.4378 66.5 40.6094H63.5ZM66.5 46.0781C66.5 45.2497 65.8284 44.5781 65 44.5781C64.1716 44.5781 63.5 45.2497 63.5 46.0781H66.5ZM63.5 51.5469C63.5 52.3753 64.1716 53.0469 65 53.0469C65.8284 53.0469 66.5 52.3753 66.5 51.5469H63.5ZM66.5 57.0156C66.5 56.1872 65.8284 55.5156 65 55.5156C64.1716 55.5156 63.5 56.1872 63.5 57.0156H66.5ZM67.0567 62.6863C67.7723 63.1037 68.6907 62.862 69.1082 62.1464C69.5256 61.4309 69.2839 60.5124 68.5683 60.095L67.0567 62.6863ZM74.1933 63.3762C73.4777 62.9588 72.5593 63.2005 72.1418 63.9161C71.7244 64.6316 71.9661 65.5501 72.6817 65.9675L74.1933 63.3762ZM78.3067 69.2488C79.0223 69.6662 79.9408 69.4245 80.3582 68.7089C80.7756 67.9934 80.5339 67.0749 79.8183 66.6575L78.3067 69.2488ZM85.4433 69.9387C84.7277 69.5213 83.8093 69.763 83.3918 70.4786C82.9744 71.1941 83.2161 72.1126 83.9317 72.53L85.4433 69.9387ZM89.5567 75.8113C90.2723 76.2287 91.1908 75.987 91.6082 75.2714C92.0256 74.5559 91.7839 73.6374 91.0683 73.22L89.5567 75.8113ZM96.6933 76.5012C95.9777 76.0838 95.0593 76.3255 94.6418 77.0411C94.2244 77.7566 94.4661 78.6751 95.1817 79.0925L96.6933 76.5012ZM100.807 82.3738C101.522 82.7912 102.441 82.5495 102.858 81.8339C103.276 81.1184 103.034 80.1999 102.318 79.7825L100.807 82.3738ZM107.943 83.0637C107.228 82.6463 106.309 82.888 105.892 83.6036C105.474 84.3192 105.716 85.2376 106.432 85.655L107.943 83.0637ZM23.5683 85.655C24.2839 85.2376 24.5256 84.3191 24.1082 83.6036C23.6907 82.888 22.7723 82.6463 22.0567 83.0637L23.5683 85.655ZM27.6817 79.7825C26.9661 80.1999 26.7244 81.1184 27.1418 81.8339C27.5593 82.5495 28.4777 82.7912 29.1933 82.3738L27.6817 79.7825ZM34.8183 79.0925C35.5339 78.6751 35.7756 77.7566 35.3582 77.0411C34.9407 76.3255 34.0223 76.0838 33.3067 76.5012L34.8183 79.0925ZM38.9317 73.22C38.2161 73.6374 37.9744 74.5559 38.3918 75.2714C38.8093 75.987 39.7277 76.2287 40.4433 75.8113L38.9317 73.22ZM46.0683 72.53C46.7839 72.1126 47.0256 71.1941 46.6082 70.4786C46.1907 69.763 45.2723 69.5213 44.5567 69.9387L46.0683 72.53ZM50.1817 66.6575C49.4661 67.0749 49.2244 67.9934 49.6418 68.7089C50.0593 69.4245 50.9777 69.6662 51.6933 69.2488L50.1817 66.6575ZM57.3183 65.9675C58.0339 65.5501 58.2756 64.6316 57.8582 63.9161C57.4408 63.2005 56.5223 62.9588 55.8067 63.3762L57.3183 65.9675ZM61.4317 60.095C60.7161 60.5124 60.4744 61.4309 60.8918 62.1464C61.3093 62.862 62.2277 63.1037 62.9433 62.6863L61.4317 60.095ZM63.5 16V18.7344H66.5V16H63.5ZM63.5 24.2031V29.6719H66.5V24.2031H63.5ZM63.5 35.1406V40.6094H66.5V35.1406H63.5ZM63.5 46.0781V51.5469H66.5V46.0781H63.5ZM63.5 57.0156V59.75H66.5V57.0156H63.5ZM64.2442 61.0457L67.0567 62.6863L68.5683 60.095L65.7558 58.4543L64.2442 61.0457ZM72.6817 65.9675L78.3067 69.2488L79.8183 66.6575L74.1933 63.3762L72.6817 65.9675ZM83.9317 72.53L89.5567 75.8113L91.0683 73.22L85.4433 69.9387L83.9317 72.53ZM95.1817 79.0925L100.807 82.3738L102.318 79.7825L96.6933 76.5012L95.1817 79.0925ZM106.432 85.655L109.244 87.2957L110.756 84.7043L107.943 83.0637L106.432 85.655ZM20.7558 87.2957L23.5683 85.655L22.0567 83.0637L19.2442 84.7043L20.7558 87.2957ZM29.1933 82.3738L34.8183 79.0925L33.3067 76.5012L27.6817 79.7825L29.1933 82.3738ZM40.4433 75.8113L46.0683 72.53L44.5567 69.9387L38.9317 73.22L40.4433 75.8113ZM51.6933 69.2488L57.3183 65.9675L55.8067 63.3762L50.1817 66.6575L51.6933 69.2488ZM62.9433 62.6863L65.7558 61.0457L64.2442 58.4543L61.4317 60.095L62.9433 62.6863Z" fill="black"/>
</svg>
