<svg width="130" height="130" viewBox="0 0 130 130" fill="none" xmlns="http://www.w3.org/2000/svg">
<path d="M108.5 74C108.5 76.2733 107.47 78.552 105.377 80.7508C103.277 82.9574 100.168 85.0127 96.2106 86.7714C88.3001 90.2872 77.2668 92.5 65 92.5C52.7332 92.5 41.6999 90.2872 33.7894 86.7714C29.8323 85.0127 26.7228 82.9574 24.6229 80.7508C22.5304 78.552 21.5 76.2733 21.5 74C21.5 71.7266 22.5304 69.448 24.6229 67.2492C26.7228 65.0426 29.8323 62.9873 33.7894 61.2286C41.6999 57.7128 52.7332 55.5 65 55.5C77.2668 55.5 88.3001 57.7128 96.2106 61.2286C100.168 62.9873 103.277 65.0426 105.377 67.2492C107.47 69.448 108.5 71.7266 108.5 74Z" fill="#FAFFFD" stroke="black" stroke-width="3"/>
<path d="M66.0607 77.0607C66.6464 76.4749 66.6464 75.5251 66.0607 74.9393L56.5147 65.3934C55.9289 64.8076 54.9792 64.8076 54.3934 65.3934C53.8076 65.9792 53.8076 66.9289 54.3934 67.5147L62.8787 76L54.3934 84.4853C53.8076 85.0711 53.8076 86.0208 54.3934 86.6066C54.9792 87.1924 55.9289 87.1924 56.5147 86.6066L66.0607 77.0607ZM21.5 56C21.5 55.1716 20.8284 54.5 20 54.5C19.1716 54.5 18.5 55.1716 18.5 56H21.5ZM63.9393 34.9393C63.3536 35.5251 63.3536 36.4749 63.9393 37.0607L73.4853 46.6066C74.0711 47.1924 75.0208 47.1924 75.6066 46.6066C76.1924 46.0208 76.1924 45.0711 75.6066 44.4853L67.1213 36L75.6066 27.5147C76.1924 26.9289 76.1924 25.9792 75.6066 25.3934C75.0208 24.8076 74.0711 24.8076 73.4853 25.3934L63.9393 34.9393ZM108.5 56C108.5 56.8284 109.172 57.5 110 57.5C110.828 57.5 111.5 56.8284 111.5 56H108.5ZM65 74.5C52.7332 74.5 41.6999 72.2872 33.7894 68.7714C29.8323 67.0127 26.7228 64.9574 24.6229 62.7508C22.5304 60.552 21.5 58.2734 21.5 56H18.5C18.5 59.2495 19.988 62.2322 22.4497 64.819C24.9041 67.398 28.3847 69.6523 32.571 71.5129C40.9473 75.2357 52.414 77.5 65 77.5V74.5ZM65 37.5C77.2668 37.5 88.3001 39.7128 96.2106 43.2286C100.168 44.9873 103.277 47.0426 105.377 49.2492C107.47 51.448 108.5 53.7266 108.5 56H111.5C111.5 52.7505 110.012 49.7678 107.55 47.181C105.096 44.602 101.615 42.3477 97.429 40.4871C89.0527 36.7643 77.586 34.5 65 34.5V37.5Z" fill="black"/>
<path d="M29.7268 40.7514C29.7268 42.4082 28.3837 43.7514 26.7268 43.7514H21.4088C20.6308 43.7514 20 43.1206 20 42.3425C20 41.5645 20.6308 40.9337 21.4088 40.9337H25.1888C26.0527 40.9337 26.753 40.2334 26.753 39.3695C26.753 38.5056 26.0527 37.8052 25.1888 37.8052H21.8838C21.1057 37.8052 20.475 37.1745 20.475 36.3964C20.475 35.6183 21.1057 34.9876 21.8838 34.9876H25.2924C26.0991 34.9876 26.753 34.3336 26.753 33.5269C26.753 32.7202 26.0991 32.0663 25.2924 32.0663H21.4088C20.6308 32.0663 20 31.4355 20 30.6575C20 29.8794 20.6308 29.2486 21.4088 29.2486H26.7268C28.3837 29.2486 29.7268 30.5918 29.7268 32.2486V40.7514Z" fill="black"/>
<path d="M38.5182 32.0145C37.7637 33.2174 38.6284 34.7804 40.0483 34.7804H40.6924C41.8868 34.7804 42.855 35.7486 42.855 36.9429V40.7514C42.855 42.4082 41.5118 43.7514 39.855 43.7514H35.426C33.7692 43.7514 32.426 42.4082 32.426 40.7514V37.4015C32.426 36.8525 32.5767 36.314 32.8616 35.8447L36.4488 29.936C36.7079 29.5092 37.1709 29.2486 37.6702 29.2486C38.7934 29.2486 39.4774 30.485 38.8806 31.4366L38.5182 32.0145ZM37.047 37.5981C36.1259 37.5981 35.3792 38.3448 35.3792 39.2659C35.3792 40.187 36.1259 40.9337 37.047 40.9337H38.234C39.1551 40.9337 39.9018 40.187 39.9018 39.2659C39.9018 38.3448 39.1551 37.5981 38.234 37.5981H37.047Z" fill="black"/>
<path d="M52.4622 29C53.5086 29 54.493 29.1934 55.4154 29.5801C56.3516 29.953 57.1501 30.471 57.811 31.134C58.4856 31.797 59.0156 32.5981 59.4011 33.5373C59.8004 34.4627 60 35.4503 60 36.5C60 37.3425 59.8761 38.1506 59.6283 38.924C59.3805 39.6837 59.0225 40.3743 58.5544 40.9959C58.1001 41.6036 57.5631 42.1354 56.9436 42.5912C56.3378 43.047 55.6494 43.3992 54.8785 43.6478C54.1075 43.8826 53.3021 44 52.4622 44C51.0717 44 49.7982 43.6754 48.6417 43.0262C47.4852 42.3771 46.5766 41.4793 45.9157 40.3329C45.2687 39.1727 44.9451 37.895 44.9451 36.5C44.9451 35.105 45.2687 33.8343 45.9157 32.6878C46.5766 31.5276 47.4852 30.6229 48.6417 29.9738C49.7982 29.3246 51.0717 29 52.4622 29ZM55.7045 33.1436C54.8509 32.2597 53.7702 31.8177 52.4622 31.8177C51.1681 31.8177 50.0873 32.2597 49.22 33.1436C48.3526 34.0276 47.9189 35.1464 47.9189 36.5C47.9189 37.8536 48.3526 38.9724 49.22 39.8564C50.0873 40.7403 51.1681 41.1823 52.4622 41.1823C53.7702 41.1823 54.8509 40.7403 55.7045 39.8564C56.5719 38.9724 57.0056 37.8536 57.0056 36.5C57.0056 35.1464 56.5719 34.0276 55.7045 33.1436Z" fill="black"/>
</svg>
