<svg width="402" height="422" viewBox="0 0 402 422" fill="none" xmlns="http://www.w3.org/2000/svg">
<g filter="url(#filter0_d)">
<path d="M123.5 107L135 108.5L14.5 361L230 393.5L243 336.5" stroke="#9CF50B" stroke-width="10" stroke-linecap="round" stroke-linejoin="round"/>
</g>
<g filter="url(#filter1_d)">
<path d="M220.373 268.342C232.869 255.886 253.131 255.886 265.627 268.342C278.124 280.797 278.124 300.992 265.627 313.447L243 336L220.373 313.447C207.876 300.992 207.876 280.797 220.373 268.342Z" fill="#FAFFFD"/>
</g>
<path fill-rule="evenodd" clip-rule="evenodd" d="M243.575 279.348C243.197 279.259 242.803 279.259 242.426 279.348C242.059 279.435 241.681 279.657 240.315 280.551L234.715 284.219C233.579 284.964 233.283 285.176 233.078 285.423C232.866 285.678 232.707 285.972 232.61 286.289C232.516 286.596 232.5 286.96 232.5 288.318V298.6C232.5 299.745 232.501 300.513 232.55 301.105C232.597 301.679 232.68 301.954 232.773 302.135C233.012 302.605 233.395 302.988 233.865 303.227C234.046 303.32 234.321 303.403 234.895 303.45C235.487 303.499 236.255 303.5 237.4 303.5H248.6C249.745 303.5 250.513 303.499 251.105 303.45C251.679 303.403 251.954 303.32 252.135 303.227C252.606 302.988 252.988 302.605 253.228 302.135C253.32 301.954 253.404 301.679 253.451 301.105C253.499 300.513 253.5 299.745 253.5 298.6V288.318C253.5 286.96 253.485 286.596 253.391 286.289C253.293 285.972 253.134 285.678 252.922 285.423C252.717 285.176 252.421 284.964 251.285 284.219L245.685 280.551C244.32 279.657 243.941 279.435 243.575 279.348ZM241.736 276.429C242.567 276.232 243.433 276.232 244.264 276.429C245.211 276.652 246.058 277.208 247.136 277.916C247.2 277.957 247.264 277.999 247.329 278.042L252.929 281.71C252.982 281.745 253.035 281.779 253.087 281.813C253.99 282.404 254.699 282.868 255.229 283.505C255.695 284.065 256.045 284.713 256.259 285.41C256.502 286.203 256.501 287.05 256.5 288.129C256.5 288.191 256.5 288.254 256.5 288.318V298.661C256.5 299.729 256.5 300.621 256.441 301.349C256.379 302.109 256.244 302.822 255.901 303.497C255.373 304.532 254.532 305.373 253.497 305.9C252.823 306.244 252.109 306.378 251.35 306.44C250.621 306.5 249.729 306.5 248.661 306.5H237.339C236.271 306.5 235.379 306.5 234.651 306.44C233.891 306.378 233.178 306.244 232.503 305.9C231.468 305.373 230.627 304.532 230.1 303.497C229.756 302.822 229.622 302.109 229.56 301.349C229.5 300.621 229.5 299.729 229.5 298.661L229.5 288.318C229.5 288.254 229.5 288.191 229.5 288.129C229.499 287.05 229.499 286.203 229.741 285.41C229.955 284.713 230.305 284.065 230.771 283.505C231.301 282.868 232.011 282.404 232.913 281.813C232.965 281.779 233.018 281.745 233.072 281.71L238.672 278.042C238.737 277.999 238.801 277.957 238.864 277.916C239.943 277.208 240.789 276.652 241.736 276.429Z" fill="black"/>
<g filter="url(#filter2_d)">
<path d="M101.373 39.3417C113.869 26.8861 134.131 26.8861 146.627 39.3417C159.124 51.7972 159.124 71.9917 146.627 84.4472L124 107L101.373 84.4472C88.8758 71.9917 88.8758 51.7972 101.373 39.3417Z" fill="#FAFFFD"/>
</g>
<path fill-rule="evenodd" clip-rule="evenodd" d="M120.644 45.5H127.356C128.622 45.5 129.669 45.5 130.513 45.5735C131.385 45.6494 132.203 45.8138 132.946 46.2458C134.071 46.9001 134.927 47.932 135.363 49.1581C135.65 49.9677 135.661 50.8019 135.575 51.6729C135.492 52.5158 135.299 53.5452 135.066 54.79L134.443 58.1091C134.278 58.9927 134.138 59.7361 133.977 60.3421C133.808 60.9785 133.589 61.5661 133.217 62.11C132.638 62.9534 131.837 63.6189 130.901 64.0317C130.298 64.298 129.68 64.4041 129.023 64.4533C128.398 64.5 127.642 64.5 126.743 64.5H121.257C120.358 64.5 119.602 64.5 118.977 64.4533C118.32 64.4041 117.702 64.298 117.099 64.0317C116.163 63.6189 115.362 62.9534 114.783 62.11C114.411 61.5661 114.192 60.9785 114.023 60.3421C113.862 59.7361 113.722 58.9927 113.557 58.1091L112.934 54.7899C112.701 53.5452 112.508 52.5158 112.425 51.6729C112.339 50.8019 112.35 49.9677 112.637 49.1581C113.073 47.932 113.929 46.9001 115.054 46.2458C115.797 45.8138 116.615 45.6494 117.487 45.5735C118.331 45.5 119.378 45.5 120.644 45.5ZM117.747 48.5621C117.063 48.6218 116.752 48.7286 116.563 48.839C116.051 49.1364 115.662 49.6054 115.464 50.1628C115.391 50.3696 115.343 50.6941 115.41 51.378C115.479 52.0753 115.647 52.9757 115.895 54.303L116.495 57.503C116.674 58.4538 116.793 59.0861 116.922 59.5708C117.046 60.0372 117.154 60.2619 117.258 60.4136C117.521 60.797 117.885 61.0995 118.31 61.2872C118.479 61.3614 118.719 61.4256 119.201 61.4616C119.701 61.499 120.344 61.5 121.312 61.5H126.688C127.656 61.5 128.299 61.499 128.799 61.4616C129.281 61.4256 129.521 61.3614 129.69 61.2872C130.115 61.0995 130.479 60.797 130.742 60.4136C130.846 60.2619 130.954 60.0372 131.078 59.5708C131.207 59.0861 131.326 58.4538 131.505 57.503L132.105 54.303C132.353 52.9757 132.521 52.0753 132.59 51.378C132.657 50.6941 132.609 50.3696 132.536 50.1628C132.338 49.6054 131.949 49.1364 131.437 48.839C131.248 48.7286 130.937 48.6218 130.253 48.5621C129.555 48.5013 128.639 48.5 127.288 48.5H120.712C119.361 48.5 118.445 48.5013 117.747 48.5621Z" fill="black"/>
<path fill-rule="evenodd" clip-rule="evenodd" d="M108.5 71C108.5 68.5147 110.515 66.5 113 66.5H135C137.485 66.5 139.5 68.5147 139.5 71C139.5 73.4853 137.485 75.5 135 75.5H113C110.515 75.5 108.5 73.4853 108.5 71ZM113 69.5C112.172 69.5 111.5 70.1716 111.5 71C111.5 71.8284 112.172 72.5 113 72.5H135C135.828 72.5 136.5 71.8284 136.5 71C136.5 70.1716 135.828 69.5 135 69.5H113Z" fill="black"/>
<defs>
<filter id="filter0_d" x="0.5" y="101" width="262.501" height="320.501" filterUnits="userSpaceOnUse" color-interpolation-filters="sRGB">
<feFlood flood-opacity="0" result="BackgroundImageFix"/>
<feColorMatrix in="SourceAlpha" type="matrix" values="0 0 0 0 0 0 0 0 0 0 0 0 0 0 0 0 0 0 127 0" result="hardAlpha"/>
<feOffset dx="3" dy="11"/>
<feGaussianBlur stdDeviation="6"/>
<feComposite in2="hardAlpha" operator="out"/>
<feColorMatrix type="matrix" values="0 0 0 0 0.611765 0 0 0 0 0.960784 0 0 0 0 0.0431373 0 0 0 0.8 0"/>
<feBlend mode="normal" in2="BackgroundImageFix" result="effect1_dropShadow"/>
<feBlend mode="normal" in="SourceGraphic" in2="effect1_dropShadow" result="shape"/>
</filter>
<filter id="filter1_d" x="181" y="229" width="124" height="137" filterUnits="userSpaceOnUse" color-interpolation-filters="sRGB">
<feFlood flood-opacity="0" result="BackgroundImageFix"/>
<feColorMatrix in="SourceAlpha" type="matrix" values="0 0 0 0 0 0 0 0 0 0 0 0 0 0 0 0 0 0 127 0" result="hardAlpha"/>
<feOffset/>
<feGaussianBlur stdDeviation="15"/>
<feComposite in2="hardAlpha" operator="out"/>
<feColorMatrix type="matrix" values="0 0 0 0 0.611765 0 0 0 0 0.960784 0 0 0 0 0.0431373 0 0 0 0.5 0"/>
<feBlend mode="normal" in2="BackgroundImageFix" result="effect1_dropShadow"/>
<feBlend mode="normal" in="SourceGraphic" in2="effect1_dropShadow" result="shape"/>
</filter>
<filter id="filter2_d" x="62" y="0" width="124" height="137" filterUnits="userSpaceOnUse" color-interpolation-filters="sRGB">
<feFlood flood-opacity="0" result="BackgroundImageFix"/>
<feColorMatrix in="SourceAlpha" type="matrix" values="0 0 0 0 0 0 0 0 0 0 0 0 0 0 0 0 0 0 127 0" result="hardAlpha"/>
<feOffset/>
<feGaussianBlur stdDeviation="15"/>
<feComposite in2="hardAlpha" operator="out"/>
<feColorMatrix type="matrix" values="0 0 0 0 0.611765 0 0 0 0 0.960784 0 0 0 0 0.0431373 0 0 0 0.5 0"/>
<feBlend mode="normal" in2="BackgroundImageFix" result="effect1_dropShadow"/>
<feBlend mode="normal" in="SourceGraphic" in2="effect1_dropShadow" result="shape"/>
</filter>
</defs>
</svg>
