<svg width="31" height="35" viewBox="0 0 31 35" fill="none" xmlns="http://www.w3.org/2000/svg">
<path d="M24 10.5718C27.938 12.8454 29.9069 13.9822 30.5677 15.4663C31.1441 16.7609 31.1441 18.2391 30.5677 19.5337C29.9069 21.0178 27.938 22.1546 24 24.4282L12.75 30.9234C8.81203 33.197 6.84305 34.3338 5.22736 34.164C3.81808 34.0158 2.53783 33.2767 1.70491 32.1303C0.749998 30.8159 0.749998 28.5424 0.749999 23.9952L0.749999 11.0048C0.749999 6.45764 0.75 4.18406 1.70491 2.86973C2.53783 1.72332 3.81808 0.984168 5.22736 0.836046C6.84306 0.666229 8.81204 1.80302 12.75 4.07661L24 10.5718Z" fill="#080708"/>
</svg>
