<svg width="150" height="150" viewBox="0 0 150 150" fill="none" xmlns="http://www.w3.org/2000/svg">
<path d="M60.4181 44.2885C65.0465 34.0399 67.3607 28.9156 70.5727 27.3297C73.3634 25.9517 76.6366 25.9517 79.4273 27.3297C82.6393 28.9156 84.9535 34.0399 89.5819 44.2886L106.8 82.4146C110.197 89.9354 111.895 93.6958 111.36 96.7342C110.892 99.3892 109.373 101.743 107.145 103.262C104.597 105 100.47 105 92.2182 105H57.7818C49.5296 105 45.4035 105 42.8546 103.262C40.6273 101.743 39.1077 99.3892 38.6401 96.7342C38.1051 93.6958 39.8034 89.9354 43.1999 82.4146L60.4181 44.2885Z" stroke="#080708" stroke-width="3"/>
<path d="M59.8409 49.8943C64.4666 36.1951 66.7795 29.3455 70.2228 27.473C73.2016 25.8532 76.7984 25.8532 79.7772 27.473C83.2206 29.3455 85.5334 36.1951 90.1591 49.8943L93.869 60.8813C96.2754 68.0079 97.4786 71.5711 96.7742 74.409C96.1577 76.8929 94.6122 79.046 92.456 80.4248C89.9926 82 86.2317 82 78.7099 82L71.2901 82C63.7683 82 60.0074 82 57.544 80.4248C55.3878 79.046 53.8423 76.8929 53.2258 74.409C52.5214 71.5711 53.7246 68.0078 56.131 60.8813L59.8409 49.8943Z" stroke="#080708" stroke-width="3"/>
<path d="M61.1239 41.1712C65.6741 33.2451 67.9492 29.282 70.9236 27.9542C73.5178 26.7961 76.4822 26.7961 79.0764 27.9542C82.0508 29.282 84.3259 33.2451 88.8761 41.1712L123.242 101.034C127.758 108.902 130.017 112.836 129.672 116.062C129.371 118.877 127.892 121.432 125.6 123.095C122.974 125 118.438 125 109.366 125H40.6342C31.5623 125 27.0263 125 24.3995 123.095C22.1082 121.432 20.6287 118.877 20.328 116.062C19.9832 112.836 22.2416 108.902 26.7582 101.034L61.1239 41.1712Z" stroke="#080708" stroke-width="3"/>
<path d="M67.8036 49.1826C69.5577 40.607 70.4347 36.3193 71.6774 35.2142C73.5721 33.5294 76.4279 33.5294 78.3225 35.2142C79.5653 36.3193 80.4423 40.607 82.1964 49.1826C82.7212 51.7483 82.9837 53.0312 82.7597 54.0618C82.4204 55.6234 81.355 56.9287 79.8931 57.5741C78.9283 58 77.6189 58 75 58C72.3811 58 71.0717 58 70.1069 57.5741C68.645 56.9287 67.5796 55.6234 67.2403 54.0618C67.0163 53.0312 67.2788 51.7483 67.8036 49.1826Z" fill="#0EFBCA"/>
</svg>
