<svg width="124" height="137" viewBox="0 0 124 137" fill="none" xmlns="http://www.w3.org/2000/svg">
<g filter="url(#filter0_d)">
<path d="M39.3726 39.3417C51.8694 26.8861 72.1306 26.8861 84.6274 39.3417C97.1242 51.7972 97.1242 71.9917 84.6274 84.4472L62 107L39.3726 84.4472C26.8758 71.9917 26.8758 51.7972 39.3726 39.3417Z" fill="#FAFFFD"/>
</g>
<path fill-rule="evenodd" clip-rule="evenodd" d="M62.5749 50.3484C62.1969 50.2592 61.8034 50.2592 61.4255 50.3484C61.0595 50.4349 60.6808 50.6571 59.3154 51.5514L53.7154 55.2193C52.5791 55.9635 52.2833 56.1758 52.0779 56.4229C51.866 56.6777 51.7069 56.9721 51.6098 57.289C51.5157 57.5962 51.5002 57.9599 51.5002 59.3183V69.5999C51.5002 70.7447 51.5013 71.5132 51.5497 72.1049C51.5966 72.6792 51.6804 72.9537 51.7727 73.1349C52.0123 73.6053 52.3948 73.9877 52.8652 74.2274C53.0463 74.3197 53.3209 74.4035 53.8951 74.4504C54.4869 74.4987 55.2553 74.4999 56.4002 74.4999H67.6002C68.745 74.4999 69.5135 74.4987 70.1052 74.4504C70.6795 74.4035 70.954 74.3197 71.1352 74.2274C71.6056 73.9877 71.988 73.6053 72.2277 73.1349C72.32 72.9537 72.4037 72.6792 72.4507 72.1049C72.499 71.5132 72.5002 70.7447 72.5002 69.5999V59.3183C72.5002 57.9599 72.4846 57.5962 72.3905 57.289C72.2934 56.9721 72.1343 56.6777 71.9225 56.4229C71.717 56.1758 71.4213 55.9635 70.2849 55.2193L64.6849 51.5514C63.3195 50.6571 62.9409 50.4349 62.5749 50.3484ZM60.7359 47.4288C61.5673 47.2324 62.433 47.2324 63.2645 47.4288C64.2112 47.6524 65.0578 48.2079 66.1365 48.9158C66.1997 48.9573 66.2638 48.9993 66.3287 49.0418L71.9287 52.7096C71.9821 52.7447 72.035 52.7792 72.0871 52.8133C72.9898 53.4036 73.6994 53.8676 74.2292 54.5048C74.6953 55.0654 75.0454 55.7131 75.2589 56.4102C75.5017 57.2026 75.5011 58.0504 75.5003 59.1289C75.5002 59.1913 75.5002 59.2544 75.5002 59.3183V69.6608C75.5002 70.7291 75.5002 71.6208 75.4407 72.3492C75.3786 73.109 75.2444 73.8223 74.9007 74.4968C74.3734 75.5317 73.532 76.3731 72.4971 76.9004C71.8226 77.2441 71.1093 77.3783 70.3495 77.4404C69.6211 77.4999 68.7294 77.4999 67.6611 77.4999H56.3393C55.271 77.4999 54.3793 77.4999 53.6508 77.4404C52.8911 77.3783 52.1778 77.2441 51.5032 76.9004C50.4683 76.3731 49.6269 75.5317 49.0996 74.4968C48.756 73.8223 48.6217 73.109 48.5597 72.3492C48.5001 71.6208 48.5002 70.7291 48.5002 69.6608L48.5002 59.3183C48.5002 59.2544 48.5001 59.1912 48.5001 59.1289C48.4993 58.0504 48.4987 57.2026 48.7414 56.4102C48.955 55.7131 49.305 55.0654 49.7711 54.5048C50.301 53.8676 51.0106 53.4036 51.9132 52.8133C51.9654 52.7792 52.0182 52.7447 52.0717 52.7096L57.6717 49.0418C57.7366 48.9993 57.8007 48.9573 57.8639 48.9158C58.9426 48.2079 59.7892 47.6524 60.7359 47.4288Z" fill="black"/>
<defs>
<filter id="filter0_d" x="0" y="0" width="124" height="137" filterUnits="userSpaceOnUse" color-interpolation-filters="sRGB">
<feFlood flood-opacity="0" result="BackgroundImageFix"/>
<feColorMatrix in="SourceAlpha" type="matrix" values="0 0 0 0 0 0 0 0 0 0 0 0 0 0 0 0 0 0 127 0" result="hardAlpha"/>
<feOffset/>
<feGaussianBlur stdDeviation="15"/>
<feComposite in2="hardAlpha" operator="out"/>
<feColorMatrix type="matrix" values="0 0 0 0 0.611765 0 0 0 0 0.960784 0 0 0 0 0.0431373 0 0 0 0.5 0"/>
<feBlend mode="normal" in2="BackgroundImageFix" result="effect1_dropShadow"/>
<feBlend mode="normal" in="SourceGraphic" in2="effect1_dropShadow" result="shape"/>
</filter>
</defs>
</svg>
