<svg width="124" height="137" viewBox="0 0 124 137" fill="none" xmlns="http://www.w3.org/2000/svg">
<g filter="url(#filter0_d)">
<path d="M39.3726 39.3417C51.8694 26.8861 72.1306 26.8861 84.6274 39.3417C97.1242 51.7972 97.1242 71.9917 84.6274 84.4472L62 107L39.3726 84.4472C26.8758 71.9917 26.8758 51.7972 39.3726 39.3417Z" fill="#FAFFFD"/>
</g>
<path fill-rule="evenodd" clip-rule="evenodd" d="M59.0097 47.5H64.99C66.4578 47.5 67.6608 47.5 68.6169 47.5862C69.5949 47.6745 70.5125 47.8654 71.311 48.3819C72.504 49.1536 73.3521 50.357 73.6776 51.7401C73.8954 52.6658 73.7666 53.5941 73.5208 54.5449C73.2805 55.4743 72.8759 56.6071 72.3822 57.9894L71.1813 61.352C70.8759 62.2071 70.8012 62.4378 70.7708 62.6581C70.7395 62.8849 70.7395 63.1151 70.7708 63.342C70.8012 63.5622 70.8759 63.7929 71.1813 64.6481L72.3822 68.0106C72.8759 69.3929 73.2805 70.5257 73.5208 71.4551C73.7666 72.4059 73.8954 73.3342 73.6776 74.2599C73.3521 75.643 72.504 76.8464 71.311 77.6181C70.5125 78.1346 69.5949 78.3255 68.6169 78.4138C67.6608 78.5 66.4578 78.5 64.99 78.5H59.0098C57.5419 78.5 56.339 78.5 55.3828 78.4138C54.4048 78.3255 53.4872 78.1346 52.6887 77.6181C51.4957 76.8464 50.6476 75.643 50.3221 74.2599C50.1043 73.3342 50.2331 72.4059 50.479 71.4551C50.7193 70.5257 51.1239 69.3928 51.6176 68.0105L52.8185 64.6481C53.1239 63.7929 53.1985 63.5622 53.2289 63.342C53.2603 63.1151 53.2603 62.8849 53.2289 62.6581C53.1985 62.4378 53.1239 62.2071 52.8185 61.352L51.6176 57.9895C51.1239 56.6072 50.7193 55.4743 50.479 54.5449C50.2331 53.5941 50.1043 52.6658 50.3221 51.7401C50.6476 50.357 51.4957 49.1536 52.6887 48.3819C53.4872 47.8654 54.4048 47.6745 55.3828 47.5862C56.339 47.5 57.5419 47.5 59.0097 47.5ZM55.6525 50.5741C54.8538 50.6462 54.5112 50.776 54.3181 50.9009C53.7758 51.2516 53.3903 51.7987 53.2424 52.4273C53.1897 52.6512 53.1827 53.0175 53.3835 53.7939C53.5858 54.5765 53.9432 55.5815 54.467 57.0481L55.6437 60.3429C55.6579 60.3826 55.6719 60.4218 55.6858 60.4606C55.9301 61.1437 56.1226 61.6817 56.2007 62.2477C56.2697 62.7469 56.2697 63.2531 56.2007 63.7523C56.1226 64.3183 55.9301 64.8563 55.6858 65.5394C55.6719 65.5782 55.6579 65.6174 55.6437 65.6571L54.467 68.952C53.9432 70.4185 53.5858 71.4235 53.3835 72.2061C53.1827 72.9825 53.1897 73.3488 53.2424 73.5727C53.3903 74.2013 53.7758 74.7484 54.3181 75.0991C54.5112 75.224 54.8538 75.3538 55.6525 75.4259C56.4576 75.4986 57.5243 75.5 59.0815 75.5H64.9182C66.4755 75.5 67.5422 75.4986 68.3473 75.4259C69.146 75.3538 69.4886 75.224 69.6817 75.0991C70.2239 74.7484 70.6094 74.2013 70.7574 73.5727C70.8101 73.3488 70.8171 72.9825 70.6163 72.2061C70.4139 71.4235 70.0565 70.4185 69.5328 68.952L68.356 65.6571C68.3419 65.6174 68.3278 65.5781 68.314 65.5394C68.0696 64.8563 67.8772 64.3183 67.799 63.7523C67.7301 63.2531 67.7301 62.7469 67.799 62.2477C67.8772 61.6817 68.0696 61.1437 68.314 60.4606C68.3278 60.4218 68.3419 60.3826 68.356 60.3429L69.5328 57.048C70.0565 55.5815 70.4139 54.5765 70.6163 53.7939C70.8171 53.0175 70.8101 52.6512 70.7574 52.4273C70.6094 51.7987 70.2239 51.2516 69.6817 50.9009C69.4886 50.776 69.146 50.6462 68.3473 50.5741C67.5422 50.5014 66.4755 50.5 64.9182 50.5H59.0815C57.5243 50.5 56.4576 50.5014 55.6525 50.5741Z" fill="black"/>
<defs>
<filter id="filter0_d" x="0" y="0" width="124" height="137" filterUnits="userSpaceOnUse" color-interpolation-filters="sRGB">
<feFlood flood-opacity="0" result="BackgroundImageFix"/>
<feColorMatrix in="SourceAlpha" type="matrix" values="0 0 0 0 0 0 0 0 0 0 0 0 0 0 0 0 0 0 127 0" result="hardAlpha"/>
<feOffset/>
<feGaussianBlur stdDeviation="15"/>
<feComposite in2="hardAlpha" operator="out"/>
<feColorMatrix type="matrix" values="0 0 0 0 0.611765 0 0 0 0 0.960784 0 0 0 0 0.0431373 0 0 0 0.5 0"/>
<feBlend mode="normal" in2="BackgroundImageFix" result="effect1_dropShadow"/>
<feBlend mode="normal" in="SourceGraphic" in2="effect1_dropShadow" result="shape"/>
</filter>
</defs>
</svg>
