<svg width="124" height="137" viewBox="0 0 124 137" fill="none" xmlns="http://www.w3.org/2000/svg">
<g filter="url(#filter0_d)">
<path d="M39.3726 39.3417C51.8694 26.8861 72.1306 26.8861 84.6274 39.3417C97.1242 51.7972 97.1242 71.9917 84.6274 84.4472L62 107L39.3726 84.4472C26.8758 71.9917 26.8758 51.7972 39.3726 39.3417Z" fill="#FAFFFD"/>
</g>
<path fill-rule="evenodd" clip-rule="evenodd" d="M61.8535 45.5C61.9017 45.5001 61.9506 45.5001 62.0001 45.5001C62.0496 45.5001 62.0985 45.5001 62.1466 45.5C62.9321 45.4997 63.5381 45.4994 64.0731 45.6058C66.2549 46.0398 67.9604 47.7453 68.3944 49.9271C68.5008 50.4621 68.5005 51.0681 68.5001 51.8535C68.5001 51.9017 68.5001 51.9506 68.5001 52.0001V52.5001C68.5001 54.0048 68.5164 54.4246 68.6077 54.7258C68.8501 55.5248 69.4754 56.1501 70.2744 56.3924C70.5756 56.4838 70.9954 56.5001 72.5001 56.5001H73.0001C73.0496 56.5001 73.0985 56.5001 73.1466 56.5C73.9321 56.4997 74.5381 56.4994 75.0731 56.6058C77.2549 57.0398 78.9604 58.7453 79.3944 60.9271C79.5008 61.4621 79.5005 62.0681 79.5001 62.8535C79.5001 62.9017 79.5001 62.9505 79.5001 63.0001C79.5001 63.0496 79.5001 63.0985 79.5001 63.1467C79.5005 63.9321 79.5008 64.5381 79.3944 65.0731C78.9604 67.2549 77.2549 68.9604 75.0731 69.3944C74.5381 69.5008 73.9321 69.5005 73.1466 69.5001C73.0985 69.5001 73.0496 69.5001 73.0001 69.5001H72.5001C70.9954 69.5001 70.5756 69.5164 70.2744 69.6077C69.4754 69.8501 68.8501 70.4754 68.6077 71.2744C68.5164 71.5756 68.5001 71.9954 68.5001 73.5001V74.0001C68.5001 74.0496 68.5001 74.0985 68.5001 74.1466C68.5005 74.9321 68.5008 75.5381 68.3944 76.0731C67.9604 78.2549 66.2549 79.9604 64.0731 80.3944C63.5381 80.5008 62.9321 80.5005 62.1467 80.5001C62.0985 80.5001 62.0496 80.5001 62.0001 80.5001C61.9505 80.5001 61.9017 80.5001 61.8535 80.5001C61.0681 80.5005 60.4621 80.5008 59.9271 80.3944C57.7453 79.9604 56.0398 78.2549 55.6058 76.0731C55.4994 75.5381 55.4997 74.9321 55.5 74.1466C55.5001 74.0985 55.5001 74.0496 55.5001 74.0001V73.5001C55.5001 71.9954 55.4838 71.5756 55.3924 71.2744C55.1501 70.4754 54.5248 69.8501 53.7258 69.6077C53.4246 69.5164 53.0048 69.5001 51.5001 69.5001H51.0001C50.9506 69.5001 50.9017 69.5001 50.8535 69.5001C50.0681 69.5005 49.4621 69.5008 48.9271 69.3944C46.7453 68.9604 45.0398 67.2549 44.6058 65.0731C44.4994 64.5381 44.4997 63.9321 44.5 63.1466C44.5001 63.0985 44.5001 63.0496 44.5001 63.0001C44.5001 62.9506 44.5001 62.9017 44.5 62.8535C44.4997 62.0681 44.4994 61.4621 44.6058 60.9271C45.0398 58.7453 46.7453 57.0398 48.9271 56.6058C49.4621 56.4994 50.0681 56.4997 50.8535 56.5C50.9017 56.5001 50.9506 56.5001 51.0001 56.5001H51.5001C53.0048 56.5001 53.4246 56.4838 53.7258 56.3924C54.5248 56.1501 55.1501 55.5248 55.3924 54.7258C55.4838 54.4246 55.5001 54.0048 55.5001 52.5001V52.0001C55.5001 51.9506 55.5001 51.9017 55.5 51.8535C55.4997 51.0681 55.4994 50.4621 55.6058 49.9271C56.0398 47.7453 57.7453 46.0398 59.9271 45.6058C60.4621 45.4994 61.0681 45.4997 61.8535 45.5ZM62.0001 48.5001C60.9989 48.5001 60.7173 48.5074 60.5124 48.5481C59.5206 48.7454 58.7454 49.5206 58.5481 50.5124C58.5074 50.7173 58.5001 50.9989 58.5001 52.0001V52.5001C58.5001 52.5744 58.5001 52.6477 58.5002 52.72C58.5011 53.8988 58.5018 54.8105 58.2633 55.5967C57.73 57.3545 56.3545 58.73 54.5967 59.2633C53.8105 59.5018 52.8988 59.5011 51.72 59.5002C51.6477 59.5001 51.5744 59.5001 51.5001 59.5001H51.0001C49.9989 59.5001 49.7173 59.5074 49.5124 59.5481C48.5206 59.7454 47.7454 60.5206 47.5481 61.5124C47.5074 61.7173 47.5001 61.9989 47.5001 63.0001C47.5001 64.0013 47.5074 64.2828 47.5481 64.4878C47.7454 65.4795 48.5206 66.2548 49.5124 66.4521C49.7173 66.4928 49.9989 66.5001 51.0001 66.5001H51.5001C51.5744 66.5001 51.6477 66.5 51.72 66.5C52.8988 66.4991 53.8105 66.4984 54.5967 66.7369C56.3545 67.2701 57.73 68.6457 58.2633 70.4035C58.5018 71.1897 58.5011 72.1014 58.5002 73.2802C58.5001 73.3525 58.5001 73.4258 58.5001 73.5001V74.0001C58.5001 75.0013 58.5074 75.2828 58.5481 75.4878C58.7454 76.4795 59.5206 77.2548 60.5124 77.4521C60.7173 77.4928 60.9989 77.5001 62.0001 77.5001C63.0013 77.5001 63.2828 77.4928 63.4878 77.4521C64.4795 77.2548 65.2548 76.4795 65.4521 75.4878C65.4928 75.2828 65.5001 75.0013 65.5001 74.0001V73.5001C65.5001 73.4258 65.5 73.3525 65.5 73.2802C65.4991 72.1014 65.4984 71.1897 65.7369 70.4035C66.2701 68.6457 67.6457 67.2701 69.4035 66.7369C70.1897 66.4984 71.1014 66.4991 72.2802 66.5C72.3525 66.5 72.4258 66.5001 72.5001 66.5001H73.0001C74.0013 66.5001 74.2828 66.4928 74.4878 66.4521C75.4795 66.2548 76.2548 65.4795 76.4521 64.4878C76.4928 64.2828 76.5001 64.0013 76.5001 63.0001C76.5001 61.9989 76.4928 61.7173 76.4521 61.5124C76.2548 60.5206 75.4795 59.7454 74.4878 59.5481C74.2828 59.5074 74.0013 59.5001 73.0001 59.5001H72.5001C72.4258 59.5001 72.3525 59.5001 72.2802 59.5002C71.1014 59.5011 70.1897 59.5018 69.4035 59.2633C67.6457 58.73 66.2701 57.3545 65.7369 55.5967C65.4984 54.8105 65.4991 53.8988 65.5 52.72C65.5 52.6477 65.5001 52.5744 65.5001 52.5001V52.0001C65.5001 50.9989 65.4928 50.7173 65.4521 50.5124C65.2548 49.5206 64.4795 48.7454 63.4878 48.5481C63.2828 48.5074 63.0013 48.5001 62.0001 48.5001Z" fill="black"/>
<defs>
<filter id="filter0_d" x="0" y="0" width="124" height="137" filterUnits="userSpaceOnUse" color-interpolation-filters="sRGB">
<feFlood flood-opacity="0" result="BackgroundImageFix"/>
<feColorMatrix in="SourceAlpha" type="matrix" values="0 0 0 0 0 0 0 0 0 0 0 0 0 0 0 0 0 0 127 0" result="hardAlpha"/>
<feOffset/>
<feGaussianBlur stdDeviation="15"/>
<feComposite in2="hardAlpha" operator="out"/>
<feColorMatrix type="matrix" values="0 0 0 0 0.611765 0 0 0 0 0.960784 0 0 0 0 0.0431373 0 0 0 0.5 0"/>
<feBlend mode="normal" in2="BackgroundImageFix" result="effect1_dropShadow"/>
<feBlend mode="normal" in="SourceGraphic" in2="effect1_dropShadow" result="shape"/>
</filter>
</defs>
</svg>
