<svg width="350" height="350" viewBox="0 0 350 350" fill="none" xmlns="http://www.w3.org/2000/svg">
<path d="M122.826 126.963C125.4 118.365 126.687 114.066 129.237 110.879C131.489 108.066 134.426 105.879 137.767 104.529C141.552 103 146.039 103 155.014 103H194.986C203.961 103 208.448 103 212.233 104.529C215.574 105.879 218.512 108.066 220.763 110.879C223.313 114.066 224.6 118.365 227.174 126.963L257.055 226.763C261.442 241.418 263.636 248.745 262.044 254.553C260.65 259.639 257.392 264.014 252.92 266.809C247.813 270 240.164 270 224.866 270H125.134C109.836 270 102.187 270 97.0801 266.809C92.6076 264.014 89.3504 259.639 87.9559 254.553C86.3636 248.745 88.5575 241.418 92.9453 226.763L122.826 126.963Z" fill="#0EFBCA"/>
<rect x="21.5" y="261.5" width="307" height="17" rx="8.5" stroke="#080708" stroke-width="3"/>
<rect x="56.5" y="216.5" width="237" height="32" rx="16" stroke="#080708" stroke-width="3"/>
<rect x="76.5" y="151.5" width="197" height="52" rx="26" stroke="#080708" stroke-width="3"/>
<rect x="111.5" y="71.5" width="127" height="67" rx="33.5" stroke="#080708" stroke-width="3"/>
</svg>
