<svg width="860" height="440" viewBox="0 0 860 440" fill="none" xmlns="http://www.w3.org/2000/svg">
<rect x="61.5" y="61.5" width="477" height="317" rx="58.5" stroke="#080708" stroke-width="3"/>
<rect x="121.5" y="151.5" width="77" height="137" rx="18.5" stroke="#080708" stroke-width="3"/>
<rect x="581.5" y="61.5" width="217" height="317" rx="58.5" stroke="#080708" stroke-width="3"/>
<rect x="31" y="31" width="798" height="378" rx="79" stroke="#080708" stroke-width="2"/>
<rect x="0.5" y="0.5" width="859" height="439" rx="99.5" stroke="#080708"/>
<path d="M270 199.953C270 182.536 270 173.828 273.435 167.282C276.454 161.527 281.261 156.908 287.131 154.121C293.809 150.95 302.51 151.297 319.913 151.991L613.913 163.717C630.106 164.363 638.203 164.686 644.36 168.043C649.779 170.997 654.155 175.551 656.891 181.084C660 187.37 660 195.473 660 211.679V228.321C660 244.527 660 252.63 656.891 258.916C654.155 264.449 649.779 269.003 644.36 271.957C638.203 275.314 630.106 275.637 613.913 276.283L319.913 288.009C302.51 288.703 293.809 289.05 287.131 285.879C281.261 283.092 276.454 278.473 273.435 272.718C270 266.172 270 257.464 270 240.047V199.953Z" fill="#0EFBCA"/>
<path d="M91.5 156.424C91.5 144.833 91.5004 136.17 92.0688 129.314C92.6368 122.465 93.7692 117.465 96.0074 113.191C99.9701 105.623 106.279 99.5444 113.989 95.8655C118.343 93.7878 123.381 92.8419 130.247 92.5288C137.119 92.2155 145.776 92.5369 157.359 92.9676L659.359 111.632C670.191 112.035 678.284 112.336 684.701 113.093C691.111 113.849 695.804 115.056 699.842 117.247C706.997 121.131 712.778 127.13 716.393 134.425C718.432 138.541 719.464 143.276 719.982 149.71C720.5 156.15 720.5 164.249 720.5 175.088V264.912C720.5 275.751 720.5 283.85 719.982 290.29C719.464 296.724 718.432 301.459 716.393 305.575C712.778 312.87 706.997 318.869 699.842 322.753C695.804 324.944 691.111 326.151 684.701 326.907C678.284 327.664 670.191 327.965 659.359 328.368L157.359 347.032C145.776 347.463 137.119 347.785 130.247 347.471C123.381 347.158 118.343 346.212 113.989 344.134C106.279 340.456 99.9701 334.377 96.0074 326.809C93.7692 322.535 92.6368 317.535 92.0688 310.686C91.5004 303.83 91.5 295.167 91.5 283.576V156.424Z" stroke="#080708"/>
<path d="M231 169.917C231 161.198 231.001 154.719 231.426 149.601C231.849 144.494 232.69 140.833 234.317 137.73C237.234 132.169 241.876 127.704 247.547 125.008C250.712 123.503 254.403 122.807 259.522 122.583C264.653 122.359 271.127 122.612 279.84 122.953L643.84 137.211C651.958 137.529 657.987 137.766 662.76 138.338C667.52 138.909 670.945 139.805 673.869 141.397C679.111 144.252 683.345 148.655 685.992 154.005C687.469 156.989 688.23 160.446 688.614 165.225C688.999 170.016 689 176.05 689 184.175V255.825C689 263.95 688.999 269.984 688.614 274.775C688.23 279.554 687.469 283.011 685.992 285.995C683.345 291.345 679.111 295.748 673.869 298.603C670.945 300.195 667.52 301.091 662.76 301.662C657.988 302.234 651.958 302.471 643.84 302.789L279.84 317.047C271.127 317.388 264.653 317.641 259.522 317.417C254.403 317.193 250.712 316.497 247.547 314.992C241.876 312.296 237.234 307.831 234.317 302.27C232.69 299.167 231.849 295.506 231.426 290.399C231.001 285.281 231 278.802 231 270.083V169.917Z" stroke="#080708" stroke-width="2"/>
</svg>
