<svg width="130" height="130" viewBox="0 0 130 130" fill="none" xmlns="http://www.w3.org/2000/svg">
<path d="M62.6288 60.0579L61.7465 58.8448L62.6288 60.0579ZM60.5522 61.3072L60.9255 62.76L60.5522 61.3072ZM56.9823 60.0579L56.1001 61.271L56.9823 60.0579ZM59.0589 61.3072L59.4322 59.8544L59.0589 61.3072ZM67.8232 94.0579L68.7055 95.271L67.8232 94.0579ZM65.7466 95.3072L65.3733 93.8544L65.7466 95.3072ZM64.2534 95.3072L63.8801 96.76L64.2534 95.3072ZM102.44 68.8819L101.558 67.6688L102.44 68.8819ZM105.467 66.1038L104.072 65.5519L105.467 66.1038ZM102.44 61.1181L101.558 62.3312L102.44 61.1181ZM105.467 63.8962L106.862 63.3442L105.467 63.8962ZM62.1768 35.9421L61.2945 34.729L62.1768 35.9421ZM64.2534 34.6928L64.6267 36.1456L64.2534 34.6928ZM65.7466 34.6928L66.1199 33.24L65.7466 34.6928ZM27.5599 61.1181L26.6776 59.905L27.5599 61.1181ZM24.5332 63.8962L23.1385 63.3442L24.5332 63.8962ZM24.5332 66.1038L23.1385 66.6558L24.5332 66.1038ZM67.8232 102.947L66.941 101.734L67.8232 102.947ZM65.7466 104.196L65.3733 102.743L65.7466 104.196ZM62.1768 102.947L61.2945 104.16L62.1768 102.947ZM64.2534 104.196L63.8801 105.649L64.2534 104.196ZM114.662 61.1181L113.78 62.3312L114.662 61.1181ZM117.689 63.8962L119.084 63.3442L117.689 63.8962ZM114.662 68.8819L113.78 67.6688L114.662 68.8819ZM117.689 66.1038L116.294 65.5519L117.689 66.1038ZM77.0599 66.8958L76.1776 65.6827L77.0599 66.8958ZM74.0332 69.6739L72.6385 69.122L74.0332 69.6739ZM77.0599 74.6597L76.1776 75.8728L77.0599 74.6597ZM74.0332 71.8816L72.6385 72.4335L74.0332 71.8816ZM62.1768 27.0533L63.059 28.2664L62.1768 27.0533ZM65.7466 25.8039L66.1199 24.3511L65.7466 25.8039ZM15.3377 61.1181L14.4554 59.905L15.3377 61.1181ZM12.311 63.8962L13.7058 64.4481L12.311 63.8962ZM12.311 66.1038L10.9162 66.6558L12.311 66.1038ZM16.2199 62.3312L63.059 28.2664L61.2945 25.8401L14.4554 59.905L16.2199 62.3312ZM66.941 28.2664L113.78 62.3312L115.545 59.905L68.7055 25.8401L66.941 28.2664ZM113.78 67.6688L66.941 101.734L68.7055 104.16L115.545 70.095L113.78 67.6688ZM63.059 101.734L16.2199 67.6688L14.4554 70.095L61.2945 104.16L63.059 101.734ZM101.558 67.6688L66.941 92.8448L68.7055 95.271L103.322 70.095L101.558 67.6688ZM28.4421 62.3312L43.8823 51.102L42.1177 48.6758L26.6776 59.905L28.4421 62.3312ZM43.8823 51.102L63.059 37.1552L61.2945 34.729L42.1177 48.6758L43.8823 51.102ZM63.511 61.271L70.4656 56.2131L68.7011 53.7869L61.7465 58.8448L63.511 61.271ZM66.941 37.1552L92.84 55.9909L94.6045 53.5647L68.7055 34.729L66.941 37.1552ZM92.84 55.9909L101.558 62.3312L103.322 59.905L94.6045 53.5647L92.84 55.9909ZM92.84 53.5647L76.1776 65.6827L77.9421 68.109L94.6045 55.9909L92.84 53.5647ZM76.1776 75.8728L77.2566 76.6575L79.0211 74.2313L77.9421 73.4466L76.1776 75.8728ZM63.059 92.8448L44.4934 79.3424L42.7289 81.7687L61.2945 95.271L63.059 92.8448ZM44.4934 79.3424L28.4421 67.6688L26.6776 70.095L42.7289 81.7687L44.4934 79.3424ZM44.4934 81.7687L53.66 75.102L51.8955 72.6758L42.7289 79.3424L44.4934 81.7687ZM51.8955 75.102L65.6455 85.102L67.41 82.6758L53.66 72.6758L51.8955 75.102ZM57.8646 58.8448L52.285 54.7869L50.5205 57.2131L56.1001 61.271L57.8646 58.8448ZM52.285 54.7869L43.8823 48.6758L42.1177 51.102L50.5205 57.2131L52.285 54.7869ZM50.5205 54.7869L42.2705 60.7869L44.035 63.2131L52.285 57.2131L50.5205 54.7869ZM53.66 75.102L75.0489 59.5464L73.2844 57.1202L51.8955 72.6758L53.66 75.102ZM61.7465 58.8448C60.6274 59.6586 60.389 59.8004 60.1789 59.8544L60.9255 62.76C61.8248 62.5289 62.6009 61.9329 63.511 61.271L61.7465 58.8448ZM56.1001 61.271C57.0102 61.9329 57.7863 62.5289 58.6856 62.76L59.4322 59.8544C59.2221 59.8004 58.9837 59.6586 57.8646 58.8448L56.1001 61.271ZM60.1789 59.8544C59.934 59.9174 59.6771 59.9174 59.4322 59.8544L58.6856 62.76C59.4203 62.9488 60.1908 62.9488 60.9255 62.76L60.1789 59.8544ZM66.941 92.8448C65.8219 93.6586 65.5834 93.8004 65.3733 93.8544L66.1199 96.76C67.0192 96.5289 67.7954 95.9329 68.7055 95.271L66.941 92.8448ZM61.2945 95.271C62.2046 95.9329 62.9808 96.5289 63.8801 96.76L64.6267 93.8544C64.4166 93.8004 64.1781 93.6586 63.059 92.8448L61.2945 95.271ZM65.3733 93.8544C65.1284 93.9174 64.8716 93.9174 64.6267 93.8544L63.8801 96.76C64.6148 96.9488 65.3852 96.9488 66.1199 96.76L65.3733 93.8544ZM103.322 70.095C104.202 69.4556 104.943 68.918 105.497 68.434C106.057 67.9447 106.572 67.3885 106.862 66.6558L104.072 65.5519C104.041 65.6292 103.945 65.806 103.523 66.1753C103.094 66.5498 102.483 66.9962 101.558 67.6688L103.322 70.095ZM101.558 62.3312C102.483 63.0038 103.094 63.4502 103.523 63.8247C103.945 64.194 104.041 64.3708 104.072 64.4481L106.862 63.3442C106.572 62.6115 106.057 62.0553 105.497 61.566C104.943 61.082 104.202 60.5444 103.322 59.905L101.558 62.3312ZM106.862 66.6558C107.282 65.592 107.282 64.408 106.862 63.3442L104.072 64.4481C104.212 64.8027 104.212 65.1973 104.072 65.5519L106.862 66.6558ZM63.059 37.1552C64.1781 36.3414 64.4166 36.1996 64.6267 36.1456L63.8801 33.24C62.9808 33.4711 62.2046 34.0671 61.2945 34.729L63.059 37.1552ZM68.7055 34.729C67.7954 34.0671 67.0192 33.4711 66.1199 33.24L65.3733 36.1456C65.5834 36.1996 65.8219 36.3414 66.941 37.1552L68.7055 34.729ZM64.6267 36.1456C64.8716 36.0826 65.1284 36.0826 65.3733 36.1456L66.1199 33.24C65.3852 33.0512 64.6148 33.0512 63.8801 33.24L64.6267 36.1456ZM26.6776 59.905C25.7984 60.5444 25.0567 61.082 24.503 61.566C23.9433 62.0553 23.4284 62.6115 23.1385 63.3442L25.928 64.4481C25.9586 64.3708 26.055 64.194 26.4774 63.8247C26.9059 63.4502 27.5173 63.0038 28.4421 62.3312L26.6776 59.905ZM28.4421 67.6688C27.5173 66.9962 26.9059 66.5498 26.4774 66.1753C26.055 65.806 25.9586 65.6292 25.928 65.5519L23.1385 66.6558C23.4284 67.3885 23.9433 67.9447 24.503 68.434C25.0567 68.918 25.7984 69.4556 26.6776 70.095L28.4421 67.6688ZM23.1385 63.3442C22.7175 64.408 22.7175 65.592 23.1385 66.6558L25.928 65.5519C25.7877 65.1973 25.7877 64.8027 25.928 64.4481L23.1385 63.3442ZM66.941 101.734C65.8219 102.548 65.5834 102.689 65.3733 102.743L66.1199 105.649C67.0192 105.418 67.7954 104.822 68.7055 104.16L66.941 101.734ZM61.2945 104.16C62.2046 104.822 62.9808 105.418 63.8801 105.649L64.6267 102.743C64.4166 102.689 64.1781 102.548 63.059 101.734L61.2945 104.16ZM65.3733 102.743C65.1284 102.806 64.8716 102.806 64.6267 102.743L63.8801 105.649C64.6148 105.838 65.3852 105.838 66.1199 105.649L65.3733 102.743ZM113.78 62.3312C114.705 63.0038 115.316 63.4502 115.745 63.8247C116.167 64.194 116.264 64.3708 116.294 64.4481L119.084 63.3442C118.794 62.6115 118.279 62.0553 117.719 61.566C117.165 61.082 116.424 60.5444 115.545 59.905L113.78 62.3312ZM115.545 70.095C116.424 69.4556 117.165 68.918 117.719 68.434C118.279 67.9447 118.794 67.3885 119.084 66.6558L116.294 65.5519C116.264 65.6292 116.167 65.806 115.745 66.1753C115.316 66.5498 114.705 66.9962 113.78 67.6688L115.545 70.095ZM116.294 64.4481C116.435 64.8027 116.435 65.1973 116.294 65.5519L119.084 66.6558C119.505 65.592 119.505 64.408 119.084 63.3442L116.294 64.4481ZM76.1776 65.6827C75.2984 66.3222 74.5567 66.8598 74.003 67.3438C73.4433 67.8331 72.9284 68.3893 72.6385 69.122L75.428 70.2259C75.4586 70.1486 75.555 69.9718 75.9774 69.6025C76.4059 69.228 77.0173 68.7815 77.9421 68.109L76.1776 65.6827ZM77.9421 73.4466C77.0173 72.774 76.4059 72.3276 75.9774 71.953C75.555 71.5838 75.4586 71.407 75.428 71.3297L72.6385 72.4335C72.9284 73.1663 73.4433 73.7225 74.003 74.2118C74.5567 74.6958 75.2984 75.2333 76.1776 75.8728L77.9421 73.4466ZM72.6385 69.122C72.2175 70.1857 72.2175 71.3698 72.6385 72.4335L75.428 71.3297C75.2877 70.9751 75.2877 70.5804 75.428 70.2259L72.6385 69.122ZM63.059 28.2664C64.1781 27.4525 64.4166 27.3107 64.6267 27.2567L63.8801 24.3511C62.9808 24.5822 62.2046 25.1783 61.2945 25.8401L63.059 28.2664ZM68.7055 25.8401C67.7954 25.1783 67.0192 24.5822 66.1199 24.3511L65.3733 27.2567C65.5834 27.3107 65.8219 27.4525 66.941 28.2664L68.7055 25.8401ZM64.6267 27.2567C64.8716 27.1938 65.1284 27.1938 65.3733 27.2567L66.1199 24.3511C65.3852 24.1623 64.6148 24.1623 63.8801 24.3511L64.6267 27.2567ZM14.4554 59.905C13.5761 60.5444 12.8345 61.082 12.2808 61.566C11.7211 62.0553 11.2062 62.6115 10.9162 63.3442L13.7058 64.4481C13.7364 64.3708 13.8328 64.194 14.2552 63.8247C14.6837 63.4502 15.2951 63.0038 16.2199 62.3312L14.4554 59.905ZM16.2199 67.6688C15.2951 66.9962 14.6837 66.5498 14.2552 66.1753C13.8328 65.806 13.7363 65.6292 13.7058 65.5519L10.9162 66.6558C11.2062 67.3885 11.7211 67.9447 12.2808 68.434C12.8345 68.918 13.5761 69.4556 14.4554 70.095L16.2199 67.6688ZM10.9162 63.3442C10.4953 64.408 10.4953 65.592 10.9162 66.6558L13.7058 65.5519C13.5655 65.1973 13.5655 64.8027 13.7058 64.4481L10.9162 63.3442Z" fill="#080708"/>
</svg>
