<svg width="130" height="130" viewBox="0 0 130 130" fill="none" xmlns="http://www.w3.org/2000/svg">
<path d="M89.8269 61.9987C91.3721 62.7051 92.4363 63.1932 93.1815 63.6187C93.9566 64.0612 94.1055 64.2875 94.1305 64.3384C94.3356 64.7556 94.3356 65.2444 94.1305 65.6616C94.1055 65.7125 93.9566 65.9388 93.1815 66.3813C92.4363 66.8068 91.3721 67.2949 89.8269 68.0013L66.372 78.7235C65.5658 79.092 65.4025 79.154 65.256 79.1794C65.0866 79.2087 64.9134 79.2087 64.744 79.1794L64.488 80.6574L64.744 79.1794C64.5975 79.154 64.4342 79.092 63.628 78.7235L40.1731 68.0013C38.6279 67.2949 37.5637 66.8068 36.8185 66.3813C36.0434 65.9388 35.8945 65.7125 35.8695 65.6616C35.6644 65.2444 35.6644 64.7556 35.8695 64.3384C35.8945 64.2875 36.0434 64.0612 36.8185 63.6187C37.5637 63.1932 38.6279 62.7051 40.1731 61.9987L63.628 51.2765L63.0065 49.9169L63.628 51.2765C64.4342 50.908 64.5975 50.846 64.744 50.8206C64.9134 50.7913 65.0866 50.7913 65.256 50.8206C65.4025 50.846 65.5658 50.908 66.372 51.2765L89.8269 61.9987Z" stroke="#080708" stroke-width="3"/>
<path d="M70.0449 62.0096C71.5579 62.7157 72.5981 63.2027 73.3265 63.6264C74.0822 64.0661 74.2285 64.29 74.2541 64.3426C74.4565 64.7575 74.4565 65.2425 74.2541 65.6574C74.2285 65.71 74.0822 65.9339 73.3265 66.3736C72.5981 66.7973 71.5579 67.2843 70.0449 67.9904L66.3955 69.6935C65.576 70.0759 65.4097 70.1403 65.2606 70.1666C65.0882 70.197 64.9118 70.197 64.7393 70.1666C64.5903 70.1403 64.424 70.0759 63.6045 69.6935L59.9551 67.9904C58.4421 67.2843 57.4019 66.7973 56.6735 66.3736C55.9178 65.9339 55.7715 65.71 55.7459 65.6574C55.5435 65.2425 55.5435 64.7575 55.7459 64.3426C55.7715 64.29 55.9178 64.0661 56.6735 63.6264C57.4019 63.2027 58.4421 62.7157 59.9551 62.0096L63.6045 60.3065C64.424 59.9241 64.5903 59.8597 64.7394 59.8334C64.9118 59.803 65.0882 59.803 65.2606 59.8334C65.4097 59.8597 65.576 59.9241 66.3955 60.3065L70.0449 62.0096Z" stroke="#080708" stroke-width="3"/>
<path d="M65 110L51.4594 99.1994L48.8761 116.326L65 110ZM65 21.5C65.8284 21.5 66.5 20.8284 66.5 20C66.5 19.1716 65.8284 18.5 65 18.5V21.5ZM52.0926 106.553C34.369 101.054 21.5 84.5281 21.5 65H18.5C18.5 85.8795 32.2604 103.541 51.2036 109.419L52.0926 106.553ZM21.5 65C21.5 40.9756 40.9756 21.5 65 21.5V18.5C39.3188 18.5 18.5 39.3188 18.5 65H21.5Z" fill="#080708"/>
<path d="M111.5 65C111.5 64.1716 110.828 63.5 110 63.5C109.172 63.5 108.5 64.1716 108.5 65H111.5ZM65 42L49.3739 34.5283L50.7163 51.7967L65 42ZM108.5 65C108.5 70.4943 104.109 75.8532 96.1371 79.9278C88.2458 83.9612 77.2394 86.5 65 86.5V89.5C77.6134 89.5 89.107 86.8901 97.5025 82.5991C105.817 78.3493 111.5 72.2082 111.5 65H108.5ZM65 86.5C52.7606 86.5 41.7542 83.9612 33.8629 79.9278C25.8909 75.8532 21.5 70.4943 21.5 65H18.5C18.5 72.2082 24.1827 78.3493 32.4975 82.5991C40.893 86.8901 52.3866 89.5 65 89.5V86.5ZM21.5 65C21.5 60.544 24.3701 56.1854 29.764 52.4924C35.1345 48.8154 42.7942 45.9647 51.7794 44.5273L51.3055 41.565C42.0118 43.0517 33.9003 46.0246 28.0692 50.017C22.2616 53.9932 18.5 59.1494 18.5 65H21.5Z" fill="#080708"/>
</svg>
