<svg width="130" height="130" viewBox="0 0 130 130" fill="none" xmlns="http://www.w3.org/2000/svg">
<path d="M60.8194 30.5948C62.1791 24.6119 62.859 21.6204 63.9604 20.9618C64.9085 20.3949 66.0915 20.3949 67.0396 20.9618C68.141 21.6204 68.8209 24.6119 70.1806 30.5948L77.7582 63.9362C77.8484 64.3331 77.8935 64.5316 77.9115 64.7322C77.9275 64.9104 77.9275 65.0896 77.9115 65.2678C77.8935 65.4684 77.8484 65.6669 77.7582 66.0638L70.1806 99.4052C68.8209 105.388 68.141 108.38 67.0396 109.038C66.0915 109.605 64.9085 109.605 63.9604 109.038C62.859 108.38 62.1791 105.388 60.8194 99.4052L53.2418 66.0638C53.1516 65.6669 53.1065 65.4684 53.0885 65.2678C53.0725 65.0896 53.0725 64.9104 53.0885 64.7322C53.1065 64.5316 53.1516 64.3331 53.2418 63.9362L60.8194 30.5948Z" stroke="#080708" stroke-width="3"/>
<path d="M30.5948 69.1806C24.6119 67.8209 21.6204 67.141 20.9618 66.0396C20.3949 65.0915 20.3949 63.9085 20.9618 62.9604C21.6204 61.859 24.6119 61.1791 30.5948 59.8194L63.9362 52.2418C64.3331 52.1516 64.5316 52.1065 64.7322 52.0885C64.9104 52.0725 65.0896 52.0725 65.2678 52.0885C65.4684 52.1065 65.6669 52.1516 66.0638 52.2418L99.4052 59.8194C105.388 61.1791 108.38 61.859 109.038 62.9603C109.605 63.9085 109.605 65.0915 109.038 66.0396C108.38 67.141 105.388 67.8209 99.4052 69.1806L66.0638 76.7582C65.6669 76.8484 65.4684 76.8935 65.2678 76.9115C65.0896 76.9275 64.9104 76.9275 64.7322 76.9115C64.5316 76.8935 64.3331 76.8484 63.9362 76.7582L30.5948 69.1806Z" stroke="#080708" stroke-width="3"/>
<path d="M31.4344 36.6869C30.0919 33.3777 29.4206 31.7231 29.7634 30.6786C30.0609 29.772 30.7719 29.061 31.6785 28.7635C32.723 28.4208 34.3776 29.092 37.6867 30.4345L39.3069 31.0918C40.0005 31.3732 40.3473 31.5139 40.6406 31.7256C40.9006 31.9134 41.1288 32.1416 41.3165 32.4015C41.5283 32.6948 41.669 33.0416 41.9504 33.7352L42.6076 35.3554C43.9501 38.6646 44.6214 40.3192 44.2786 41.3637C43.9811 42.2702 43.2701 42.9812 42.3635 43.2787C41.319 43.6215 39.6644 42.9502 36.3553 41.6078L34.7351 40.9505C34.0415 40.6691 33.6947 40.5284 33.4014 40.3166C33.1414 40.1289 32.9132 39.9007 32.7255 39.6407C32.5137 39.3474 32.373 39.0006 32.0916 38.307L31.4344 36.6869Z" stroke="#080708" stroke-width="3"/>
<path d="M88.4344 93.6869C87.0919 90.3777 86.4206 88.7231 86.7634 87.6786C87.0609 86.772 87.7719 86.061 88.6785 85.7635C89.723 85.4208 91.3776 86.092 94.6867 87.4345L96.3069 88.0918C97.0005 88.3732 97.3473 88.5139 97.6406 88.7256C97.9006 88.9134 98.1288 89.1416 98.3165 89.4015C98.5283 89.6948 98.669 90.0416 98.9504 90.7352L99.6076 92.3554C100.95 95.6646 101.621 97.3192 101.279 98.3637C100.981 99.2702 100.27 99.9812 99.3635 100.279C98.319 100.621 96.6644 99.9502 93.3553 98.6078L91.7351 97.9505C91.0415 97.6691 90.6947 97.5284 90.4014 97.3166C90.1414 97.1289 89.9132 96.9007 89.7255 96.6407C89.5137 96.3474 89.373 96.0006 89.0916 95.307L88.4344 93.6869Z" stroke="#080708" stroke-width="3"/>
<path d="M37.6859 98.6076C34.3767 99.9501 32.7221 100.621 31.6776 100.279C30.771 99.9811 30.06 99.2701 29.7625 98.3635C29.4198 97.319 30.091 95.6644 31.4335 92.3552L32.0908 90.7351C32.3722 90.0415 32.5129 89.6947 32.7246 89.4014C32.9124 89.1414 33.1406 88.9132 33.4006 88.7255C33.6938 88.5137 34.0406 88.373 34.7343 88.0916L36.3544 87.4344C39.6636 86.0919 41.3182 85.4206 42.3627 85.7634C43.2693 86.0609 43.9803 86.7719 44.2778 87.6785C44.6205 88.723 43.9493 90.3775 42.6068 93.6867L41.9495 95.3069C41.6681 96.0005 41.5274 96.3473 41.3157 96.6406C41.1279 96.9006 40.8997 97.1288 40.6397 97.3165C40.3465 97.5283 39.9996 97.669 39.306 97.9503L37.6859 98.6076Z" stroke="#080708" stroke-width="3"/>
<path d="M94.6859 41.6076C91.3767 42.9501 89.7221 43.6213 88.6776 43.2786C87.771 42.9811 87.06 42.2701 86.7625 41.3635C86.4198 40.319 87.091 38.6644 88.4335 35.3552L89.0908 33.7351C89.3722 33.0415 89.5129 32.6947 89.7246 32.4014C89.9124 32.1414 90.1406 31.9132 90.4006 31.7255C90.6938 31.5137 91.0406 31.373 91.7343 31.0916L93.3544 30.4344C96.6636 29.0919 98.3182 28.4206 99.3627 28.7634C100.269 29.0609 100.98 29.7719 101.278 30.6785C101.621 31.723 100.949 33.3775 99.6068 36.6867L98.9495 38.3069C98.6681 39.0005 98.5274 39.3473 98.3157 39.6406C98.1279 39.9006 97.8997 40.1288 97.6397 40.3165C97.3465 40.5283 96.9996 40.669 96.306 40.9503L94.6859 41.6076Z" stroke="#080708" stroke-width="3"/>
</svg>
