<svg width="740" height="740" viewBox="0 0 740 740" fill="none" xmlns="http://www.w3.org/2000/svg">
<path d="M437.623 567.73C439.061 573.098 439.78 575.782 441.516 577.62C442.967 579.155 445.17 580.312 447.257 580.635C449.755 581.021 452.182 580.158 457.037 578.431C484.951 568.5 510.377 552.466 531.421 531.421C552.466 510.377 568.5 484.951 578.431 457.037C580.158 452.182 581.021 449.755 580.635 447.257C580.312 445.17 579.155 442.967 577.62 441.517C575.782 439.78 573.098 439.061 567.73 437.623L492.388 417.435C487.033 416 484.356 415.283 482.261 415.612C480.175 415.941 478.869 416.547 477.272 417.929C475.669 419.316 474.26 422.311 471.444 428.3C467.035 437.676 461.022 446.257 453.64 453.64C446.257 461.022 437.676 467.035 428.3 471.444C422.311 474.26 419.316 475.669 417.929 477.272C416.547 478.869 415.94 480.175 415.612 482.261C415.283 484.356 416 487.033 417.435 492.388L437.623 567.73Z" fill="#0EFBCA"/>
<path d="M500.108 238.892C504.037 234.963 506.002 232.998 506.725 230.575C507.33 228.552 507.23 226.066 506.466 224.097C505.552 221.74 503.59 220.07 499.667 216.729C470.393 191.799 434.451 175.759 396.105 170.711C352.455 164.964 308.128 173.781 270 195.795C231.872 217.808 202.072 251.788 185.224 292.463C170.423 328.196 166.343 367.342 173.296 405.159C174.227 410.227 174.693 412.761 176.277 414.732C177.6 416.378 179.704 417.707 181.758 418.195C184.218 418.78 186.902 418.061 192.27 416.623L267.612 396.435C272.967 395 275.644 394.283 277.293 392.95C278.936 391.622 279.763 390.445 280.456 388.449C281.15 386.446 280.873 383.148 280.317 376.553C279.118 362.31 281.323 347.905 286.851 334.558C294.433 316.255 307.842 300.964 325 291.058C342.158 281.152 362.105 277.184 381.747 279.77C396.07 281.656 409.647 286.949 421.382 295.109C426.816 298.888 429.533 300.777 431.616 301.177C433.69 301.575 435.124 301.447 437.094 300.689C439.073 299.927 441.033 297.967 444.953 294.047L500.108 238.892Z" fill="#0EFBCA"/>
<mask id="path-3-inside-1_1245:6288" fill="white">
<path d="M558.794 261C568.339 255.489 573.111 252.734 575.779 248.259C577.942 244.631 578.996 239.369 578.398 235.188C577.661 230.031 574.7 226.149 568.779 218.385C548.784 192.171 523.734 170.083 495 153.494C456.995 131.552 413.884 120 370 120C326.116 120 283.005 131.552 245 153.494C206.995 175.436 175.436 206.995 153.494 245C131.552 283.005 120 326.116 120 370C120 413.884 131.552 456.995 153.494 495C175.436 533.005 206.995 564.564 245 586.506C273.734 603.096 305.387 613.746 338.087 617.955C347.772 619.201 352.614 619.825 357.449 617.884C361.369 616.311 365.398 612.767 367.458 609.08C370 604.533 370 599.022 370 588L370 388.475C370 381.745 370 378.379 370.979 375.367C371.845 372.701 373.262 370.247 375.137 368.164C377.257 365.81 380.171 364.128 386 360.762L558.794 261Z"/>
</mask>
<path d="M558.794 261C568.339 255.489 573.111 252.734 575.779 248.259C577.942 244.631 578.996 239.369 578.398 235.188C577.661 230.031 574.7 226.149 568.779 218.385C548.784 192.171 523.734 170.083 495 153.494C456.995 131.552 413.884 120 370 120C326.116 120 283.005 131.552 245 153.494C206.995 175.436 175.436 206.995 153.494 245C131.552 283.005 120 326.116 120 370C120 413.884 131.552 456.995 153.494 495C175.436 533.005 206.995 564.564 245 586.506C273.734 603.096 305.387 613.746 338.087 617.955C347.772 619.201 352.614 619.825 357.449 617.884C361.369 616.311 365.398 612.767 367.458 609.08C370 604.533 370 599.022 370 588L370 388.475C370 381.745 370 378.379 370.979 375.367C371.845 372.701 373.262 370.247 375.137 368.164C377.257 365.81 380.171 364.128 386 360.762L558.794 261Z" stroke="black" stroke-width="2" mask="url(#path-3-inside-1_1245:6288)"/>
<mask id="path-4-inside-2_1245:6288" fill="white">
<path d="M607.618 306.331C628.484 300.739 638.918 297.944 646.568 290.146C652.483 284.116 657.381 273.158 657.929 264.729C658.638 253.828 654.636 245.915 646.631 230.088C633.392 203.913 616.457 179.653 596.258 158.086C561.409 120.878 517.921 92.8386 469.646 76.4517C421.372 60.0648 369.801 55.8362 319.502 64.1406C269.204 72.4449 221.729 93.0259 181.284 124.06C140.839 155.095 108.672 195.625 87.6322 242.061C66.5925 288.496 57.3295 339.404 60.6637 390.275C63.998 441.146 79.8265 490.409 106.747 533.701C122.351 558.793 141.402 581.431 163.258 600.993C176.474 612.821 183.082 618.736 193.794 620.872C202.078 622.525 213.93 620.629 221.286 616.476C230.798 611.105 236.199 601.751 247 583.042L356.745 392.958C361.637 384.485 364.083 380.249 367.342 376.815C370.231 373.77 373.582 371.199 377.27 369.196C381.431 366.937 386.156 365.671 395.606 363.139L607.618 306.331Z"/>
</mask>
<path d="M607.618 306.331C628.484 300.739 638.918 297.944 646.568 290.146C652.483 284.116 657.381 273.158 657.929 264.729C658.638 253.828 654.636 245.915 646.631 230.088C633.392 203.913 616.457 179.653 596.258 158.086C561.409 120.878 517.921 92.8386 469.646 76.4517C421.372 60.0648 369.801 55.8362 319.502 64.1406C269.204 72.4449 221.729 93.0259 181.284 124.06C140.839 155.095 108.672 195.625 87.6322 242.061C66.5925 288.496 57.3295 339.404 60.6637 390.275C63.998 441.146 79.8265 490.409 106.747 533.701C122.351 558.793 141.402 581.431 163.258 600.993C176.474 612.821 183.082 618.736 193.794 620.872C202.078 622.525 213.93 620.629 221.286 616.476C230.798 611.105 236.199 601.751 247 583.042L356.745 392.958C361.637 384.485 364.083 380.249 367.342 376.815C370.231 373.77 373.582 371.199 377.27 369.196C381.431 366.937 386.156 365.671 395.606 363.139L607.618 306.331Z" stroke="black" stroke-width="4" mask="url(#path-4-inside-2_1245:6288)"/>
<mask id="path-5-inside-3_1245:6288" fill="white">
<path d="M644 370C675.805 370 691.708 370 706.123 361.18C716.931 354.568 728.691 339.278 732.31 327.135C737.136 310.94 733.963 298.984 727.615 275.073C721.344 251.444 712.725 228.42 701.843 206.353C676.742 155.453 640.267 111.009 595.242 76.4593C550.216 41.91 497.846 18.1815 442.183 7.10945C386.521 -3.9626 329.057 -2.08142 274.237 12.6074C219.417 27.2963 168.712 54.3991 126.042 91.8193C83.3726 129.239 49.8832 175.974 28.1646 228.407C6.44598 280.84 -2.91965 337.567 0.792198 394.199C2.40141 418.751 6.44984 443 12.8323 466.598C19.2912 490.48 22.5207 502.421 34.7978 514.033C44.0031 522.74 61.8326 530.101 74.4993 530.423C91.3928 530.854 105.165 522.903 132.709 507L347.723 382.862C356.019 378.072 360.166 375.677 364.575 373.985C368.489 372.483 372.55 371.395 376.691 370.739C381.355 370 386.144 370 395.723 370H644Z"/>
</mask>
<path d="M644 370C675.805 370 691.708 370 706.123 361.18C716.931 354.568 728.691 339.278 732.31 327.135C737.136 310.94 733.963 298.984 727.615 275.073C721.344 251.444 712.725 228.42 701.843 206.353C676.742 155.453 640.267 111.009 595.242 76.4593C550.216 41.91 497.846 18.1815 442.183 7.10945C386.521 -3.9626 329.057 -2.08142 274.237 12.6074C219.417 27.2963 168.712 54.3991 126.042 91.8193C83.3726 129.239 49.8832 175.974 28.1646 228.407C6.44598 280.84 -2.91965 337.567 0.792198 394.199C2.40141 418.751 6.44984 443 12.8323 466.598C19.2912 490.48 22.5207 502.421 34.7978 514.033C44.0031 522.74 61.8326 530.101 74.4993 530.423C91.3928 530.854 105.165 522.903 132.709 507L347.723 382.862C356.019 378.072 360.166 375.677 364.575 373.985C368.489 372.483 372.55 371.395 376.691 370.739C381.355 370 386.144 370 395.723 370H644Z" stroke="black" stroke-width="6" mask="url(#path-5-inside-3_1245:6288)"/>
</svg>
