<svg width="1083" height="778" viewBox="0 0 1083 778" fill="none" xmlns="http://www.w3.org/2000/svg">
<path d="M61 448.422C94.1371 448.422 121 421.594 121 388.5C121 355.406 94.1371 328.578 61 328.578C27.8629 328.578 1 355.406 1 388.5C1 421.594 27.8629 448.422 61 448.422Z" fill="#FAFFFD" stroke="black" stroke-width="0.5" stroke-miterlimit="10"/>
<path d="M177.5 503.353C234.661 503.353 281 452.156 281 389.001C281 325.846 234.661 274.648 177.5 274.648C120.339 274.648 74 325.846 74 389.001C74 452.156 120.339 503.353 177.5 503.353Z" fill="#FAFFFD" stroke="black" stroke-width="0.9167" stroke-miterlimit="10"/>
<path d="M294 558.281C375.186 558.281 441 482.491 441 389C441 295.508 375.186 219.719 294 219.719C212.814 219.719 147 295.508 147 389C147 482.491 212.814 558.281 294 558.281Z" fill="#FAFFFD" stroke="black" stroke-width="1.3333" stroke-miterlimit="10"/>
<path d="M410.5 613.21C515.71 613.21 601 513.052 601 389.5C601 265.948 515.71 165.789 410.5 165.789C305.29 165.789 220 265.948 220 389.5C220 513.052 305.29 613.21 410.5 613.21Z" fill="#FAFFFD" stroke="black" stroke-width="1.75" stroke-miterlimit="10"/>
<path d="M527 667.141C656.235 667.141 761 542.613 761 389C761 235.387 656.235 110.859 527 110.859C397.765 110.859 293 235.387 293 389C293 542.613 397.765 667.141 527 667.141Z" fill="#FAFFFD" stroke="black" stroke-width="2.1667" stroke-miterlimit="10"/>
<path d="M643.5 721.071C796.759 721.071 921 572.174 921 388.501C921 204.827 796.759 55.9297 643.5 55.9297C490.241 55.9297 366 204.827 366 388.501C366 572.174 490.241 721.071 643.5 721.071Z" fill="#FAFFFD" stroke="black" stroke-width="2.5833" stroke-miterlimit="10"/>
<path d="M760 776C937.283 776 1081 602.734 1081 389C1081 175.266 937.283 2 760 2C582.717 2 439 175.266 439 389C439 602.734 582.717 776 760 776Z" fill="#FAFFFD" stroke="black" stroke-width="3" stroke-miterlimit="10"/>
</svg>
