<svg width="350" height="350" viewBox="0 0 350 350" fill="none" xmlns="http://www.w3.org/2000/svg">
<g clip-path="url(#clip0_1245:6444)">
<circle cx="175" cy="210" r="42" fill="#0EFBCA"/>
<mask id="path-2-inside-1_1245:6444" fill="white">
<path d="M299 210C304.526 210 307.289 210 309.548 208.749C311.396 207.727 313.145 205.766 313.95 203.813C314.935 201.426 314.652 198.962 314.087 194.035C312.606 181.132 309.333 168.471 304.343 156.424C297.307 139.439 286.995 124.005 273.995 111.005C260.995 98.0048 245.561 87.6925 228.576 80.6569C211.59 73.6212 193.385 70 175 70C156.615 70 138.41 73.6212 121.424 80.6569C104.439 87.6925 89.0052 98.0049 76.005 111.005C63.0048 124.005 52.6925 139.439 45.6569 156.424C40.6668 168.471 37.3944 181.132 35.9133 194.035C35.3477 198.962 35.0649 201.426 36.0498 203.813C36.8551 205.766 38.6039 207.727 40.4515 208.749C42.7114 210 45.4742 210 51 210L175 210L299 210Z"/>
</mask>
<path d="M299 210C304.526 210 307.289 210 309.548 208.749C311.396 207.727 313.145 205.766 313.95 203.813C314.935 201.426 314.652 198.962 314.087 194.035C312.606 181.132 309.333 168.471 304.343 156.424C297.307 139.439 286.995 124.005 273.995 111.005C260.995 98.0048 245.561 87.6925 228.576 80.6569C211.59 73.6212 193.385 70 175 70C156.615 70 138.41 73.6212 121.424 80.6569C104.439 87.6925 89.0052 98.0049 76.005 111.005C63.0048 124.005 52.6925 139.439 45.6569 156.424C40.6668 168.471 37.3944 181.132 35.9133 194.035C35.3477 198.962 35.0649 201.426 36.0498 203.813C36.8551 205.766 38.6039 207.727 40.4515 208.749C42.7114 210 45.4742 210 51 210L175 210L299 210Z" stroke="#080708" stroke-width="6" mask="url(#path-2-inside-1_1245:6444)"/>
<mask id="path-3-inside-2_1245:6444" fill="white">
<path d="M277.388 237.435C282.708 238.86 285.368 239.573 287.897 238.93C289.944 238.41 292.186 236.912 293.449 235.22C295.01 233.129 295.327 230.717 295.961 225.893C299.439 199.424 294.151 172.375 280.655 149C264.477 120.979 237.83 100.532 206.576 92.1571C175.322 83.7826 142.021 88.1667 114 104.345C90.6249 117.841 72.5206 138.621 62.2982 163.284C60.4353 167.778 59.5039 170.025 59.8102 172.617C60.0581 174.714 61.2501 177.132 62.7627 178.606C64.632 180.427 67.292 181.14 72.6119 182.565L175 210L277.388 237.435Z"/>
</mask>
<path d="M277.388 237.435C282.708 238.86 285.368 239.573 287.897 238.93C289.944 238.41 292.186 236.912 293.449 235.22C295.01 233.129 295.327 230.717 295.961 225.893C299.439 199.424 294.151 172.375 280.655 149C264.477 120.979 237.83 100.532 206.576 92.1571C175.322 83.7826 142.021 88.1667 114 104.345C90.6249 117.841 72.5206 138.621 62.2982 163.284C60.4353 167.778 59.5039 170.025 59.8102 172.617C60.0581 174.714 61.2501 177.132 62.7627 178.606C64.632 180.427 67.292 181.14 72.6119 182.565L175 210L277.388 237.435Z" stroke="#080708" stroke-width="6" mask="url(#path-3-inside-2_1245:6444)"/>
<mask id="path-4-inside-3_1245:6444" fill="white">
<path d="M235.104 270.104C238.975 273.975 240.91 275.91 243.47 276.609C245.507 277.165 248.304 276.943 250.228 276.072C252.646 274.978 254.027 273.071 256.791 269.257C269.198 252.131 276 231.416 276 210C276 183.213 265.359 157.523 246.418 138.582C227.477 119.641 201.787 109 175 109C153.584 109 132.869 115.802 115.743 128.209C111.929 130.973 110.022 132.354 108.928 134.772C108.057 136.696 107.835 139.493 108.391 141.53C109.09 144.09 111.026 146.025 114.896 149.896L175 210L235.104 270.104Z"/>
</mask>
<path d="M235.104 270.104C238.975 273.975 240.91 275.91 243.47 276.609C245.507 277.165 248.304 276.943 250.228 276.072C252.646 274.978 254.027 273.071 256.791 269.257C269.198 252.131 276 231.416 276 210C276 183.213 265.359 157.523 246.418 138.582C227.477 119.641 201.787 109 175 109C153.584 109 132.869 115.802 115.743 128.209C111.929 130.973 110.022 132.354 108.928 134.772C108.057 136.696 107.835 139.493 108.391 141.53C109.09 144.09 111.026 146.025 114.896 149.896L175 210L235.104 270.104Z" stroke="#080708" stroke-width="6" mask="url(#path-4-inside-3_1245:6444)"/>
</g>
<defs>
<clipPath id="clip0_1245:6444">
<rect width="350" height="350" fill="white"/>
</clipPath>
</defs>
</svg>
