<svg width="1340" height="550" viewBox="0 0 1340 550" fill="none" xmlns="http://www.w3.org/2000/svg">
<path d="M1.5 96C1.5 79.1737 1.50117 66.6441 2.31247 56.7143C3.12234 46.8019 4.73202 39.6122 7.87612 33.4416C13.4847 22.4341 22.4341 13.4847 33.4416 7.87612C39.6122 4.73202 46.8019 3.12234 56.7143 2.31247C66.6441 1.50117 79.1737 1.5 96 1.5H1244C1260.83 1.5 1273.36 1.50117 1283.29 2.31247C1293.2 3.12234 1300.39 4.73202 1306.56 7.87612C1317.57 13.4847 1326.52 22.4341 1332.12 33.4416C1335.27 39.6122 1336.88 46.8019 1337.69 56.7143C1338.5 66.6441 1338.5 79.1737 1338.5 96V454C1338.5 470.826 1338.5 483.356 1337.69 493.286C1336.88 503.198 1335.27 510.388 1332.12 516.558C1326.52 527.566 1317.57 536.515 1306.56 542.124C1300.39 545.268 1293.2 546.878 1283.29 547.688C1273.36 548.499 1260.83 548.5 1244 548.5H96C79.1737 548.5 66.6441 548.499 56.7143 547.688C46.8019 546.878 39.6122 545.268 33.4416 542.124C22.4341 536.515 13.4847 527.566 7.87612 516.558C4.73202 510.388 3.12234 503.198 2.31247 493.286C1.50117 483.356 1.5 470.826 1.5 454V96Z" fill="#FAFFFD" stroke="#080708" stroke-width="3"/>
</svg>
