<svg width="350" height="350" viewBox="0 0 350 350" fill="none" xmlns="http://www.w3.org/2000/svg">
<rect x="154" y="101" width="42" height="172" rx="10" fill="#9CF50B"/>
<path d="M61.1715 91.3003C59.0503 71.1494 78.0431 55.2834 97.4949 60.9568L166.18 80.99C171.94 82.67 178.06 82.67 183.82 80.99L252.505 60.9568C271.957 55.2834 290.95 71.1494 288.829 91.3004L275.598 216.986C274.396 228.412 266.449 237.999 255.444 241.301L183.189 262.977C177.847 264.58 172.153 264.58 166.811 262.977L94.5555 241.301C83.5506 237.999 75.6043 228.412 74.4016 216.986L61.1715 91.3003Z" stroke="#080708" stroke-width="3"/>
<path d="M79.6025 147.502C78.23 134.417 90.5714 124.121 103.199 127.818L168.96 147.068C172.904 148.222 177.096 148.222 181.04 147.068L246.801 127.818C259.429 124.121 271.77 134.417 270.398 147.502L258.229 263.523C257.452 270.936 252.301 277.159 245.164 279.308L180.334 298.828C176.855 299.875 173.145 299.875 169.666 298.828L104.836 279.308C97.699 277.159 92.5485 270.936 91.771 263.523L79.6025 147.502Z" stroke="#080708" stroke-width="3"/>
<path d="M105.05 112.666C104.418 106.655 110.085 101.924 115.886 103.618L171.776 119.939C173.881 120.554 176.119 120.554 178.224 119.939L234.114 103.618C239.915 101.924 245.582 106.655 244.95 112.666L235.037 206.953C234.679 210.36 232.31 213.219 229.029 214.205L177.445 229.699C175.85 230.178 174.15 230.178 172.555 229.699L120.971 214.205C117.69 213.219 115.321 210.36 114.963 206.953L105.05 112.666Z" stroke="#080708" stroke-width="3"/>
</svg>
