<?xml version="1.0" standalone="no"?>
<!DOCTYPE svg PUBLIC "-//W3C//DTD SVG 20010904//EN"
 "http://www.w3.org/TR/2001/REC-SVG-20010904/DTD/svg10.dtd">
<svg version="1.0" xmlns="http://www.w3.org/2000/svg"
 width="512.000000pt" height="512.000000pt" viewBox="0 0 512.000000 512.000000"
 preserveAspectRatio="xMidYMid meet">
<metadata>
Created by potrace 1.14, written by Peter Selinger 2001-2017
</metadata>
<g transform="translate(0.000000,512.000000) scale(0.100000,-0.100000)"
fill="#000000" stroke="none">
<path d="M4170 2740 l0 -740 155 0 155 0 0 370 0 370 165 0 165 0 0 -370 0
-370 155 0 155 0 0 530 0 530 -317 2 -318 3 -3 208 -2 207 -155 0 -155 0 0
-740z"/>
<path d="M1430 3069 c-238 -41 -430 -278 -430 -529 1 -284 214 -519 490 -537
66 -5 108 0 213 23 21 5 27 3 27 -10 0 -14 19 -16 155 -16 l155 0 0 540 0 540
-155 0 c-148 0 -155 -1 -155 -20 0 -24 -5 -24 -59 -5 -55 19 -173 26 -241 14z
m201 -346 c82 -42 99 -75 99 -188 0 -111 -18 -145 -95 -184 -60 -30 -152 -34
-201 -8 -51 27 -100 89 -114 146 -43 182 140 320 311 234z"/>
<path d="M2250 2540 l0 -540 155 0 155 0 0 375 0 375 170 0 170 0 0 165 0 165
-325 0 -325 0 0 -540z"/>
<path d="M3410 3070 c-275 -51 -464 -313 -430 -596 34 -285 272 -489 550 -471
190 12 351 113 431 269 27 53 52 161 41 173 -3 3 -73 5 -156 5 l-152 0 -10
-29 c-13 -33 -84 -79 -146 -93 -125 -28 -248 76 -248 208 0 68 38 143 92 180
36 25 50 29 113 29 62 0 78 -4 121 -30 29 -18 55 -44 64 -62 l15 -33 158 0
158 0 -7 48 c-26 174 -145 308 -339 378 -71 26 -188 37 -255 24z"/>
</g>
</svg>
