<svg width="129" height="10" viewBox="0 0 129 10" fill="none" xmlns="http://www.w3.org/2000/svg">
<path fill-rule="evenodd" clip-rule="evenodd" d="M0 2.39744C0 0.926616 1.53422 -0.0410775 2.86157 0.592535L9.78849 3.8991C9.92773 3.96557 10.0801 4.00007 10.2344 4.00007C10.7867 4.00007 11.2344 4.44778 11.2344 5.00007C11.2344 5.55235 10.7867 6.00007 10.2344 6.00007C10.0801 6.00007 9.92773 6.03456 9.78849 6.10103L2.86157 9.4076C1.53422 10.0412 0 9.07351 0 7.60269V2.39744ZM121 2.25284C121 0.907828 122.456 0.0671966 123.621 0.739703L128 3.26801C129.333 4.03782 129.333 5.96232 128 6.73212L123.621 9.26043C122.456 9.93293 121 9.0923 121 7.74729V6.23444C121 6.105 120.895 6.00007 120.766 6.00007C120.213 6.00007 119.766 5.55235 119.766 5.00007C119.766 4.44778 120.213 4.00007 120.766 4.00007C120.895 4.00007 121 3.89513 121 3.76569V2.25284ZM13.3281 5.00007C13.3281 4.44778 13.7758 4.00007 14.3281 4.00007H18.4219C18.9742 4.00007 19.4219 4.44778 19.4219 5.00007C19.4219 5.55235 18.9742 6.00007 18.4219 6.00007H14.3281C13.7758 6.00007 13.3281 5.55235 13.3281 5.00007ZM21.5156 5.00007C21.5156 4.44778 21.9633 4.00007 22.5156 4.00007H26.6094C27.1617 4.00007 27.6094 4.44778 27.6094 5.00007C27.6094 5.55235 27.1617 6.00007 26.6094 6.00007H22.5156C21.9633 6.00007 21.5156 5.55235 21.5156 5.00007ZM29.7031 5.00007C29.7031 4.44778 30.1508 4.00007 30.7031 4.00007H34.7969C35.3492 4.00007 35.7969 4.44778 35.7969 5.00007C35.7969 5.55235 35.3492 6.00007 34.7969 6.00007H30.7031C30.1508 6.00007 29.7031 5.55235 29.7031 5.00007ZM37.8906 5.00007C37.8906 4.44778 38.3383 4.00007 38.8906 4.00007H42.9844C43.5367 4.00007 43.9844 4.44778 43.9844 5.00007C43.9844 5.55235 43.5367 6.00007 42.9844 6.00007H38.8906C38.3383 6.00007 37.8906 5.55235 37.8906 5.00007ZM46.0781 5.00007C46.0781 4.44778 46.5258 4.00007 47.0781 4.00007H51.1719C51.7242 4.00007 52.1719 4.44778 52.1719 5.00007C52.1719 5.55235 51.7242 6.00007 51.1719 6.00007H47.0781C46.5258 6.00007 46.0781 5.55235 46.0781 5.00007ZM54.2656 5.00007C54.2656 4.44778 54.7133 4.00007 55.2656 4.00007H59.3594C59.9117 4.00007 60.3594 4.44778 60.3594 5.00007C60.3594 5.55235 59.9117 6.00007 59.3594 6.00007H55.2656C54.7133 6.00007 54.2656 5.55235 54.2656 5.00007ZM62.4531 5.00007C62.4531 4.44778 62.9008 4.00007 63.4531 4.00007H67.5469C68.0992 4.00007 68.5469 4.44778 68.5469 5.00007C68.5469 5.55235 68.0992 6.00007 67.5469 6.00007H63.4531C62.9008 6.00007 62.4531 5.55235 62.4531 5.00007ZM70.6406 5.00007C70.6406 4.44778 71.0883 4.00007 71.6406 4.00007H75.7344C76.2867 4.00007 76.7344 4.44778 76.7344 5.00007C76.7344 5.55235 76.2867 6.00007 75.7344 6.00007H71.6406C71.0883 6.00007 70.6406 5.55235 70.6406 5.00007ZM78.8281 5.00007C78.8281 4.44778 79.2758 4.00007 79.8281 4.00007H83.9219C84.4742 4.00007 84.9219 4.44778 84.9219 5.00007C84.9219 5.55235 84.4742 6.00007 83.9219 6.00007H79.8281C79.2758 6.00007 78.8281 5.55235 78.8281 5.00007ZM87.0156 5.00007C87.0156 4.44778 87.4633 4.00007 88.0156 4.00007H92.1094C92.6617 4.00007 93.1094 4.44778 93.1094 5.00007C93.1094 5.55235 92.6617 6.00007 92.1094 6.00007H88.0156C87.4633 6.00007 87.0156 5.55235 87.0156 5.00007ZM95.2031 5.00007C95.2031 4.44778 95.6508 4.00007 96.2031 4.00007H100.297C100.849 4.00007 101.297 4.44778 101.297 5.00007C101.297 5.55235 100.849 6.00007 100.297 6.00007H96.2031C95.6508 6.00007 95.2031 5.55235 95.2031 5.00007ZM103.391 5.00007C103.391 4.44778 103.838 4.00007 104.391 4.00007H108.484C109.037 4.00007 109.484 4.44778 109.484 5.00007C109.484 5.55235 109.037 6.00007 108.484 6.00007H104.391C103.838 6.00007 103.391 5.55235 103.391 5.00007ZM111.578 5.00007C111.578 4.44778 112.026 4.00007 112.578 4.00007H116.672C117.224 4.00007 117.672 4.44778 117.672 5.00007C117.672 5.55235 117.224 6.00007 116.672 6.00007H112.578C112.026 6.00007 111.578 5.55235 111.578 5.00007Z" fill="black"/>
</svg>
