<svg width="32" height="31" viewBox="0 0 32 31" fill="none" xmlns="http://www.w3.org/2000/svg">
<path fill-rule="evenodd" clip-rule="evenodd" d="M12.6444 0.500001H19.3556C20.622 0.499978 21.6694 0.499959 22.5131 0.573461C23.3851 0.649421 24.203 0.813775 24.9457 1.24581C26.0705 1.90008 26.9269 2.93197 27.3627 4.15807C27.6505 4.9677 27.6613 5.80186 27.5752 6.67291C27.492 7.51579 27.2989 8.54522 27.0655 9.79001L26.4432 13.1091C26.2775 13.9927 26.1382 14.7361 25.9769 15.3421C25.8076 15.9785 25.5895 16.5661 25.2166 17.11C24.6384 17.9534 23.8365 18.6189 22.901 19.0317C22.2977 19.298 21.68 19.4041 21.0233 19.4533C20.398 19.5 19.6417 19.5 18.7427 19.5H13.2573C12.3583 19.5 11.602 19.5 10.9767 19.4533C10.32 19.4041 9.7023 19.298 9.09897 19.0317C8.16348 18.6189 7.36161 17.9534 6.78341 17.11C6.4105 16.5661 6.19238 15.9785 6.02307 15.3421C5.86184 14.7361 5.72248 13.9927 5.55682 13.1091L4.93447 9.78995C4.70106 8.54518 4.50802 7.51577 4.42477 6.67291C4.33873 5.80186 4.34954 4.9677 4.6373 4.15807C5.07308 2.93197 5.92947 1.90008 7.05427 1.24581C7.797 0.813775 8.61488 0.649421 9.48686 0.573461C10.3306 0.499959 11.378 0.499978 12.6444 0.500001ZM9.74721 3.56214C9.06255 3.62178 8.75243 3.72863 8.56269 3.839C8.05142 4.1364 7.66215 4.60544 7.46407 5.16276C7.39055 5.36959 7.34269 5.69409 7.41024 6.37802C7.47912 7.07529 7.64658 7.97571 7.89546 9.30302L8.49545 12.503C8.67373 13.4538 8.79327 14.0861 8.92222 14.5708C9.0463 15.0372 9.15373 15.2619 9.25775 15.4136C9.52057 15.797 9.88506 16.0995 10.3103 16.2872C10.4786 16.3614 10.7192 16.4256 11.2005 16.4616C11.7007 16.499 12.3442 16.5 13.3115 16.5H18.6885C19.6558 16.5 20.2993 16.499 20.7995 16.4616C21.2808 16.4256 21.5214 16.3614 21.6897 16.2872C22.1149 16.0995 22.4794 15.797 22.7422 15.4136C22.8463 15.2619 22.9537 15.0372 23.0778 14.5708C23.2067 14.0861 23.3263 13.4538 23.5045 12.503L24.1045 9.30301C24.3534 7.9757 24.5209 7.07529 24.5898 6.37802C24.6573 5.69409 24.6094 5.36959 24.5359 5.16276C24.3378 4.60544 23.9486 4.1364 23.4373 3.839C23.2476 3.72863 22.9375 3.62178 22.2528 3.56214C21.5548 3.50134 20.6389 3.5 19.2885 3.5H12.7115C11.3611 3.5 10.4452 3.50134 9.74721 3.56214Z" fill="black"/>
<path fill-rule="evenodd" clip-rule="evenodd" d="M0.5 26C0.5 23.5147 2.51472 21.5 5 21.5H27C29.4853 21.5 31.5 23.5147 31.5 26C31.5 28.4853 29.4853 30.5 27 30.5H5C2.51472 30.5 0.5 28.4853 0.5 26ZM5 24.5C4.17157 24.5 3.5 25.1716 3.5 26C3.5 26.8284 4.17157 27.5 5 27.5H27C27.8284 27.5 28.5 26.8284 28.5 26C28.5 25.1716 27.8284 24.5 27 24.5H5Z" fill="black"/>
</svg>
