<svg width="36" height="36" viewBox="0 0 36 36" fill="none" xmlns="http://www.w3.org/2000/svg">
<path fill-rule="evenodd" clip-rule="evenodd" d="M17.8535 0.500046C17.9017 0.50007 17.9506 0.500094 18.0001 0.500094C18.0496 0.500094 18.0985 0.50007 18.1466 0.500046C18.9321 0.499656 19.5381 0.499355 20.0731 0.605775C22.2549 1.03976 23.9604 2.7453 24.3944 4.9271C24.5008 5.46211 24.5005 6.06809 24.5001 6.85355C24.5001 6.90171 24.5001 6.95055 24.5001 7.00009V7.50009C24.5001 9.00479 24.5164 9.42461 24.6077 9.72581C24.8501 10.5248 25.4754 11.1501 26.2744 11.3924C26.5756 11.4838 26.9954 11.5001 28.5001 11.5001H29.0001C29.0496 11.5001 29.0985 11.5001 29.1466 11.5C29.9321 11.4997 30.5381 11.4994 31.0731 11.6058C33.2549 12.0398 34.9604 13.7453 35.3944 15.9271C35.5008 16.4621 35.5005 17.0681 35.5001 17.8535C35.5001 17.9017 35.5001 17.9505 35.5001 18.0001C35.5001 18.0496 35.5001 18.0985 35.5001 18.1467C35.5005 18.9321 35.5008 19.5381 35.3944 20.0731C34.9604 22.2549 33.2549 23.9604 31.0731 24.3944C30.5381 24.5008 29.9321 24.5005 29.1466 24.5001C29.0985 24.5001 29.0496 24.5001 29.0001 24.5001H28.5001C26.9954 24.5001 26.5756 24.5164 26.2744 24.6077C25.4754 24.8501 24.8501 25.4754 24.6077 26.2744C24.5164 26.5756 24.5001 26.9954 24.5001 28.5001V29.0001C24.5001 29.0496 24.5001 29.0985 24.5001 29.1466C24.5005 29.9321 24.5008 30.5381 24.3944 31.0731C23.9604 33.2549 22.2549 34.9604 20.0731 35.3944C19.5381 35.5008 18.9321 35.5005 18.1467 35.5001C18.0985 35.5001 18.0496 35.5001 18.0001 35.5001C17.9505 35.5001 17.9017 35.5001 17.8535 35.5001C17.0681 35.5005 16.4621 35.5008 15.9271 35.3944C13.7453 34.9604 12.0398 33.2549 11.6058 31.0731C11.4994 30.5381 11.4997 29.9321 11.5 29.1466C11.5001 29.0985 11.5001 29.0496 11.5001 29.0001V28.5001C11.5001 26.9954 11.4838 26.5756 11.3924 26.2744C11.1501 25.4754 10.5248 24.8501 9.72581 24.6077C9.42461 24.5164 9.00479 24.5001 7.50009 24.5001H7.00009C6.95055 24.5001 6.90171 24.5001 6.85355 24.5001C6.06809 24.5005 5.46211 24.5008 4.9271 24.3944C2.7453 23.9604 1.03976 22.2549 0.605775 20.0731C0.499355 19.5381 0.499656 18.9321 0.500046 18.1466C0.50007 18.0985 0.500094 18.0496 0.500094 18.0001C0.500094 17.9506 0.50007 17.9017 0.500046 17.8535C0.499656 17.0681 0.499355 16.4621 0.605775 15.9271C1.03976 13.7453 2.7453 12.0398 4.9271 11.6058C5.46211 11.4994 6.06809 11.4997 6.85355 11.5C6.90171 11.5001 6.95055 11.5001 7.00009 11.5001H7.50009C9.00479 11.5001 9.42461 11.4838 9.72581 11.3924C10.5248 11.1501 11.1501 10.5248 11.3924 9.72581C11.4838 9.42461 11.5001 9.00479 11.5001 7.5001V7.00009C11.5001 6.95055 11.5001 6.90171 11.5 6.85355C11.4997 6.06809 11.4994 5.46211 11.6058 4.9271C12.0398 2.7453 13.7453 1.03976 15.9271 0.605775C16.4621 0.499355 17.0681 0.499656 17.8535 0.500046ZM18.0001 3.50009C16.9989 3.50009 16.7173 3.50736 16.5124 3.54813C15.5206 3.7454 14.7454 4.52064 14.5481 5.51237C14.5074 5.71734 14.5001 5.99889 14.5001 7.00009V7.5001C14.5001 7.57442 14.5001 7.6477 14.5002 7.71998C14.5011 8.8988 14.5018 9.81048 14.2633 10.5967C13.73 12.3545 12.3545 13.73 10.5967 14.2633C9.81048 14.5018 8.8988 14.5011 7.71998 14.5002C7.6477 14.5001 7.57442 14.5001 7.50009 14.5001H7.00009C5.99889 14.5001 5.71734 14.5074 5.51237 14.5481C4.52064 14.7454 3.7454 15.5206 3.54813 16.5124C3.50736 16.7173 3.50009 16.9989 3.50009 18.0001C3.50009 19.0013 3.50736 19.2828 3.54813 19.4878C3.7454 20.4795 4.52064 21.2548 5.51237 21.4521C5.71734 21.4928 5.99889 21.5001 7.00009 21.5001H7.50009C7.57442 21.5001 7.6477 21.5 7.71998 21.5C8.8988 21.4991 9.81048 21.4984 10.5967 21.7369C12.3545 22.2701 13.73 23.6457 14.2633 25.4035C14.5018 26.1897 14.5011 27.1014 14.5002 28.2802C14.5001 28.3525 14.5001 28.4258 14.5001 28.5001V29.0001C14.5001 30.0013 14.5074 30.2828 14.5481 30.4878C14.7454 31.4795 15.5206 32.2548 16.5124 32.4521C16.7173 32.4928 16.9989 32.5001 18.0001 32.5001C19.0013 32.5001 19.2828 32.4928 19.4878 32.4521C20.4795 32.2548 21.2548 31.4795 21.4521 30.4878C21.4928 30.2828 21.5001 30.0013 21.5001 29.0001V28.5001C21.5001 28.4258 21.5 28.3525 21.5 28.2802C21.4991 27.1014 21.4984 26.1897 21.7369 25.4035C22.2701 23.6457 23.6457 22.2701 25.4035 21.7369C26.1897 21.4984 27.1014 21.4991 28.2802 21.5C28.3525 21.5 28.4258 21.5001 28.5001 21.5001H29.0001C30.0013 21.5001 30.2828 21.4928 30.4878 21.4521C31.4795 21.2548 32.2548 20.4795 32.4521 19.4878C32.4928 19.2828 32.5001 19.0013 32.5001 18.0001C32.5001 16.9989 32.4928 16.7173 32.4521 16.5124C32.2548 15.5206 31.4795 14.7454 30.4878 14.5481C30.2828 14.5074 30.0013 14.5001 29.0001 14.5001H28.5001C28.4258 14.5001 28.3525 14.5001 28.2802 14.5002C27.1014 14.5011 26.1897 14.5018 25.4035 14.2633C23.6457 13.73 22.2701 12.3545 21.7369 10.5967C21.4984 9.81048 21.4991 8.8988 21.5 7.71998C21.5 7.6477 21.5001 7.57442 21.5001 7.50009V7.00009C21.5001 5.99889 21.4928 5.71734 21.4521 5.51237C21.2548 4.52064 20.4795 3.7454 19.4878 3.54813C19.2828 3.50736 19.0013 3.50009 18.0001 3.50009Z" fill="black"/>
</svg>
