<svg width="16" height="16" viewBox="0 0 16 16" fill="none" xmlns="http://www.w3.org/2000/svg">
<path fill-rule="evenodd" clip-rule="evenodd" d="M11.175 12.8516C11.507 12.9419 11.7041 13.2831 11.6162 13.6158C11.3533 14.6118 10.3448 15.2028 9.36365 14.9359C8.38249 14.6691 7.80022 13.6454 8.06313 12.6495C8.15057 12.3182 8.49111 12.1216 8.82169 12.2115L11.175 12.8516Z" fill="black"/>
<path fill-rule="evenodd" clip-rule="evenodd" d="M10.1876 11.2946C9.23823 11.0363 8.61766 10.126 8.72427 9.14794L8.96934 6.89967C8.98014 6.80053 8.99801 6.70294 9.02381 6.60661C9.32477 5.48317 9.9517 3.49946 12.2198 4.11634C14.4877 4.73315 14.0538 6.76895 13.761 7.89468C13.7358 7.99141 13.7031 8.08531 13.6635 8.17706L12.7801 10.2211C12.3854 11.1344 11.3793 11.6187 10.4193 11.3576L10.1876 11.2946Z" fill="black"/>
<path fill-rule="evenodd" clip-rule="evenodd" d="M7.22582 8.45329C7.53442 8.37699 7.84823 8.55788 7.93687 8.86316C8.19978 9.76854 7.61751 10.6992 6.63635 10.9417C5.65518 11.1843 4.64667 10.6471 4.38377 9.74168C4.29719 9.4435 4.47606 9.13318 4.77748 9.05865L7.22582 8.45329Z" fill="black"/>
<path fill-rule="evenodd" clip-rule="evenodd" d="M5.49295 7.7104C4.57037 7.93851 3.61467 7.48588 3.20663 6.62757L2.34631 4.81792C2.30015 4.72082 2.26181 4.62085 2.23238 4.51745C1.93987 3.48953 1.52931 1.6623 3.78019 1.10576C6.02961 0.549586 6.66478 2.31876 6.96867 3.34423C6.99962 3.44865 7.02095 3.55502 7.03391 3.66316L7.25038 5.46853C7.37058 6.47098 6.72477 7.40582 5.74465 7.64816L5.49295 7.7104Z" fill="black"/>
</svg>
