<svg width="1390" height="850" viewBox="0 0 1390 850" fill="none" xmlns="http://www.w3.org/2000/svg">
<path d="M1.5 161.828C1.5 132.726 1.50121 110.991 2.92927 93.7983C4.35594 76.6229 7.19867 64.1201 12.8032 53.4532C22.7401 34.5408 38.5565 19.3718 57.8674 10.2335C68.7591 5.07939 81.3697 2.76135 98.5897 2.05331C115.827 1.34458 137.543 2.25121 166.62 3.46677L1236.62 48.1975C1263.58 49.3247 1283.72 50.1675 1299.68 52.1219C1315.61 54.0742 1327.26 57.1232 1337.27 62.596C1355.02 72.3078 1369.36 87.2536 1378.32 105.4C1383.37 115.627 1385.93 127.389 1387.21 143.395C1388.5 159.419 1388.5 179.572 1388.5 206.559V643.441C1388.5 670.428 1388.5 690.581 1387.21 706.605C1385.93 722.611 1383.37 734.373 1378.32 744.6C1369.36 762.746 1355.02 777.692 1337.27 787.404C1327.26 792.877 1315.61 795.926 1299.68 797.878C1283.72 799.832 1263.58 800.675 1236.62 801.802L166.62 846.533C137.543 847.749 115.827 848.655 98.5897 847.947C81.3697 847.239 68.7591 844.921 57.8674 839.766C38.5565 830.628 22.7401 815.459 12.8032 796.547C7.19867 785.88 4.35594 773.377 2.92927 756.202C1.50121 739.009 1.5 717.274 1.5 688.172V161.828Z" stroke="#080708" stroke-width="3"/>
</svg>
