<svg width="350" height="350" viewBox="0 0 350 350" fill="none" xmlns="http://www.w3.org/2000/svg">
<rect x="219.645" y="175" width="50" height="50" rx="10" transform="rotate(-45 219.645 175)" fill="#9CF50B"/>
<rect x="59.6445" y="175" width="50" height="50" rx="10" transform="rotate(-45 59.6445 175)" fill="#9CF50B"/>
<rect x="139.645" y="96" width="50" height="50" rx="10" transform="rotate(-45 139.645 96)" fill="#9CF50B"/>
<rect x="139.645" y="255" width="50" height="50" rx="10" transform="rotate(-45 139.645 255)" fill="#9CF50B"/>
<rect x="193.481" y="175" width="87" height="87" rx="28.5" transform="rotate(-45 193.481 175)" stroke="#080708" stroke-width="3"/>
<rect x="113.481" y="255" width="87" height="87" rx="28.5" transform="rotate(-45 113.481 255)" stroke="#080708" stroke-width="3"/>
<rect x="113.481" y="96" width="87" height="87" rx="28.5" transform="rotate(-45 113.481 96)" stroke="#080708" stroke-width="3"/>
<rect x="33.4807" y="175" width="87" height="87" rx="28.5" transform="rotate(-45 33.4807 175)" stroke="#080708" stroke-width="3"/>
</svg>
