<svg width="350" height="350" viewBox="0 0 350 350" fill="none" xmlns="http://www.w3.org/2000/svg">
<rect x="88" y="218" width="174" height="44" rx="10" fill="#9CF50B"/>
<rect x="56.5" y="186.5" width="237" height="107" rx="18.5" stroke="#080708" stroke-width="3"/>
<path d="M203.328 123.632C203.89 118.576 204.303 114.868 204.859 111.948C205.412 109.045 206.088 107.034 207.117 105.351C209.009 102.256 211.769 99.7854 215.054 98.2467C216.84 97.4099 218.914 96.9606 221.859 96.7315C224.824 96.5011 228.554 96.5 233.641 96.5H243C248.625 96.5 252.754 96.5012 256.014 96.7675C259.256 97.0324 261.506 97.5521 263.399 98.5164C266.88 100.29 269.71 103.12 271.484 106.601C272.448 108.494 272.968 110.744 273.232 113.986C273.499 117.246 273.5 121.375 273.5 127V243C273.5 248.625 273.499 252.754 273.232 256.014C272.968 259.256 272.448 261.506 271.484 263.399C269.71 266.88 266.88 269.71 263.399 271.484C261.506 272.448 259.256 272.968 256.014 273.232C252.754 273.499 248.625 273.5 243 273.5H220.752C214.539 273.5 209.974 273.499 206.395 273.194C202.831 272.891 200.396 272.295 198.404 271.196C194.738 269.172 191.868 265.965 190.261 262.098C189.388 259.997 189.066 257.511 189.158 253.936C189.25 250.345 189.753 245.807 190.439 239.632L203.328 123.632Z" stroke="#080708" stroke-width="3"/>
<path d="M295 65L289.855 67.5725C289.374 67.813 289.133 67.9333 288.905 68.0429C280.182 72.2212 269.98 71.9381 261.503 67.2824C261.28 67.1602 261.047 67.0268 260.58 66.7599L252.279 62.0165C245.029 57.8739 235.904 59.0959 230 65V65C224.096 70.9041 214.971 72.1261 207.721 67.9835L197.279 62.0165C190.029 57.8739 180.904 59.0959 175 65V65C169.096 70.9041 159.971 72.1261 152.721 67.9835L142.279 62.0165C135.029 57.8739 125.904 59.0959 120 65V65C114.096 70.9041 104.971 72.1261 97.7212 67.9835L89.4201 63.2401C88.9532 62.9733 88.7197 62.8398 88.4972 62.7177C80.0199 58.062 69.818 57.7788 61.0954 61.9571C60.8665 62.0667 60.626 62.187 60.145 62.4275L55 65" stroke="#080708" stroke-width="3"/>
<path d="M185 95L179.252 100.748C170.838 109.162 157.832 110.904 147.5 105L142.279 102.016C135.029 97.8739 125.904 99.0959 120 105V105C114.096 110.904 104.971 112.126 97.7212 107.984L89.4201 103.24C88.9532 102.973 88.7197 102.84 88.4972 102.718C80.0199 98.0619 69.818 97.7788 61.0954 101.957C60.8665 102.067 60.626 102.187 60.145 102.427L55 105" stroke="#080708" stroke-width="3"/>
</svg>
