<svg width="1947" height="1570" viewBox="0 0 1947 1570" fill="none" xmlns="http://www.w3.org/2000/svg">
<path d="M167.647 1320.45L137.595 1495.13C130.177 1538.25 92.8459 1569.75 49.1712 1569.75C22.1528 1569.75 0.25 1547.85 0.25 1520.83V0.25H1946.75V1394.87C1946.75 1444.44 1906.57 1484.62 1857 1484.62H1850.08C1834.05 1484.62 1818.41 1489.56 1805.27 1498.76C1758.44 1531.58 1693.46 1504.2 1684.14 1447.71L1640.05 1180.55C1628.24 1108.96 1526.21 1106.95 1511.6 1178.02L1500.64 1231.32C1490.07 1282.74 1418.12 1286.36 1402.45 1236.26C1386.41 1184.92 1312.36 1189.7 1303.03 1242.68L1269.38 1433.71C1258.34 1496.38 1169.19 1498.11 1155.73 1435.91C1142.33 1373.99 1053.94 1374.58 1041.37 1436.69L1037.79 1454.42C1024.34 1520.9 929.277 1520.29 916.676 1453.64L882.258 1271.6C873.69 1226.29 811.74 1219.44 793.522 1261.8C775.378 1303.99 713.583 1296.76 705.631 1251.52L689.835 1161.66C675.293 1078.93 556.235 1080.53 543.922 1163.63L509.474 1396.1C500.771 1454.83 430.393 1480.35 386.181 1440.8C374.451 1430.3 366.337 1416.36 363.002 1400.96L344.738 1316.63C323.715 1219.57 184.486 1222.57 167.647 1320.45Z" fill="#FAFFFD" stroke="#080708" stroke-width="0.5"/>
</svg>
