<svg width="1947" preserveAspectRatio="none" height="785" viewBox="0 0 1947 785" fill="none" xmlns="http://www.w3.org/2000/svg">
<path d="M167.657 660.164L137.605 747.505C133.92 758.215 122.781 767.529 107.043 774.17C91.3158 780.806 71.0418 784.75 49.1712 784.75C22.1528 784.75 0.25 762.847 0.25 735.829V0.25H1946.75V652.436C1946.75 702.004 1906.57 742.186 1857 742.186H1850.08C1834.08 742.186 1818.46 744.65 1805.33 749.248C1781.89 757.463 1753.9 758.144 1730.59 753.234C1718.94 750.779 1708.48 746.928 1700.35 741.931C1692.21 736.933 1686.44 730.802 1684.13 723.795L1640.04 590.216C1637.06 581.197 1628.42 574.409 1616.98 569.843C1605.54 565.274 1591.24 562.909 1576.87 562.767C1562.5 562.626 1548.03 564.708 1536.23 569.048C1524.45 573.385 1515.29 579.995 1511.61 588.94L1500.65 615.589C1498.04 621.957 1491.6 626.88 1483.11 630.28C1474.62 633.677 1464.13 635.536 1453.46 635.804C1442.8 636.072 1431.98 634.75 1422.86 631.794C1413.72 628.837 1406.32 624.256 1402.43 618.034C1398.39 611.576 1390.73 606.909 1381.4 603.944C1372.07 600.976 1361.04 599.701 1350.23 600.05C1339.42 600.399 1328.81 602.373 1320.31 605.919C1311.82 609.461 1305.39 614.592 1303.04 621.279L1269.39 716.791C1266.65 724.559 1259.06 730.476 1248.92 734.484C1238.79 738.489 1226.17 740.569 1213.46 740.693C1200.76 740.816 1187.98 738.983 1177.55 735.177C1167.11 731.368 1159.05 725.6 1155.71 717.884C1152.34 710.085 1144.26 704.289 1133.91 700.454C1123.55 696.617 1110.88 694.727 1098.24 694.77C1085.6 694.813 1072.98 696.788 1062.72 700.695C1052.48 704.6 1044.55 710.451 1041.39 718.275L1037.8 727.14C1034.46 735.389 1026.04 741.593 1015.03 745.725C1004.02 749.854 990.455 751.896 976.912 751.853C963.37 751.81 949.862 749.681 938.959 745.482C928.048 741.28 919.79 735.024 916.664 726.756L882.246 635.736C880.081 630.011 874.56 625.535 867.274 622.364C859.982 619.19 850.884 617.306 841.495 616.787C832.105 616.269 822.411 617.115 813.924 619.414C805.44 621.713 798.138 625.468 793.563 630.787C789.047 636.036 781.798 639.767 773.308 642.047C764.823 644.325 755.123 645.147 745.74 644.598C736.356 644.049 727.301 642.13 720.101 638.937C712.895 635.742 707.586 631.29 705.62 625.698L689.824 580.767C686.165 570.358 675.948 562.641 662.567 557.555C649.178 552.466 632.572 549.993 616.044 550.104C599.517 550.216 583.049 552.912 569.937 558.181C556.833 563.445 547.03 571.3 543.93 581.76L509.482 697.996C507.324 705.278 501.332 711.56 492.819 716.576C484.31 721.591 473.309 725.326 461.184 727.524C436.931 731.92 408.241 730.159 386.117 720.263C374.374 715.011 366.298 708.051 362.987 700.408L344.723 658.245C339.442 646.052 326.756 637.037 310.502 631.124C294.241 625.208 274.364 622.38 254.626 622.593C234.888 622.805 215.272 626.059 199.531 632.32C183.798 638.578 171.89 647.861 167.657 660.164Z" fill="#FAFFFD" stroke="#080708" stroke-width="0.5"/>
</svg>
