<svg width="1947" preserveAspectRatio="none" height="3000" viewBox="0 0 1947 3000" fill="none" xmlns="http://www.w3.org/2000/svg">
<path d="M0.25 0.25H1946.75V2867.44C1946.75 2917 1906.57 2957.19 1857 2957.19H1850.08C1834.08 2957.19 1818.46 2959.65 1805.33 2964.25C1781.89 2972.46 1753.9 2973.14 1730.59 2968.23C1718.94 2965.78 1708.48 2961.93 1700.35 2956.93C1692.21 2951.93 1686.44 2945.8 1684.13 2938.79L1640.04 2805.22C1637.06 2796.2 1628.42 2789.41 1616.98 2784.84C1605.54 2780.27 1591.24 2777.91 1576.87 2777.77C1562.5 2777.63 1548.03 2779.71 1536.23 2784.05C1524.45 2788.39 1515.29 2795 1511.61 2803.94L1500.65 2830.59C1498.04 2836.96 1491.6 2841.88 1483.11 2845.28C1474.62 2848.68 1464.13 2850.54 1453.46 2850.8C1442.8 2851.07 1431.98 2849.75 1422.86 2846.79C1413.72 2843.84 1406.32 2839.26 1402.43 2833.03C1398.39 2826.58 1390.73 2821.91 1381.4 2818.94C1372.07 2815.98 1361.04 2814.7 1350.23 2815.05C1339.42 2815.4 1328.81 2817.37 1320.31 2820.92C1311.82 2824.46 1305.39 2829.59 1303.04 2836.28L1269.39 2931.79C1266.65 2939.56 1259.06 2945.48 1248.92 2949.48C1238.79 2953.49 1226.17 2955.57 1213.46 2955.69C1200.76 2955.82 1187.98 2953.98 1177.55 2950.18C1167.11 2946.37 1159.05 2940.6 1155.71 2932.88C1152.34 2925.08 1144.26 2919.29 1133.91 2915.45C1123.55 2911.62 1110.88 2909.73 1098.24 2909.77C1085.6 2909.81 1072.98 2911.79 1062.72 2915.7C1052.48 2919.6 1044.55 2925.45 1041.39 2933.27L1037.8 2942.14C1034.46 2950.39 1026.04 2956.59 1015.03 2960.73C1004.02 2964.85 990.455 2966.9 976.912 2966.85C963.37 2966.81 949.862 2964.68 938.959 2960.48C928.048 2956.28 919.79 2950.02 916.664 2941.76L882.246 2850.74C880.081 2845.01 874.56 2840.53 867.274 2837.36C859.982 2834.19 850.884 2832.31 841.495 2831.79C832.105 2831.27 822.411 2832.12 813.924 2834.41C805.44 2836.71 798.138 2840.47 793.563 2845.79C789.047 2851.04 781.798 2854.77 773.308 2857.05C764.823 2859.32 755.123 2860.15 745.74 2859.6C736.356 2859.05 727.301 2857.13 720.101 2853.94C712.895 2850.74 707.586 2846.29 705.62 2840.7L689.824 2795.77C686.165 2785.36 675.948 2777.64 662.567 2772.56C649.178 2767.47 632.572 2764.99 616.044 2765.1C599.517 2765.22 583.049 2767.91 569.937 2773.18C556.833 2778.45 547.03 2786.3 543.93 2796.76L509.482 2913C507.324 2920.28 501.332 2926.56 492.819 2931.58C484.31 2936.59 473.309 2940.33 461.184 2942.52C436.931 2946.92 408.241 2945.16 386.117 2935.26C374.374 2930.01 366.298 2923.05 362.987 2915.41L344.723 2873.24C339.442 2861.05 326.756 2852.04 310.502 2846.12C294.241 2840.21 274.364 2837.38 254.626 2837.59C234.888 2837.81 215.272 2841.06 199.531 2847.32C183.798 2853.58 171.89 2862.86 167.657 2875.16L137.605 2962.51C133.92 2973.21 122.781 2982.53 107.043 2989.17C91.3158 2995.81 71.0418 2999.75 49.1712 2999.75C22.1528 2999.75 0.25 2977.85 0.25 2950.83V0.25Z" fill="#FAFFFD" stroke="#080708" stroke-width="0.5"/>
</svg>
