<svg width="1947" height="1750" viewBox="0 0 1947 1750" fill="none" xmlns="http://www.w3.org/2000/svg">
<path d="M74.4368 1749.5H60C27.1391 1749.5 0.5 1722.86 0.5 1690V0.5H1946.5V1604.56C1946.5 1637.42 1919.86 1664.06 1887 1664.06H1844.43C1832.03 1664.06 1819.92 1667.89 1809.76 1675.04L1781.81 1694.7C1745.94 1719.93 1696.16 1698.88 1689.02 1655.45L1635.81 1331.8C1624.88 1265.28 1530.42 1263.41 1516.9 1329.45L1500.4 1410.02C1489.88 1461.38 1418.28 1464.99 1402.69 1414.95C1386.57 1363.17 1312.16 1368 1302.78 1421.43L1269.13 1613.16C1258.14 1675.79 1169.37 1677.52 1155.97 1615.37C1142.52 1552.95 1053.75 1553.55 1041.13 1616.15L1035.54 1643.87C1022.58 1708.2 930.944 1707.61 918.796 1643.12L882.504 1450.45C873.891 1404.73 811.608 1397.82 793.292 1440.57C775.247 1482.68 713.787 1475.47 705.877 1430.3L675.456 1256.59C663.557 1188.65 566.133 1189.97 556.058 1258.21L505.211 1602.62C498.259 1649.71 442.056 1670.15 406.75 1638.45L382.774 1616.92C373.406 1608.51 366.926 1597.34 364.263 1584.99L312.297 1344.17C298.204 1278.86 204.87 1280.88 193.581 1346.74L133.057 1699.85C128.139 1728.54 103.389 1749.5 74.4368 1749.5Z" fill="#FAFFFD" stroke="#080708"/>
</svg>
