<svg width="1947" preserveAspectRatio="none" height="875" viewBox="0 0 1947 875" fill="none" xmlns="http://www.w3.org/2000/svg">
<path d="M167.654 735.869L137.602 833.224C133.912 845.177 122.766 855.56 107.034 862.959C91.3089 870.354 71.0383 874.75 49.1712 874.75C22.1528 874.75 0.25 852.847 0.25 825.829V0.25H1946.75V737.556C1946.75 787.124 1906.57 827.306 1857 827.306H1850.08C1834.07 827.306 1818.45 830.053 1805.33 835.18C1781.89 844.334 1753.9 845.094 1730.6 839.621C1718.95 836.885 1708.49 832.594 1700.36 827.025C1692.23 821.455 1686.44 814.618 1684.13 806.794L1640.04 657.9C1637.07 647.865 1628.44 640.299 1616.99 635.206C1605.54 630.112 1591.25 627.475 1576.87 627.317C1562.49 627.159 1548.02 629.481 1536.23 634.32C1524.43 639.157 1515.28 646.525 1511.61 656.482L1500.65 686.185C1498.03 693.297 1491.58 698.785 1483.1 702.571C1474.62 706.357 1464.12 708.429 1453.46 708.728C1442.8 709.027 1431.99 707.552 1422.86 704.259C1413.74 700.964 1406.33 695.86 1402.43 688.917C1398.4 681.726 1390.74 676.523 1381.41 673.216C1372.07 669.907 1361.04 668.485 1350.23 668.874C1339.42 669.263 1328.8 671.465 1320.3 675.418C1311.8 679.369 1305.39 685.087 1303.04 692.526L1269.39 798.989C1266.64 807.663 1259.04 814.258 1248.91 818.723C1238.78 823.186 1226.17 825.504 1213.46 825.641C1200.76 825.779 1187.99 823.737 1177.56 819.495C1167.12 815.252 1159.06 808.823 1155.72 800.21C1152.35 791.529 1144.27 785.068 1133.92 780.792C1123.56 776.513 1110.88 774.406 1098.24 774.454C1085.6 774.501 1072.97 776.704 1062.71 781.06C1052.46 785.415 1044.54 791.937 1041.38 800.644L1037.8 810.526C1034.45 819.735 1026.03 826.649 1015.02 831.253C1004.01 835.854 990.452 838.13 976.912 838.081C963.372 838.033 949.868 835.661 938.968 830.981C928.063 826.3 919.798 819.327 916.667 810.097L882.249 708.642C880.089 702.274 874.575 697.286 867.284 693.748C859.99 690.21 850.889 688.108 841.497 687.53C832.104 686.952 822.407 687.896 813.917 690.46C805.429 693.023 798.127 697.21 793.554 703.136C789.036 708.99 781.786 713.147 773.301 715.687C764.818 718.225 755.122 719.141 745.742 718.529C736.36 717.918 727.308 715.779 720.11 712.222C712.909 708.663 707.593 703.7 705.623 697.452L689.827 647.369C686.173 635.783 675.964 627.181 662.576 621.509C649.184 615.836 632.575 613.078 616.044 613.202C599.514 613.326 583.043 616.333 569.928 622.206C556.817 628.078 547.023 636.833 543.928 648.473L509.48 778.036C507.318 786.168 501.318 793.173 492.809 798.763C484.301 804.352 473.301 808.514 461.179 810.963C436.931 815.863 408.246 813.9 386.126 802.872C374.388 797.02 366.306 789.261 362.991 780.73L344.727 733.732C339.451 720.156 326.771 710.106 310.511 703.513C294.247 696.917 274.367 693.764 254.626 694.001C234.885 694.238 215.265 697.865 199.522 704.846C183.782 711.824 171.882 722.172 167.654 735.869Z" fill="#FAFFFD" stroke="#080708" stroke-width="0.5"/>
</svg>
