<svg width="1947" preserveAspectRatio="none" height="3090" viewBox="0 0 1947 3090" fill="none" xmlns="http://www.w3.org/2000/svg">
<path d="M0.25 3040.83V0.25H1946.75V2952.56C1946.75 3002.12 1906.57 3042.31 1857 3042.31H1850.08C1834.07 3042.31 1818.45 3045.05 1805.33 3050.18C1781.89 3059.33 1753.9 3060.09 1730.6 3054.62C1718.95 3051.89 1708.49 3047.59 1700.36 3042.02C1692.23 3036.46 1686.44 3029.62 1684.13 3021.79L1640.04 2872.9C1637.07 2862.86 1628.44 2855.3 1616.99 2850.21C1605.54 2845.11 1591.25 2842.47 1576.87 2842.32C1562.49 2842.16 1548.02 2844.48 1536.23 2849.32C1524.43 2854.16 1515.28 2861.52 1511.61 2871.48L1500.65 2901.19C1498.03 2908.3 1491.58 2913.78 1483.1 2917.57C1474.62 2921.36 1464.12 2923.43 1453.46 2923.73C1442.8 2924.03 1431.99 2922.55 1422.86 2919.26C1413.74 2915.96 1406.33 2910.86 1402.43 2903.92C1398.4 2896.73 1390.74 2891.52 1381.41 2888.22C1372.07 2884.91 1361.04 2883.48 1350.23 2883.87C1339.42 2884.26 1328.8 2886.46 1320.3 2890.42C1311.8 2894.37 1305.39 2900.09 1303.04 2907.53L1269.39 3013.99C1266.64 3022.66 1259.04 3029.26 1248.91 3033.72C1238.78 3038.19 1226.17 3040.5 1213.46 3040.64C1200.76 3040.78 1187.99 3038.74 1177.56 3034.5C1167.12 3030.25 1159.06 3023.82 1155.72 3015.21C1152.35 3006.53 1144.27 3000.07 1133.92 2995.79C1123.56 2991.51 1110.88 2989.41 1098.24 2989.45C1085.6 2989.5 1072.97 2991.7 1062.71 2996.06C1052.46 3000.42 1044.54 3006.94 1041.38 3015.64L1037.8 3025.53C1034.45 3034.73 1026.03 3041.65 1015.02 3046.25C1004.01 3050.85 990.452 3053.13 976.912 3053.08C963.372 3053.03 949.868 3050.66 938.968 3045.98C928.063 3041.3 919.798 3034.33 916.667 3025.1L882.249 2923.64C880.089 2917.27 874.575 2912.29 867.284 2908.75C859.99 2905.21 850.889 2903.11 841.497 2902.53C832.104 2901.95 822.407 2902.9 813.917 2905.46C805.429 2908.02 798.127 2912.21 793.554 2918.14C789.036 2923.99 781.786 2928.15 773.301 2930.69C764.818 2933.23 755.122 2934.14 745.742 2933.53C736.36 2932.92 727.308 2930.78 720.11 2927.22C712.909 2923.66 707.593 2918.7 705.623 2912.45L689.827 2862.37C686.173 2850.78 675.964 2842.18 662.576 2836.51C649.184 2830.84 632.575 2828.08 616.044 2828.2C599.514 2828.33 583.043 2831.33 569.928 2837.21C556.817 2843.08 547.023 2851.83 543.928 2863.47L509.48 2993.04C507.318 3001.17 501.318 3008.17 492.809 3013.76C484.301 3019.35 473.301 3023.51 461.179 3025.96C436.931 3030.86 408.246 3028.9 386.126 3017.87C374.388 3012.02 366.306 3004.26 362.991 2995.73L344.727 2948.73C339.451 2935.16 326.771 2925.11 310.511 2918.51C294.247 2911.92 274.367 2908.76 254.626 2909C234.885 2909.24 215.265 2912.87 199.522 2919.85C183.782 2926.82 171.882 2937.17 167.654 2950.87L137.602 3048.22C133.912 3060.18 122.766 3070.56 107.034 3077.96C91.3089 3085.35 71.0383 3089.75 49.1712 3089.75C22.1528 3089.75 0.25 3067.85 0.25 3040.83Z" fill="#FAFFFD" stroke="#080708" stroke-width="0.5"/>
</svg>
