<svg width="1947" height="1920" viewBox="0 0 1947 1920" fill="none" xmlns="http://www.w3.org/2000/svg">
<path d="M91.2805 1892.38H40C18.4609 1892.38 1 1874.92 1 1853.38V1H1946V1768.23C1946 1789.77 1928.54 1807.23 1907 1807.23H1838.13C1829.72 1807.23 1821.52 1809.82 1814.63 1814.65L1755.51 1856.09C1732 1872.58 1699.37 1858.82 1694.69 1830.45L1618.73 1369.95C1611.32 1325.02 1547.31 1323.76 1538.14 1368.36L1491.31 1596.28C1483.19 1635.78 1427.94 1638.56 1415.91 1600.07L1389.64 1516C1376.81 1474.95 1317.62 1478.78 1310.16 1521.14L1252.56 1848.21C1245.13 1890.41 1185.12 1891.58 1176.06 1849.7L1138.09 1674.18C1128.69 1630.72 1066.68 1631.14 1057.86 1674.72L1014.79 1887.69C1006.29 1929.71 946.231 1929.33 938.269 1887.2L879.079 1574.02C871.556 1534.22 817.158 1528.21 801.16 1565.41L784.311 1604.6C768.992 1640.23 716.819 1634.13 710.105 1595.92L654.575 1279.9C646.511 1234.01 580.488 1234.9 573.66 1280.99L499.272 1783.17C494.716 1813.93 457.877 1827.29 434.736 1806.58L378.262 1756.04C372.122 1750.55 367.874 1743.25 366.128 1735.18L290.995 1388.16C281.444 1344.05 218.193 1345.41 210.543 1389.89L129.704 1859.95C126.48 1878.69 110.257 1892.38 91.2805 1892.38Z" fill="#FAFFFD" stroke="#080708" stroke-width="2"/>
</svg>
