<svg width="1947" preserveAspectRatio="none" height="960" viewBox="0 0 1947 960" fill="none" xmlns="http://www.w3.org/2000/svg">
<path d="M91.2805 945.692H40C18.4609 945.692 1 928.232 1 906.692V1H1946V864.114C1946 885.653 1928.54 903.114 1907 903.114H1838.13C1829.83 903.114 1821.72 904.391 1814.88 906.789L1755.75 927.513C1743.89 931.671 1729.69 932.023 1717.86 929.529C1711.95 928.283 1706.68 926.336 1702.61 923.836C1698.54 921.33 1695.76 918.324 1694.66 914.993L1618.69 684.743C1616.75 678.851 1611.16 674.545 1604.04 671.701C1596.88 668.844 1587.99 667.379 1579.08 667.291C1570.18 667.204 1561.18 668.493 1553.82 671.204C1546.48 673.904 1540.59 678.083 1538.2 683.903L1491.36 797.859C1489.43 802.56 1484.62 806.305 1478.05 808.936C1471.51 811.555 1463.39 813.001 1455.1 813.21C1446.82 813.418 1438.43 812.388 1431.38 810.105C1424.31 807.813 1418.71 804.304 1415.8 799.655L1389.53 757.621C1386.23 752.327 1380.01 748.586 1372.62 746.235C1365.2 743.875 1356.46 742.868 1347.92 743.144C1339.37 743.42 1330.96 744.981 1324.18 747.807C1317.44 750.622 1312.16 754.768 1310.2 760.325L1252.6 923.859C1250.84 928.868 1245.89 932.81 1239.01 935.531C1232.16 938.239 1223.59 939.658 1214.93 939.742C1206.27 939.826 1197.59 938.575 1190.53 935.999C1183.45 933.412 1178.16 929.557 1176 924.556L1138.03 836.798C1135.58 831.132 1129.78 827.035 1122.57 824.365C1115.34 821.684 1106.52 820.374 1097.76 820.404C1089 820.433 1080.22 821.802 1073.05 824.533C1065.92 827.252 1060.22 831.393 1057.91 837.085L1014.84 943.568C1012.82 948.575 1007.65 952.463 1000.63 955.096C993.637 957.719 984.99 959.027 976.325 959C967.661 958.972 959.049 957.608 952.128 954.942C945.178 952.265 940.116 948.348 938.222 943.338L879.032 786.751C877.059 781.532 872.077 777.557 865.716 774.787C859.33 772.007 851.398 770.369 843.243 769.919C835.085 769.468 826.65 770.202 819.247 772.208C811.861 774.21 805.404 777.505 801.321 782.253L784.471 801.848C780.725 806.204 774.65 809.36 767.418 811.302C760.202 813.24 751.934 813.944 743.923 813.475C735.909 813.006 728.207 811.367 722.113 808.664C715.994 805.95 711.652 802.237 710.063 797.715L654.533 639.705C652.422 633.699 646.588 629.377 639.228 626.579C631.837 623.769 622.712 622.415 613.661 622.476C604.61 622.537 595.558 624.013 588.315 626.924C581.105 629.822 575.484 634.231 573.691 640.285L499.303 891.375C498.234 894.982 495.232 898.195 490.778 900.821C486.336 903.44 480.553 905.411 474.136 906.575C461.288 908.904 446.121 907.96 434.477 902.75L378.004 877.481C371.817 874.713 367.718 871.109 366.069 867.3L290.935 693.788C288.446 688.04 282.534 683.912 275.214 681.248C267.865 678.574 258.921 677.306 250.067 677.401C241.214 677.497 232.382 678.956 225.261 681.789C218.17 684.611 212.588 688.876 210.583 694.706L129.744 929.733C128.228 934.14 123.561 938.144 116.656 941.058C109.792 943.956 100.902 945.692 91.2805 945.692Z" fill="#FAFFFD" stroke="#080708" stroke-width="2"/>
</svg>
