<svg width="1947" preserveAspectRatio="none" height="3175" viewBox="0 0 1947 3175" fill="none" xmlns="http://www.w3.org/2000/svg">
<path d="M1 3121.69V1H1946V3079.11C1946 3100.65 1928.54 3118.11 1907 3118.11H1838.13C1829.83 3118.11 1821.72 3119.39 1814.88 3121.79L1755.75 3142.51C1743.89 3146.67 1729.69 3147.02 1717.86 3144.53C1711.95 3143.28 1706.68 3141.34 1702.61 3138.84C1698.54 3136.33 1695.76 3133.32 1694.66 3129.99L1618.69 2899.74C1616.75 2893.85 1611.16 2889.54 1604.04 2886.7C1596.88 2883.84 1587.99 2882.38 1579.08 2882.29C1570.18 2882.2 1561.18 2883.49 1553.82 2886.2C1546.48 2888.9 1540.59 2893.08 1538.2 2898.9L1491.36 3012.86C1489.43 3017.56 1484.62 3021.31 1478.05 3023.94C1471.51 3026.56 1463.39 3028 1455.1 3028.21C1446.82 3028.42 1438.43 3027.39 1431.38 3025.1C1424.31 3022.81 1418.71 3019.3 1415.8 3014.66L1389.53 2972.62C1386.23 2967.33 1380.01 2963.59 1372.62 2961.23C1365.2 2958.88 1356.46 2957.87 1347.92 2958.14C1339.37 2958.42 1330.96 2959.98 1324.18 2962.81C1317.44 2965.62 1312.16 2969.77 1310.2 2975.32L1252.6 3138.86C1250.84 3143.87 1245.89 3147.81 1239.01 3150.53C1232.16 3153.24 1223.59 3154.66 1214.93 3154.74C1206.27 3154.83 1197.59 3153.57 1190.53 3151C1183.45 3148.41 1178.16 3144.56 1176 3139.56L1138.03 3051.8C1135.58 3046.13 1129.78 3042.03 1122.57 3039.36C1115.34 3036.68 1106.52 3035.37 1097.76 3035.4C1089 3035.43 1080.22 3036.8 1073.05 3039.53C1065.92 3042.25 1060.22 3046.39 1057.91 3052.09L1014.84 3158.57C1012.82 3163.58 1007.65 3167.46 1000.63 3170.1C993.637 3172.72 984.99 3174.03 976.325 3174C967.661 3173.97 959.049 3172.61 952.128 3169.94C945.178 3167.26 940.116 3163.35 938.222 3158.34L879.032 3001.75C877.059 2996.53 872.077 2992.56 865.716 2989.79C859.33 2987.01 851.398 2985.37 843.243 2984.92C835.085 2984.47 826.65 2985.2 819.247 2987.21C811.861 2989.21 805.404 2992.5 801.321 2997.25L784.471 3016.85C780.725 3021.2 774.65 3024.36 767.418 3026.3C760.202 3028.24 751.934 3028.94 743.923 3028.47C735.909 3028.01 728.207 3026.37 722.113 3023.66C715.994 3020.95 711.652 3017.24 710.063 3012.71L654.533 2854.71C652.422 2848.7 646.588 2844.38 639.228 2841.58C631.837 2838.77 622.712 2837.42 613.661 2837.48C604.61 2837.54 595.558 2839.01 588.315 2841.92C581.105 2844.82 575.484 2849.23 573.691 2855.29L499.303 3106.38C498.234 3109.98 495.232 3113.19 490.778 3115.82C486.336 3118.44 480.553 3120.41 474.136 3121.57C461.288 3123.9 446.121 3122.96 434.477 3117.75L378.004 3092.48C371.817 3089.71 367.718 3086.11 366.069 3082.3L290.935 2908.79C288.446 2903.04 282.534 2898.91 275.214 2896.25C267.865 2893.57 258.921 2892.31 250.067 2892.4C241.214 2892.5 232.382 2893.96 225.261 2896.79C218.17 2899.61 212.588 2903.88 210.583 2909.71L129.744 3144.73C128.228 3149.14 123.561 3153.14 116.656 3156.06C109.792 3158.96 100.902 3160.69 91.2805 3160.69H40C18.4609 3160.69 1 3143.23 1 3121.69Z" fill="#FAFFFD" stroke="#080708" stroke-width="2"/>
</svg>
