<svg width="1947" height="2090" viewBox="0 0 1947 2090" fill="none" xmlns="http://www.w3.org/2000/svg">
<path d="M99.7023 2019.94H30C14.2599 2019.94 1.5 2007.18 1.5 1991.44V1.5H1945.5V1906.42C1945.5 1922.16 1932.74 1934.92 1917 1934.92H1834.98C1828.52 1934.92 1822.22 1936.91 1816.93 1940.61L1742.22 1992.9C1725.04 2004.93 1701.2 1994.89 1697.78 1974.19L1610.44 1445.61C1604.74 1411.15 1555.56 1410.18 1548.52 1444.4L1483.03 1762.57C1477.09 1791.39 1436.72 1793.42 1427.93 1765.34L1377.86 1605.38C1368 1573.89 1322.53 1576.82 1316.79 1609.32L1243.23 2026.36C1237.8 2057.15 1193.95 2058 1187.32 2027.45L1128.48 1755.88C1121.26 1722.54 1073.61 1722.87 1066.84 1756.3L1004.17 2065.66C997.96 2096.31 954.069 2096.03 948.251 2065.3L873.491 1670.41C867.711 1639.88 825.917 1635.27 813.627 1663.8L770.622 1763.66C759.428 1789.65 721.302 1785.2 716.395 1757.32L644.38 1348.18C638.185 1312.98 587.46 1313.66 582.214 1349.01L496.056 1929.68C492.727 1952.12 465.806 1961.86 448.895 1946.76L376.172 1881.79C371.685 1877.78 368.581 1872.45 367.306 1866.57L280.588 1466.71C273.251 1432.88 224.655 1433.92 218.777 1468.04L127.781 1996.27C125.425 2009.95 113.571 2019.94 99.7023 2019.94Z" fill="#FAFFFD" stroke="#080708" stroke-width="3"/>
</svg>
