<svg width="1947" preserveAspectRatio="none" height="1045" viewBox="0 0 1947 1045" fill="none" xmlns="http://www.w3.org/2000/svg">
<path d="M99.7023 1009.22H30C14.2599 1009.22 1.5 996.459 1.5 980.719V1.5H1945.5V938.212C1945.5 953.952 1932.74 966.712 1917 966.712H1834.98C1828.69 966.712 1822.51 967.678 1817.29 969.505L1742.58 995.649C1733.84 998.711 1723.32 998.976 1714.56 997.133C1710.19 996.212 1706.32 994.78 1703.37 992.965C1700.39 991.14 1698.47 989.012 1697.72 986.748L1610.38 722.458C1608.82 717.736 1604.38 714.393 1598.95 712.231C1593.48 710.049 1586.72 708.942 1579.97 708.876C1573.22 708.81 1566.38 709.784 1560.75 711.851C1555.17 713.902 1550.51 717.136 1548.6 721.779L1483.11 880.866C1481.77 884.113 1478.39 886.811 1473.54 888.748C1468.74 890.669 1462.74 891.74 1456.59 891.895C1450.44 892.049 1444.24 891.286 1439.05 889.606C1433.82 887.916 1429.81 885.365 1427.77 882.098L1377.7 802.117C1375.08 797.936 1370.23 795.06 1364.6 793.274C1358.95 791.477 1352.31 790.716 1345.83 790.925C1339.35 791.134 1332.95 792.315 1327.76 794.474C1322.62 796.616 1318.43 799.837 1316.86 804.29L1243.29 1012.81C1242.08 1016.26 1238.6 1019.1 1233.53 1021.1C1228.5 1023.09 1222.17 1024.14 1215.74 1024.2C1209.31 1024.27 1202.89 1023.34 1197.7 1021.45C1192.47 1019.54 1188.74 1016.75 1187.24 1013.29L1128.39 877.503C1126.44 872.986 1121.85 869.817 1116.37 867.788C1110.84 865.743 1104.14 864.753 1097.5 864.776C1090.86 864.798 1084.18 865.833 1078.7 867.916C1073.27 869.983 1068.76 873.189 1066.92 877.735L1004.25 1032.41C1002.85 1035.88 999.204 1038.68 994.02 1040.62C988.881 1042.55 982.489 1043.52 976.059 1043.5C969.628 1043.48 963.263 1042.47 958.178 1040.51C953.046 1038.54 949.489 1035.72 948.18 1032.26L873.42 834.812C871.837 830.63 867.884 827.541 863.031 825.432C858.14 823.306 852.1 822.066 845.919 821.725C839.732 821.384 833.325 821.939 827.685 823.465C822.07 824.984 817.066 827.507 813.868 831.22L770.864 881.148C768.191 884.251 763.796 886.558 758.447 887.992C753.124 889.419 747.004 889.941 741.064 889.594C735.118 889.247 729.435 888.034 724.966 886.055C720.459 884.06 717.425 881.397 716.333 878.294L644.318 673.72C642.626 668.914 637.999 665.565 632.398 663.439C626.748 661.294 619.808 660.272 612.951 660.318C606.095 660.364 599.209 661.479 593.668 663.702C588.177 665.906 583.702 669.331 582.26 674.19L496.102 964.523C495.376 966.97 493.302 969.246 490.047 971.162C486.811 973.066 482.564 974.518 477.812 975.378C468.288 977.103 457.071 976.393 448.507 972.568L375.785 940.083C371.227 938.047 368.347 935.454 367.216 932.846L280.499 732.918C278.511 728.337 273.846 725.146 268.276 723.122C262.661 721.082 255.86 720.124 249.151 720.197C242.444 720.269 235.725 721.371 230.278 723.535C224.878 725.68 220.446 728.99 218.837 733.659L127.841 997.776C126.807 1000.78 123.547 1003.66 118.443 1005.81C113.402 1007.93 106.835 1009.22 99.7023 1009.22Z" fill="#FAFFFD" stroke="#080708" stroke-width="3"/>
</svg>
