<svg width="1947" preserveAspectRatio="none" height="3260" viewBox="0 0 1947 3260" fill="none" xmlns="http://www.w3.org/2000/svg">
<path d="M1.5 3195.72V1.5H1945.5V3153.21C1945.5 3168.95 1932.74 3181.71 1917 3181.71H1834.98C1828.69 3181.71 1822.51 3182.68 1817.29 3184.51L1742.58 3210.65C1733.84 3213.71 1723.32 3213.98 1714.56 3212.13C1710.19 3211.21 1706.32 3209.78 1703.37 3207.96C1700.39 3206.14 1698.47 3204.01 1697.72 3201.75L1610.38 2937.46C1608.82 2932.74 1604.38 2929.39 1598.95 2927.23C1593.48 2925.05 1586.72 2923.94 1579.97 2923.88C1573.22 2923.81 1566.38 2924.78 1560.75 2926.85C1555.17 2928.9 1550.51 2932.14 1548.6 2936.78L1483.11 3095.87C1481.77 3099.11 1478.39 3101.81 1473.54 3103.75C1468.74 3105.67 1462.74 3106.74 1456.59 3106.9C1450.44 3107.05 1444.24 3106.29 1439.05 3104.61C1433.82 3102.92 1429.81 3100.36 1427.77 3097.1L1377.7 3017.12C1375.08 3012.94 1370.23 3010.06 1364.6 3008.27C1358.95 3006.48 1352.31 3005.72 1345.83 3005.93C1339.35 3006.13 1332.95 3007.31 1327.76 3009.47C1322.62 3011.62 1318.43 3014.84 1316.86 3019.29L1243.29 3227.81C1242.08 3231.26 1238.6 3234.1 1233.53 3236.1C1228.5 3238.09 1222.17 3239.14 1215.74 3239.2C1209.31 3239.27 1202.89 3238.34 1197.7 3236.45C1192.47 3234.54 1188.74 3231.75 1187.24 3228.29L1128.39 3092.5C1126.44 3087.99 1121.85 3084.82 1116.37 3082.79C1110.84 3080.74 1104.14 3079.75 1097.5 3079.78C1090.86 3079.8 1084.18 3080.83 1078.7 3082.92C1073.27 3084.98 1068.76 3088.19 1066.92 3092.73L1004.25 3247.41C1002.85 3250.88 999.204 3253.68 994.02 3255.62C988.881 3257.55 982.489 3258.52 976.059 3258.5C969.628 3258.48 963.263 3257.47 958.178 3255.51C953.046 3253.54 949.489 3250.72 948.18 3247.26L873.42 3049.81C871.837 3045.63 867.884 3042.54 863.031 3040.43C858.14 3038.31 852.1 3037.07 845.919 3036.73C839.732 3036.38 833.325 3036.94 827.685 3038.46C822.07 3039.98 817.066 3042.51 813.868 3046.22L770.864 3096.15C768.191 3099.25 763.796 3101.56 758.447 3102.99C753.124 3104.42 747.004 3104.94 741.064 3104.59C735.118 3104.25 729.435 3103.03 724.966 3101.05C720.459 3099.06 717.425 3096.4 716.333 3093.29L644.318 2888.72C642.626 2883.91 637.999 2880.56 632.398 2878.44C626.748 2876.29 619.808 2875.27 612.951 2875.32C606.095 2875.36 599.209 2876.48 593.668 2878.7C588.177 2880.91 583.702 2884.33 582.26 2889.19L496.102 3179.52C495.376 3181.97 493.302 3184.25 490.047 3186.16C486.811 3188.07 482.564 3189.52 477.812 3190.38C468.288 3192.1 457.071 3191.39 448.507 3187.57L375.785 3155.08C371.227 3153.05 368.347 3150.45 367.216 3147.85L280.499 2947.92C278.511 2943.34 273.846 2940.15 268.276 2938.12C262.661 2936.08 255.86 2935.12 249.151 2935.2C242.444 2935.27 235.725 2936.37 230.278 2938.53C224.878 2940.68 220.446 2943.99 218.837 2948.66L127.841 3212.78C126.807 3215.78 123.547 3218.66 118.443 3220.81C113.402 3222.93 106.835 3224.22 99.7023 3224.22H30C14.2599 3224.22 1.5 3211.46 1.5 3195.72Z" fill="#FAFFFD" stroke="#080708" stroke-width="3"/>
</svg>
