<svg width="1947" height="2220" viewBox="0 0 1947 2220" fill="none" xmlns="http://www.w3.org/2000/svg">
<path d="M99.7023 2149.44H30C14.536 2149.44 2 2136.9 2 2121.44V2H1945V2036.43C1945 2051.89 1932.46 2064.43 1917 2064.43H1834.98C1828.42 2064.43 1822.02 2066.45 1816.64 2070.21L1741.93 2122.49C1725.05 2134.31 1701.63 2124.45 1698.27 2104.11L1610.93 1575.55C1605.15 1540.54 1555.19 1539.56 1548.03 1574.31L1482.54 1892.48C1476.71 1920.79 1437.04 1922.78 1428.41 1895.2L1378.34 1735.24C1368.32 1703.25 1322.12 1706.23 1316.3 1739.24L1242.74 2156.28C1237.4 2186.53 1194.32 2187.36 1187.81 2157.34L1128.97 1885.79C1121.63 1851.92 1073.23 1852.25 1066.35 1886.21L1003.68 2195.56C997.579 2225.68 954.459 2225.4 948.742 2195.21L873.982 1800.33C868.111 1769.31 825.653 1764.63 813.168 1793.62L770.163 1893.47C759.165 1919.01 721.708 1914.63 716.887 1887.25L644.873 1478.11C638.579 1442.35 587.049 1443.05 581.72 1478.96L495.561 2059.61C492.29 2081.66 465.842 2091.23 449.228 2076.39L376.505 2011.42C372.097 2007.48 369.047 2002.25 367.794 1996.47L281.077 1596.62C273.623 1562.25 224.255 1563.31 218.284 1597.97L127.288 2126.19C124.974 2139.63 113.327 2149.44 99.7023 2149.44Z" fill="#9CF50B" stroke="#080708" stroke-width="4"/>
</svg>
