<svg width="1947" preserveAspectRatio="none" height="1110" viewBox="0 0 1947 1110" fill="none" xmlns="http://www.w3.org/2000/svg">
<path d="M99.7023 1073.72H30C14.536 1073.72 2 1061.18 2 1045.72V2H1945V1003.21C1945 1018.68 1932.46 1031.21 1917 1031.21H1834.98C1828.64 1031.21 1822.41 1032.19 1817.13 1034.04L1742.42 1060.18C1733.77 1063.21 1723.35 1063.47 1714.67 1061.64C1710.33 1060.73 1706.52 1059.32 1703.63 1057.54C1700.71 1055.75 1698.89 1053.7 1698.2 1051.59L1610.86 787.31C1609.23 782.381 1604.62 778.96 1599.14 776.776C1593.6 774.566 1586.77 773.452 1579.97 773.385C1573.18 773.319 1566.28 774.298 1560.58 776.391C1554.95 778.462 1550.13 781.765 1548.14 786.597L1482.65 945.68C1481.38 948.745 1478.15 951.373 1473.36 953.288C1468.62 955.182 1462.68 956.246 1456.57 956.399C1450.47 956.553 1444.33 955.794 1439.2 954.135C1434.03 952.461 1430.15 949.961 1428.19 946.837L1378.12 866.858C1375.42 862.534 1370.43 859.607 1364.75 857.805C1359.03 855.987 1352.34 855.222 1345.81 855.433C1339.29 855.643 1332.82 856.832 1327.57 859.02C1322.38 861.184 1318.02 864.482 1316.39 869.13L1242.82 1077.65C1241.67 1080.9 1238.37 1083.66 1233.35 1085.64C1228.39 1087.6 1222.12 1088.64 1215.73 1088.71C1209.35 1088.77 1203 1087.84 1197.87 1085.98C1192.69 1084.09 1189.12 1081.37 1187.69 1078.09L1128.85 942.309C1126.81 937.609 1122.08 934.373 1116.54 932.324C1110.95 930.254 1104.18 929.258 1097.5 929.281C1090.81 929.303 1084.07 930.344 1078.53 932.454C1073.04 934.541 1068.37 937.818 1066.46 942.552L1003.79 1097.23C1002.46 1100.5 998.975 1103.24 993.845 1105.16C988.775 1107.06 982.445 1108.02 976.06 1108C969.675 1107.98 963.373 1106.97 958.357 1105.04C953.28 1103.09 949.883 1100.34 948.648 1097.08L873.888 899.641C872.235 895.277 868.138 892.113 863.23 889.979C858.272 887.825 852.171 886.576 845.946 886.232C839.715 885.889 833.253 886.446 827.554 887.988C821.889 889.521 816.778 892.081 813.489 895.9L770.485 945.826C767.903 948.824 763.616 951.093 758.318 952.513C753.054 953.925 746.988 954.444 741.093 954.099C735.191 953.755 729.569 952.551 725.168 950.602C720.717 948.631 717.83 946.047 716.804 943.133L644.79 738.564C643.026 733.553 638.231 730.129 632.575 727.982C626.854 725.81 619.851 724.782 612.948 724.829C606.047 724.875 599.095 725.997 593.482 728.249C587.935 730.475 583.287 733.983 581.781 739.058L495.622 1029.38C494.946 1031.66 492.99 1033.85 489.793 1035.73C486.622 1037.6 482.434 1039.04 477.723 1039.89C468.273 1041.6 457.163 1040.89 448.711 1037.11L375.988 1004.63C371.486 1002.62 368.735 1000.1 367.674 997.651L280.957 797.728C278.89 792.962 274.07 789.704 268.446 787.661C262.763 785.596 255.9 784.633 249.146 784.706C242.394 784.778 235.611 785.887 230.094 788.079C224.638 790.246 220.043 793.633 218.365 798.505L127.368 1062.61C126.403 1065.41 123.303 1068.22 118.249 1070.35C113.278 1072.44 106.78 1073.72 99.7023 1073.72Z" fill="#9CF50B" stroke="#080708" stroke-width="4"/>
</svg>
