<svg width="1947" preserveAspectRatio="none" height="3325" viewBox="0 0 1947 3325" fill="none" xmlns="http://www.w3.org/2000/svg">
<path d="M2 3260.72V2H1945V3218.21C1945 3233.68 1932.46 3246.21 1917 3246.21H1834.98C1828.64 3246.21 1822.41 3247.19 1817.13 3249.04L1742.42 3275.18C1733.77 3278.21 1723.35 3278.47 1714.67 3276.64C1710.33 3275.73 1706.52 3274.32 1703.63 3272.54C1700.71 3270.75 1698.89 3268.7 1698.2 3266.59L1610.86 3002.31C1609.23 2997.38 1604.62 2993.96 1599.14 2991.78C1593.6 2989.57 1586.77 2988.45 1579.97 2988.39C1573.18 2988.32 1566.28 2989.3 1560.58 2991.39C1554.95 2993.46 1550.13 2996.76 1548.14 3001.6L1482.65 3160.68C1481.38 3163.75 1478.15 3166.37 1473.36 3168.29C1468.62 3170.18 1462.68 3171.25 1456.57 3171.4C1450.47 3171.55 1444.33 3170.79 1439.2 3169.13C1434.03 3167.46 1430.15 3164.96 1428.19 3161.84L1378.12 3081.86C1375.42 3077.53 1370.43 3074.61 1364.75 3072.8C1359.03 3070.99 1352.34 3070.22 1345.81 3070.43C1339.29 3070.64 1332.82 3071.83 1327.57 3074.02C1322.38 3076.18 1318.02 3079.48 1316.39 3084.13L1242.82 3292.65C1241.67 3295.9 1238.37 3298.66 1233.35 3300.64C1228.39 3302.6 1222.12 3303.64 1215.73 3303.71C1209.35 3303.77 1203 3302.84 1197.87 3300.98C1192.69 3299.09 1189.12 3296.37 1187.69 3293.09L1128.85 3157.31C1126.81 3152.61 1122.08 3149.37 1116.54 3147.32C1110.95 3145.25 1104.18 3144.26 1097.5 3144.28C1090.81 3144.3 1084.07 3145.34 1078.53 3147.45C1073.04 3149.54 1068.37 3152.82 1066.46 3157.55L1003.79 3312.23C1002.46 3315.5 998.975 3318.24 993.845 3320.16C988.775 3322.06 982.445 3323.02 976.06 3323C969.675 3322.98 963.373 3321.97 958.357 3320.04C953.28 3318.09 949.883 3315.34 948.648 3312.08L873.888 3114.64C872.235 3110.28 868.138 3107.11 863.23 3104.98C858.272 3102.82 852.171 3101.58 845.946 3101.23C839.715 3100.89 833.253 3101.45 827.554 3102.99C821.889 3104.52 816.778 3107.08 813.489 3110.9L770.485 3160.83C767.903 3163.82 763.616 3166.09 758.318 3167.51C753.054 3168.92 746.988 3169.44 741.093 3169.1C735.191 3168.75 729.569 3167.55 725.168 3165.6C720.717 3163.63 717.83 3161.05 716.804 3158.13L644.79 2953.56C643.026 2948.55 638.231 2945.13 632.575 2942.98C626.854 2940.81 619.851 2939.78 612.948 2939.83C606.047 2939.88 599.095 2941 593.482 2943.25C587.935 2945.47 583.287 2948.98 581.781 2954.06L495.622 3244.38C494.946 3246.66 492.99 3248.85 489.793 3250.73C486.622 3252.6 482.434 3254.04 477.723 3254.89C468.273 3256.6 457.163 3255.89 448.711 3252.11L375.989 3219.63C371.486 3217.62 368.735 3215.1 367.674 3212.65L280.957 3012.73C278.89 3007.96 274.07 3004.7 268.446 3002.66C262.763 3000.6 255.9 2999.63 249.146 2999.71C242.394 2999.78 235.611 3000.89 230.094 3003.08C224.638 3005.25 220.043 3008.63 218.365 3013.5L127.368 3277.61C126.403 3280.41 123.303 3283.22 118.249 3285.35C113.278 3287.44 106.78 3288.72 99.7023 3288.72H30C14.536 3288.72 2 3276.18 2 3260.72Z" fill="#9CF50B" stroke="#080708" stroke-width="4"/>
</svg>
