<svg width="1947" height="2350" viewBox="0 0 1947 2350" fill="none" xmlns="http://www.w3.org/2000/svg">
<path d="M99.7023 2278.94H30C14.8122 2278.94 2.5 2266.63 2.5 2251.44V2.5H1944.5V2166.43C1944.5 2181.62 1932.19 2193.93 1917 2193.93H1834.98C1828.32 2193.93 1821.81 2195.98 1816.35 2199.8L1741.65 2252.09C1725.07 2263.69 1702.06 2254.01 1698.76 2234.04L1611.42 1705.48C1605.55 1669.93 1554.81 1668.93 1547.54 1704.23L1482.05 2022.39C1476.32 2050.19 1437.36 2052.15 1428.88 2025.06L1378.81 1865.1C1368.64 1832.62 1321.72 1835.64 1315.81 1869.17L1242.24 2286.19C1237 2315.9 1194.69 2316.72 1188.3 2287.24L1129.46 2015.69C1122.01 1981.29 1072.85 1981.63 1065.86 2016.12L1003.19 2325.46C997.198 2355.04 954.848 2354.77 949.234 2325.11L874.474 1930.24C868.51 1898.75 825.389 1893.99 812.708 1923.43L769.704 2023.28C758.902 2048.36 722.114 2044.07 717.38 2017.17L645.365 1608.04C638.973 1571.73 586.637 1572.43 581.225 1608.91L495.067 2189.54C491.854 2211.19 465.878 2220.59 449.561 2206.02L376.838 2141.05C372.509 2137.18 369.514 2132.04 368.283 2126.37L281.566 1726.53C273.995 1691.62 223.856 1692.7 217.792 1727.9L126.795 2256.11C124.522 2269.3 113.084 2278.94 99.7023 2278.94Z" fill="#0EFBCA" stroke="#080708" stroke-width="5"/>
</svg>
