<svg width="1947" preserveAspectRatio="none" height="1175" viewBox="0 0 1947 1175" fill="none" xmlns="http://www.w3.org/2000/svg">
<path d="M99.7023 1138.22H30C14.8122 1138.22 2.5 1125.91 2.5 1110.72V2.5H1944.5V1068.22C1944.5 1083.4 1932.19 1095.72 1917 1095.72H1834.98C1828.59 1095.72 1822.3 1096.7 1816.96 1098.57L1742.25 1124.71C1733.7 1127.7 1723.38 1127.97 1714.77 1126.16C1710.48 1125.25 1706.72 1123.86 1703.89 1122.12C1701.03 1120.36 1699.32 1118.39 1698.67 1116.44L1611.33 852.161C1609.63 847.026 1604.86 843.526 1599.32 841.319C1593.71 839.082 1586.82 837.961 1579.98 837.894C1573.14 837.827 1566.17 838.812 1560.41 840.93C1554.72 843.021 1549.75 846.393 1547.68 851.415L1482.18 1010.49C1481 1013.38 1477.91 1015.93 1473.17 1017.83C1468.5 1019.69 1462.62 1020.75 1456.56 1020.9C1450.51 1021.06 1444.42 1020.3 1439.35 1018.66C1434.23 1017.01 1430.48 1014.56 1428.62 1011.58L1378.55 931.599C1375.75 927.131 1370.63 924.153 1364.91 922.334C1359.12 920.497 1352.37 919.727 1345.8 919.939C1339.23 920.151 1332.7 921.347 1327.38 923.564C1322.13 925.752 1317.62 929.127 1315.91 933.97L1242.35 1142.48C1241.27 1145.53 1238.13 1148.21 1233.16 1150.17C1228.27 1152.11 1222.07 1153.14 1215.73 1153.21C1209.39 1153.27 1203.1 1152.35 1198.05 1150.51C1192.92 1148.64 1189.5 1145.99 1188.15 1142.89L1129.31 1007.11C1127.19 1002.23 1122.31 998.928 1116.72 996.859C1111.05 994.764 1104.23 993.762 1097.49 993.785C1090.76 993.808 1083.96 994.855 1078.35 996.991C1072.81 999.099 1067.99 1002.45 1065.99 1007.37L1003.32 1162.04C1002.07 1165.12 998.745 1167.79 993.669 1169.69C988.669 1171.56 982.402 1172.52 976.062 1172.5C969.722 1172.48 963.483 1171.48 958.536 1169.58C953.514 1167.65 950.276 1164.97 949.115 1161.9L874.355 964.469C872.634 959.923 868.392 956.683 863.429 954.526C858.404 952.342 852.241 951.084 845.974 950.739C839.697 950.392 833.182 950.953 827.424 952.511C821.708 954.057 816.49 956.655 813.11 960.579L770.106 1010.5C767.615 1013.4 763.435 1015.63 758.188 1017.03C752.983 1018.43 746.972 1018.95 741.122 1018.6C735.263 1018.26 729.704 1017.07 725.371 1015.15C720.975 1013.2 718.236 1010.7 717.276 1007.97L645.261 803.407C643.425 798.192 638.464 794.691 632.753 792.524C626.961 790.326 619.893 789.292 612.945 789.338C605.998 789.385 598.981 790.514 593.296 792.794C587.693 795.043 582.872 798.633 581.301 803.925L495.143 1094.24C494.517 1096.35 492.679 1098.46 489.54 1100.3C486.432 1102.13 482.304 1103.55 477.634 1104.4C468.258 1106.1 457.255 1105.38 448.915 1101.66L376.192 1069.18C371.746 1067.19 369.123 1064.74 368.133 1062.45L281.416 862.536C279.269 857.586 274.295 854.262 268.617 852.199C262.865 850.109 255.94 849.141 249.141 849.214C242.343 849.287 235.497 850.403 229.909 852.622C224.399 854.811 219.64 858.275 217.892 863.35L126.895 1127.45C125.999 1130.05 123.059 1132.78 118.055 1134.89C113.155 1136.95 106.724 1138.22 99.7023 1138.22Z" fill="#0EFBCA" stroke="#080708" stroke-width="5"/>
</svg>
