<svg width="1947" preserveAspectRatio="none" height="3390" viewBox="0 0 1947 3390" fill="none" xmlns="http://www.w3.org/2000/svg">
<path d="M2.5 3325.72V2.5H1944.5V3283.22C1944.5 3298.4 1932.19 3310.72 1917 3310.72H1834.98C1828.59 3310.72 1822.3 3311.7 1816.96 3313.57L1742.25 3339.71C1733.7 3342.7 1723.38 3342.97 1714.77 3341.16C1710.48 3340.25 1706.72 3338.86 1703.89 3337.12C1701.03 3335.36 1699.32 3333.39 1698.67 3331.44L1611.33 3067.16C1609.63 3062.03 1604.86 3058.53 1599.32 3056.32C1593.71 3054.08 1586.82 3052.96 1579.98 3052.89C1573.14 3052.83 1566.17 3053.81 1560.41 3055.93C1554.72 3058.02 1549.75 3061.39 1547.68 3066.42L1482.18 3225.49C1481 3228.38 1477.91 3230.93 1473.17 3232.83C1468.5 3234.69 1462.62 3235.75 1456.56 3235.9C1450.51 3236.06 1444.42 3235.3 1439.35 3233.66C1434.23 3232.01 1430.48 3229.56 1428.62 3226.58L1378.55 3146.6C1375.75 3142.13 1370.63 3139.15 1364.91 3137.33C1359.12 3135.5 1352.37 3134.73 1345.8 3134.94C1339.23 3135.15 1332.7 3136.35 1327.38 3138.56C1322.13 3140.75 1317.62 3144.13 1315.91 3148.97L1242.35 3357.48C1241.27 3360.53 1238.13 3363.21 1233.16 3365.17C1228.27 3367.11 1222.07 3368.14 1215.73 3368.21C1209.39 3368.27 1203.1 3367.35 1198.05 3365.51C1192.92 3363.64 1189.5 3360.99 1188.15 3357.89L1129.31 3222.11C1127.19 3217.23 1122.31 3213.93 1116.72 3211.86C1111.05 3209.76 1104.23 3208.76 1097.49 3208.79C1090.76 3208.81 1083.96 3209.86 1078.35 3211.99C1072.81 3214.1 1067.99 3217.45 1065.99 3222.37L1003.32 3377.04C1002.07 3380.12 998.745 3382.79 993.669 3384.69C988.669 3386.56 982.402 3387.52 976.062 3387.5C969.722 3387.48 963.483 3386.48 958.536 3384.58C953.514 3382.65 950.276 3379.97 949.115 3376.9L874.355 3179.47C872.634 3174.92 868.392 3171.68 863.429 3169.53C858.404 3167.34 852.241 3166.08 845.974 3165.74C839.697 3165.39 833.182 3165.95 827.424 3167.51C821.708 3169.06 816.49 3171.66 813.11 3175.58L770.106 3225.5C767.615 3228.4 763.435 3230.63 758.188 3232.03C752.983 3233.43 746.972 3233.95 741.122 3233.6C735.263 3233.26 729.704 3232.07 725.371 3230.15C720.975 3228.2 718.236 3225.7 717.276 3222.97L645.261 3018.41C643.425 3013.19 638.464 3009.69 632.753 3007.52C626.961 3005.33 619.893 3004.29 612.945 3004.34C605.998 3004.39 598.981 3005.51 593.296 3007.79C587.693 3010.04 582.872 3013.63 581.301 3018.93L495.143 3309.24C494.517 3311.35 492.679 3313.46 489.54 3315.3C486.432 3317.13 482.304 3318.55 477.634 3319.4C468.258 3321.1 457.255 3320.38 448.915 3316.66L376.192 3284.18C371.746 3282.19 369.123 3279.74 368.133 3277.45L281.416 3077.54C279.269 3072.59 274.295 3069.26 268.617 3067.2C262.865 3065.11 255.94 3064.14 249.141 3064.21C242.343 3064.29 235.497 3065.4 229.909 3067.62C224.399 3069.81 219.64 3073.28 217.892 3078.35L126.895 3342.45C125.999 3345.05 123.059 3347.78 118.055 3349.89C113.155 3351.95 106.724 3353.22 99.7023 3353.22H30C14.8122 3353.22 2.5 3340.91 2.5 3325.72Z" fill="#0EFBCA" stroke="#080708" stroke-width="5"/>
</svg>
